ISO-10303-21;
HEADER;
/* Generated by software containing ST-Developer
 * from STEP Tools, Inc. (www.steptools.com) 
 */

FILE_DESCRIPTION(
/* description */ (''),
/* implementation_level */ '2;1');

FILE_NAME(
/* name */ 'bottom.step',
/* time_stamp */ '2026-09-23T00:25:20-04:00',
/* author */ (''),
/* organization */ (''),
/* preprocessor_version */ 'ST-DEVELOPER v20.2',
/* originating_system */ 'Autodesk Translation Framework v15.15.0.0',
/* authorisation */ '');

FILE_SCHEMA (('AUTOMOTIVE_DESIGN { 1 0 10303 214 3 1 1 }'));
ENDSEC;

DATA;
#10=MECHANICAL_DESIGN_GEOMETRIC_PRESENTATION_REPRESENTATION('',(#13),#1385);
#11=SHAPE_REPRESENTATION_RELATIONSHIP('SRR','None',#1392,#12);
#12=ADVANCED_BREP_SHAPE_REPRESENTATION('',(#14),#1384);
#13=STYLED_ITEM('',(#1401),#14);
#14=MANIFOLD_SOLID_BREP('bottom',#592);
#15=FACE_BOUND('',#108,.T.);
#16=FACE_BOUND('',#109,.T.);
#17=FACE_BOUND('',#110,.T.);
#18=FACE_BOUND('',#111,.T.);
#19=FACE_BOUND('',#112,.T.);
#20=FACE_BOUND('',#140,.T.);
#21=FACE_BOUND('',#141,.T.);
#22=FACE_BOUND('',#142,.T.);
#23=FACE_BOUND('',#143,.T.);
#24=CONICAL_SURFACE('',#623,2.35,0.91510070055336);
#25=CONICAL_SURFACE('',#625,2.35,0.91510070055336);
#26=CONICAL_SURFACE('',#633,2.35,0.915100700553363);
#27=CONICAL_SURFACE('',#658,2.35,0.915100700553363);
#28=ELLIPSE('',#611,3.50458979992645,3.50000000000001);
#29=ELLIPSE('',#612,3.00535350096266,3.00000000000001);
#30=ELLIPSE('',#613,3.00535350096266,3.00000000000001);
#31=ELLIPSE('',#638,3.00535350096266,3.);
#32=ELLIPSE('',#639,3.00535350096266,3.);
#33=ELLIPSE('',#641,3.00535350096265,3.);
#34=ELLIPSE('',#642,3.00535350096265,3.);
#35=ELLIPSE('',#644,5.00531171515112,5.);
#36=ELLIPSE('',#647,5.00531171515112,5.);
#37=ELLIPSE('',#650,5.00531171515112,5.);
#38=ELLIPSE('',#653,5.00531171515112,5.);
#39=ELLIPSE('',#656,3.00535350096266,3.00000000000001);
#40=ELLIPSE('',#657,3.00535350096266,3.00000000000001);
#41=ELLIPSE('',#661,3.50458979992644,3.5);
#42=ELLIPSE('',#663,3.50458979992644,3.5);
#43=ELLIPSE('',#666,4.505901171334,4.5);
#44=ELLIPSE('',#669,4.505901171334,4.5);
#45=ELLIPSE('',#673,4.505901171334,4.5);
#46=ELLIPSE('',#677,4.505901171334,4.5);
#47=ELLIPSE('',#681,3.50458979992645,3.50000000000001);
#48=B_SPLINE_SURFACE_WITH_KNOTS('',3,3,((#883,#884,#885,#886,#887,#888,
#889,#890,#891,#892,#893),(#894,#895,#896,#897,#898,#899,#900,#901,#902,
#903,#904),(#905,#906,#907,#908,#909,#910,#911,#912,#913,#914,#915),(#916,
#917,#918,#919,#920,#921,#922,#923,#924,#925,#926),(#927,#928,#929,#930,
#931,#932,#933,#934,#935,#936,#937)),.UNSPECIFIED.,.F.,.T.,.F.,(4,1,4),
(4,1,1,1,1,1,1,1,4),(0.,0.5,1.),(-3.14159265358979,-2.69279370307697,-2.24399475256414,
-1.34639685153848,-0.448798950512828,0.448798950512828,1.34639685153848,
2.24399475256414,3.14159265358979),.UNSPECIFIED.);
#49=B_SPLINE_SURFACE_WITH_KNOTS('',3,3,((#1052,#1053,#1054,#1055,#1056,
#1057,#1058,#1059,#1060,#1061,#1062,#1063),(#1064,#1065,#1066,#1067,#1068,
#1069,#1070,#1071,#1072,#1073,#1074,#1075),(#1076,#1077,#1078,#1079,#1080,
#1081,#1082,#1083,#1084,#1085,#1086,#1087),(#1088,#1089,#1090,#1091,#1092,
#1093,#1094,#1095,#1096,#1097,#1098,#1099),(#1100,#1101,#1102,#1103,#1104,
#1105,#1106,#1107,#1108,#1109,#1110,#1111)),.UNSPECIFIED.,.F.,.T.,.F.,(4,
1,4),(4,1,1,1,1,1,1,1,1,4),(0.,0.5,1.),(-3.14159265358979,-2.69279370307697,
-2.24399475256414,-1.34639685153848,-0.448798950512828,0.448798950512828,
1.34639685153848,2.24399475256414,2.69279370307697,3.14159265358979),
 .UNSPECIFIED.);
#50=B_SPLINE_SURFACE_WITH_KNOTS('',3,3,((#1115,#1116,#1117,#1118,#1119,
#1120,#1121,#1122,#1123,#1124),(#1125,#1126,#1127,#1128,#1129,#1130,#1131,
#1132,#1133,#1134),(#1135,#1136,#1137,#1138,#1139,#1140,#1141,#1142,#1143,
#1144),(#1145,#1146,#1147,#1148,#1149,#1150,#1151,#1152,#1153,#1154),(#1155,
#1156,#1157,#1158,#1159,#1160,#1161,#1162,#1163,#1164)),.UNSPECIFIED.,.F.,
 .T.,.F.,(4,1,4),(4,1,1,1,1,1,1,4),(0.,0.5,1.),(-3.14159265358979,-2.24399475256414,
-1.34639685153848,-0.448798950512828,0.448798950512828,1.34639685153848,
2.24399475256414,3.14159265358979),.UNSPECIFIED.);
#51=B_SPLINE_SURFACE_WITH_KNOTS('',3,3,((#1168,#1169,#1170,#1171,#1172,
#1173),(#1174,#1175,#1176,#1177,#1178,#1179),(#1180,#1181,#1182,#1183,#1184,
#1185),(#1186,#1187,#1188,#1189,#1190,#1191),(#1192,#1193,#1194,#1195,#1196,
#1197)),.UNSPECIFIED.,.F.,.F.,.F.,(4,1,4),(4,1,1,4),(0.,0.5,1.),(-3.69977471150896E-16,
0.673198425769241,1.12199737628207,1.5707963267949),.UNSPECIFIED.);
#52=B_SPLINE_SURFACE_WITH_KNOTS('',3,3,((#1207,#1208,#1209,#1210,#1211,
#1212),(#1213,#1214,#1215,#1216,#1217,#1218),(#1219,#1220,#1221,#1222,#1223,
#1224),(#1225,#1226,#1227,#1228,#1229,#1230),(#1231,#1232,#1233,#1234,#1235,
#1236)),.UNSPECIFIED.,.F.,.F.,.F.,(4,1,4),(4,1,1,4),(0.,0.5,1.),(-1.5707963267949,
-0.897597901025656,-0.448798950512828,6.16629118584827E-17),
 .UNSPECIFIED.);
#53=B_SPLINE_SURFACE_WITH_KNOTS('',3,3,((#1244,#1245,#1246,#1247,#1248,
#1249),(#1250,#1251,#1252,#1253,#1254,#1255),(#1256,#1257,#1258,#1259,#1260,
#1261),(#1262,#1263,#1264,#1265,#1266,#1267),(#1268,#1269,#1270,#1271,#1272,
#1273)),.UNSPECIFIED.,.F.,.F.,.F.,(4,1,4),(4,1,1,4),(0.,0.5,1.),(-5.55111512312578E-17,
0.448798950512827,0.897597901025655,1.5707963267949),.UNSPECIFIED.);
#54=B_SPLINE_SURFACE_WITH_KNOTS('',3,3,((#1281,#1282,#1283,#1284,#1285,
#1286),(#1287,#1288,#1289,#1290,#1291,#1292),(#1293,#1294,#1295,#1296,#1297,
#1298),(#1299,#1300,#1301,#1302,#1303,#1304),(#1305,#1306,#1307,#1308,#1309,
#1310)),.UNSPECIFIED.,.F.,.F.,.F.,(4,1,4),(4,1,1,4),(0.,0.5,1.),(-1.5707963267949,
-0.897597901025655,-0.448798950512828,6.16629118584827E-17),
 .UNSPECIFIED.);
#55=B_SPLINE_SURFACE_WITH_KNOTS('',3,3,((#1316,#1317,#1318,#1319,#1320,
#1321,#1322,#1323,#1324,#1325,#1326,#1327),(#1328,#1329,#1330,#1331,#1332,
#1333,#1334,#1335,#1336,#1337,#1338,#1339),(#1340,#1341,#1342,#1343,#1344,
#1345,#1346,#1347,#1348,#1349,#1350,#1351),(#1352,#1353,#1354,#1355,#1356,
#1357,#1358,#1359,#1360,#1361,#1362,#1363),(#1364,#1365,#1366,#1367,#1368,
#1369,#1370,#1371,#1372,#1373,#1374,#1375)),.UNSPECIFIED.,.F.,.T.,.F.,(4,
1,4),(4,1,1,1,1,1,1,1,1,4),(0.,0.5,1.),(-3.14159265358979,-2.69279370307697,
-2.24399475256414,-1.34639685153848,-0.448798950512828,0.448798950512828,
1.34639685153848,2.24399475256414,2.69279370307697,3.14159265358979),
 .UNSPECIFIED.);
#56=PLANE('',#609);
#57=PLANE('',#627);
#58=PLANE('',#645);
#59=PLANE('',#648);
#60=PLANE('',#651);
#61=PLANE('',#654);
#62=PLANE('',#683);
#63=FACE_OUTER_BOUND('',#99,.T.);
#64=FACE_OUTER_BOUND('',#100,.T.);
#65=FACE_OUTER_BOUND('',#101,.T.);
#66=FACE_OUTER_BOUND('',#102,.T.);
#67=FACE_OUTER_BOUND('',#103,.T.);
#68=FACE_OUTER_BOUND('',#104,.T.);
#69=FACE_OUTER_BOUND('',#105,.T.);
#70=FACE_OUTER_BOUND('',#106,.T.);
#71=FACE_OUTER_BOUND('',#107,.T.);
#72=FACE_OUTER_BOUND('',#113,.T.);
#73=FACE_OUTER_BOUND('',#114,.T.);
#74=FACE_OUTER_BOUND('',#115,.T.);
#75=FACE_OUTER_BOUND('',#116,.T.);
#76=FACE_OUTER_BOUND('',#117,.T.);
#77=FACE_OUTER_BOUND('',#118,.T.);
#78=FACE_OUTER_BOUND('',#119,.T.);
#79=FACE_OUTER_BOUND('',#120,.T.);
#80=FACE_OUTER_BOUND('',#121,.T.);
#81=FACE_OUTER_BOUND('',#122,.T.);
#82=FACE_OUTER_BOUND('',#123,.T.);
#83=FACE_OUTER_BOUND('',#124,.T.);
#84=FACE_OUTER_BOUND('',#125,.T.);
#85=FACE_OUTER_BOUND('',#126,.T.);
#86=FACE_OUTER_BOUND('',#127,.T.);
#87=FACE_OUTER_BOUND('',#128,.T.);
#88=FACE_OUTER_BOUND('',#129,.T.);
#89=FACE_OUTER_BOUND('',#130,.T.);
#90=FACE_OUTER_BOUND('',#131,.T.);
#91=FACE_OUTER_BOUND('',#132,.T.);
#92=FACE_OUTER_BOUND('',#133,.T.);
#93=FACE_OUTER_BOUND('',#134,.T.);
#94=FACE_OUTER_BOUND('',#135,.T.);
#95=FACE_OUTER_BOUND('',#136,.T.);
#96=FACE_OUTER_BOUND('',#137,.T.);
#97=FACE_OUTER_BOUND('',#138,.T.);
#98=FACE_OUTER_BOUND('',#139,.T.);
#99=EDGE_LOOP('',(#373,#374,#375,#376));
#100=EDGE_LOOP('',(#377));
#101=EDGE_LOOP('',(#378,#379,#380,#381,#382));
#102=EDGE_LOOP('',(#383,#384,#385,#386));
#103=EDGE_LOOP('',(#387,#388,#389,#390));
#104=EDGE_LOOP('',(#391,#392,#393,#394));
#105=EDGE_LOOP('',(#395,#396,#397,#398));
#106=EDGE_LOOP('',(#399,#400,#401,#402));
#107=EDGE_LOOP('',(#403,#404,#405,#406,#407,#408,#409,#410));
#108=EDGE_LOOP('',(#411));
#109=EDGE_LOOP('',(#412));
#110=EDGE_LOOP('',(#413));
#111=EDGE_LOOP('',(#414));
#112=EDGE_LOOP('',(#415));
#113=EDGE_LOOP('',(#416,#417,#418,#419));
#114=EDGE_LOOP('',(#420,#421,#422,#423));
#115=EDGE_LOOP('',(#424,#425,#426,#427,#428));
#116=EDGE_LOOP('',(#429,#430,#431,#432,#433));
#117=EDGE_LOOP('',(#434,#435,#436,#437));
#118=EDGE_LOOP('',(#438,#439,#440,#441));
#119=EDGE_LOOP('',(#442,#443,#444,#445));
#120=EDGE_LOOP('',(#446,#447,#448,#449));
#121=EDGE_LOOP('',(#450,#451,#452,#453));
#122=EDGE_LOOP('',(#454,#455,#456,#457));
#123=EDGE_LOOP('',(#458,#459,#460,#461));
#124=EDGE_LOOP('',(#462,#463,#464,#465));
#125=EDGE_LOOP('',(#466,#467,#468,#469,#470));
#126=EDGE_LOOP('',(#471,#472,#473,#474));
#127=EDGE_LOOP('',(#475,#476,#477,#478,#479));
#128=EDGE_LOOP('',(#480,#481,#482,#483,#484));
#129=EDGE_LOOP('',(#485,#486,#487,#488));
#130=EDGE_LOOP('',(#489,#490,#491,#492));
#131=EDGE_LOOP('',(#493,#494,#495,#496));
#132=EDGE_LOOP('',(#497,#498,#499,#500));
#133=EDGE_LOOP('',(#501,#502,#503,#504));
#134=EDGE_LOOP('',(#505,#506,#507,#508));
#135=EDGE_LOOP('',(#509,#510,#511,#512));
#136=EDGE_LOOP('',(#513,#514,#515,#516));
#137=EDGE_LOOP('',(#517,#518,#519,#520,#521));
#138=EDGE_LOOP('',(#522,#523,#524,#525,#526));
#139=EDGE_LOOP('',(#527,#528,#529,#530,#531,#532,#533,#534));
#140=EDGE_LOOP('',(#535));
#141=EDGE_LOOP('',(#536));
#142=EDGE_LOOP('',(#537));
#143=EDGE_LOOP('',(#538));
#144=LINE('',#880,#177);
#145=LINE('',#949,#178);
#146=LINE('',#955,#179);
#147=LINE('',#961,#180);
#148=LINE('',#966,#181);
#149=LINE('',#970,#182);
#150=LINE('',#976,#183);
#151=LINE('',#980,#184);
#152=LINE('',#984,#185);
#153=LINE('',#987,#186);
#154=LINE('',#993,#187);
#155=LINE('',#997,#188);
#156=LINE('',#1000,#189);
#157=LINE('',#1006,#190);
#158=LINE('',#1014,#191);
#159=LINE('',#1015,#192);
#160=LINE('',#1018,#193);
#161=LINE('',#1019,#194);
#162=LINE('',#1023,#195);
#163=LINE('',#1026,#196);
#164=LINE('',#1027,#197);
#165=LINE('',#1031,#198);
#166=LINE('',#1034,#199);
#167=LINE('',#1035,#200);
#168=LINE('',#1039,#201);
#169=LINE('',#1041,#202);
#170=LINE('',#1044,#203);
#171=LINE('',#1051,#204);
#172=LINE('',#1205,#205);
#173=LINE('',#1242,#206);
#174=LINE('',#1279,#207);
#175=LINE('',#1315,#208);
#176=LINE('',#1380,#209);
#177=VECTOR('',#690,1.7);
#178=VECTOR('',#707,1.7);
#179=VECTOR('',#714,1.7);
#180=VECTOR('',#721,1.7);
#181=VECTOR('',#728,2.35);
#182=VECTOR('',#733,2.35);
#183=VECTOR('',#738,10.);
#184=VECTOR('',#741,10.);
#185=VECTOR('',#744,10.);
#186=VECTOR('',#747,10.);
#187=VECTOR('',#754,2.35);
#188=VECTOR('',#759,1.7);
#189=VECTOR('',#762,3.);
#190=VECTOR('',#769,3.);
#191=VECTOR('',#778,10.);
#192=VECTOR('',#779,10.);
#193=VECTOR('',#782,10.);
#194=VECTOR('',#783,10.);
#195=VECTOR('',#788,10.);
#196=VECTOR('',#791,10.);
#197=VECTOR('',#792,10.);
#198=VECTOR('',#797,10.);
#199=VECTOR('',#800,10.);
#200=VECTOR('',#801,10.);
#201=VECTOR('',#806,10.);
#202=VECTOR('',#809,10.);
#203=VECTOR('',#812,3.00000000000001);
#204=VECTOR('',#821,2.35);
#205=VECTOR('',#838,10.);
#206=VECTOR('',#847,10.);
#207=VECTOR('',#856,10.);
#208=VECTOR('',#865,10.);
#209=VECTOR('',#872,3.00000000000001);
#210=CIRCLE('',#607,1.7);
#211=CIRCLE('',#608,1.7);
#212=CIRCLE('',#610,0.500000000000007);
#213=CIRCLE('',#615,1.7);
#214=CIRCLE('',#616,1.7);
#215=CIRCLE('',#618,1.7);
#216=CIRCLE('',#619,1.7);
#217=CIRCLE('',#621,1.7);
#218=CIRCLE('',#622,1.7);
#219=CIRCLE('',#624,3.);
#220=CIRCLE('',#626,3.);
#221=CIRCLE('',#628,5.);
#222=CIRCLE('',#629,5.);
#223=CIRCLE('',#630,5.);
#224=CIRCLE('',#631,5.);
#225=CIRCLE('',#632,1.7);
#226=CIRCLE('',#634,3.00000000000001);
#227=CIRCLE('',#636,1.7);
#228=CIRCLE('',#659,3.00000000000001);
#229=CIRCLE('',#660,0.499999999999989);
#230=CIRCLE('',#662,0.5);
#231=CIRCLE('',#664,0.499999999999998);
#232=CIRCLE('',#665,0.5);
#233=CIRCLE('',#668,0.5);
#234=CIRCLE('',#670,0.500000000000007);
#235=CIRCLE('',#672,0.500000000000007);
#236=CIRCLE('',#674,0.500000000000007);
#237=CIRCLE('',#676,0.500000000000007);
#238=CIRCLE('',#678,0.5);
#239=CIRCLE('',#680,0.5);
#240=VERTEX_POINT('',#877);
#241=VERTEX_POINT('',#879);
#242=VERTEX_POINT('',#938);
#243=VERTEX_POINT('',#939);
#244=VERTEX_POINT('',#942);
#245=VERTEX_POINT('',#946);
#246=VERTEX_POINT('',#948);
#247=VERTEX_POINT('',#952);
#248=VERTEX_POINT('',#954);
#249=VERTEX_POINT('',#958);
#250=VERTEX_POINT('',#960);
#251=VERTEX_POINT('',#964);
#252=VERTEX_POINT('',#968);
#253=VERTEX_POINT('',#972);
#254=VERTEX_POINT('',#973);
#255=VERTEX_POINT('',#975);
#256=VERTEX_POINT('',#977);
#257=VERTEX_POINT('',#979);
#258=VERTEX_POINT('',#981);
#259=VERTEX_POINT('',#983);
#260=VERTEX_POINT('',#985);
#261=VERTEX_POINT('',#988);
#262=VERTEX_POINT('',#991);
#263=VERTEX_POINT('',#995);
#264=VERTEX_POINT('',#999);
#265=VERTEX_POINT('',#1001);
#266=VERTEX_POINT('',#1005);
#267=VERTEX_POINT('',#1007);
#268=VERTEX_POINT('',#1011);
#269=VERTEX_POINT('',#1012);
#270=VERTEX_POINT('',#1017);
#271=VERTEX_POINT('',#1021);
#272=VERTEX_POINT('',#1025);
#273=VERTEX_POINT('',#1029);
#274=VERTEX_POINT('',#1033);
#275=VERTEX_POINT('',#1037);
#276=VERTEX_POINT('',#1043);
#277=VERTEX_POINT('',#1045);
#278=VERTEX_POINT('',#1049);
#279=VERTEX_POINT('',#1112);
#280=VERTEX_POINT('',#1165);
#281=VERTEX_POINT('',#1198);
#282=VERTEX_POINT('',#1200);
#283=VERTEX_POINT('',#1204);
#284=VERTEX_POINT('',#1237);
#285=VERTEX_POINT('',#1241);
#286=VERTEX_POINT('',#1274);
#287=VERTEX_POINT('',#1278);
#288=VERTEX_POINT('',#1311);
#289=VERTEX_POINT('',#1376);
#290=EDGE_CURVE('',#240,#240,#210,.T.);
#291=EDGE_CURVE('',#240,#241,#144,.T.);
#292=EDGE_CURVE('',#241,#241,#211,.T.);
#293=EDGE_CURVE('',#242,#243,#212,.T.);
#294=EDGE_CURVE('',#243,#243,#28,.T.);
#295=EDGE_CURVE('',#242,#244,#29,.T.);
#296=EDGE_CURVE('',#244,#242,#30,.T.);
#297=EDGE_CURVE('',#245,#245,#213,.T.);
#298=EDGE_CURVE('',#245,#246,#145,.T.);
#299=EDGE_CURVE('',#246,#246,#214,.T.);
#300=EDGE_CURVE('',#247,#247,#215,.T.);
#301=EDGE_CURVE('',#247,#248,#146,.T.);
#302=EDGE_CURVE('',#248,#248,#216,.T.);
#303=EDGE_CURVE('',#249,#249,#217,.T.);
#304=EDGE_CURVE('',#249,#250,#147,.T.);
#305=EDGE_CURVE('',#250,#250,#218,.T.);
#306=EDGE_CURVE('',#251,#251,#219,.T.);
#307=EDGE_CURVE('',#251,#245,#148,.T.);
#308=EDGE_CURVE('',#252,#252,#220,.T.);
#309=EDGE_CURVE('',#252,#247,#149,.T.);
#310=EDGE_CURVE('',#253,#254,#221,.T.);
#311=EDGE_CURVE('',#255,#253,#150,.T.);
#312=EDGE_CURVE('',#256,#255,#222,.T.);
#313=EDGE_CURVE('',#257,#256,#151,.T.);
#314=EDGE_CURVE('',#258,#257,#223,.T.);
#315=EDGE_CURVE('',#259,#258,#152,.T.);
#316=EDGE_CURVE('',#260,#259,#224,.T.);
#317=EDGE_CURVE('',#260,#254,#153,.T.);
#318=EDGE_CURVE('',#261,#261,#225,.T.);
#319=EDGE_CURVE('',#262,#262,#226,.T.);
#320=EDGE_CURVE('',#262,#249,#154,.T.);
#321=EDGE_CURVE('',#263,#263,#227,.T.);
#322=EDGE_CURVE('',#263,#261,#155,.T.);
#323=EDGE_CURVE('',#251,#264,#156,.T.);
#324=EDGE_CURVE('',#265,#264,#31,.T.);
#325=EDGE_CURVE('',#264,#265,#32,.T.);
#326=EDGE_CURVE('',#252,#266,#157,.T.);
#327=EDGE_CURVE('',#267,#266,#33,.T.);
#328=EDGE_CURVE('',#266,#267,#34,.T.);
#329=EDGE_CURVE('',#268,#269,#35,.T.);
#330=EDGE_CURVE('',#268,#253,#158,.T.);
#331=EDGE_CURVE('',#254,#269,#159,.T.);
#332=EDGE_CURVE('',#270,#268,#160,.T.);
#333=EDGE_CURVE('',#255,#270,#161,.T.);
#334=EDGE_CURVE('',#271,#270,#36,.T.);
#335=EDGE_CURVE('',#271,#256,#162,.T.);
#336=EDGE_CURVE('',#272,#271,#163,.T.);
#337=EDGE_CURVE('',#257,#272,#164,.T.);
#338=EDGE_CURVE('',#273,#272,#37,.T.);
#339=EDGE_CURVE('',#273,#258,#165,.T.);
#340=EDGE_CURVE('',#274,#273,#166,.T.);
#341=EDGE_CURVE('',#259,#274,#167,.T.);
#342=EDGE_CURVE('',#275,#274,#38,.T.);
#343=EDGE_CURVE('',#275,#260,#168,.T.);
#344=EDGE_CURVE('',#269,#275,#169,.T.);
#345=EDGE_CURVE('',#262,#276,#170,.T.);
#346=EDGE_CURVE('',#277,#276,#39,.T.);
#347=EDGE_CURVE('',#276,#277,#40,.T.);
#348=EDGE_CURVE('',#278,#278,#228,.T.);
#349=EDGE_CURVE('',#278,#263,#171,.T.);
#350=EDGE_CURVE('',#265,#279,#229,.T.);
#351=EDGE_CURVE('',#279,#279,#41,.T.);
#352=EDGE_CURVE('',#267,#280,#230,.T.);
#353=EDGE_CURVE('',#280,#280,#42,.T.);
#354=EDGE_CURVE('',#268,#281,#231,.T.);
#355=EDGE_CURVE('',#282,#269,#232,.T.);
#356=EDGE_CURVE('',#282,#281,#43,.T.);
#357=EDGE_CURVE('',#281,#283,#172,.T.);
#358=EDGE_CURVE('',#270,#283,#233,.T.);
#359=EDGE_CURVE('',#283,#284,#44,.T.);
#360=EDGE_CURVE('',#271,#284,#234,.T.);
#361=EDGE_CURVE('',#284,#285,#173,.T.);
#362=EDGE_CURVE('',#272,#285,#235,.T.);
#363=EDGE_CURVE('',#285,#286,#45,.T.);
#364=EDGE_CURVE('',#273,#286,#236,.T.);
#365=EDGE_CURVE('',#286,#287,#174,.T.);
#366=EDGE_CURVE('',#274,#287,#237,.T.);
#367=EDGE_CURVE('',#287,#288,#46,.T.);
#368=EDGE_CURVE('',#275,#288,#238,.T.);
#369=EDGE_CURVE('',#288,#282,#175,.T.);
#370=EDGE_CURVE('',#277,#289,#239,.T.);
#371=EDGE_CURVE('',#289,#289,#47,.T.);
#372=EDGE_CURVE('',#278,#244,#176,.T.);
#373=ORIENTED_EDGE('',*,*,#290,.F.);
#374=ORIENTED_EDGE('',*,*,#291,.T.);
#375=ORIENTED_EDGE('',*,*,#292,.T.);
#376=ORIENTED_EDGE('',*,*,#291,.F.);
#377=ORIENTED_EDGE('',*,*,#292,.F.);
#378=ORIENTED_EDGE('',*,*,#293,.T.);
#379=ORIENTED_EDGE('',*,*,#294,.T.);
#380=ORIENTED_EDGE('',*,*,#293,.F.);
#381=ORIENTED_EDGE('',*,*,#295,.T.);
#382=ORIENTED_EDGE('',*,*,#296,.T.);
#383=ORIENTED_EDGE('',*,*,#297,.F.);
#384=ORIENTED_EDGE('',*,*,#298,.T.);
#385=ORIENTED_EDGE('',*,*,#299,.T.);
#386=ORIENTED_EDGE('',*,*,#298,.F.);
#387=ORIENTED_EDGE('',*,*,#300,.F.);
#388=ORIENTED_EDGE('',*,*,#301,.T.);
#389=ORIENTED_EDGE('',*,*,#302,.T.);
#390=ORIENTED_EDGE('',*,*,#301,.F.);
#391=ORIENTED_EDGE('',*,*,#303,.F.);
#392=ORIENTED_EDGE('',*,*,#304,.T.);
#393=ORIENTED_EDGE('',*,*,#305,.T.);
#394=ORIENTED_EDGE('',*,*,#304,.F.);
#395=ORIENTED_EDGE('',*,*,#306,.F.);
#396=ORIENTED_EDGE('',*,*,#307,.T.);
#397=ORIENTED_EDGE('',*,*,#297,.T.);
#398=ORIENTED_EDGE('',*,*,#307,.F.);
#399=ORIENTED_EDGE('',*,*,#308,.F.);
#400=ORIENTED_EDGE('',*,*,#309,.T.);
#401=ORIENTED_EDGE('',*,*,#300,.T.);
#402=ORIENTED_EDGE('',*,*,#309,.F.);
#403=ORIENTED_EDGE('',*,*,#310,.F.);
#404=ORIENTED_EDGE('',*,*,#311,.F.);
#405=ORIENTED_EDGE('',*,*,#312,.F.);
#406=ORIENTED_EDGE('',*,*,#313,.F.);
#407=ORIENTED_EDGE('',*,*,#314,.F.);
#408=ORIENTED_EDGE('',*,*,#315,.F.);
#409=ORIENTED_EDGE('',*,*,#316,.F.);
#410=ORIENTED_EDGE('',*,*,#317,.T.);
#411=ORIENTED_EDGE('',*,*,#290,.T.);
#412=ORIENTED_EDGE('',*,*,#318,.F.);
#413=ORIENTED_EDGE('',*,*,#305,.F.);
#414=ORIENTED_EDGE('',*,*,#302,.F.);
#415=ORIENTED_EDGE('',*,*,#299,.F.);
#416=ORIENTED_EDGE('',*,*,#319,.F.);
#417=ORIENTED_EDGE('',*,*,#320,.T.);
#418=ORIENTED_EDGE('',*,*,#303,.T.);
#419=ORIENTED_EDGE('',*,*,#320,.F.);
#420=ORIENTED_EDGE('',*,*,#321,.F.);
#421=ORIENTED_EDGE('',*,*,#322,.T.);
#422=ORIENTED_EDGE('',*,*,#318,.T.);
#423=ORIENTED_EDGE('',*,*,#322,.F.);
#424=ORIENTED_EDGE('',*,*,#306,.T.);
#425=ORIENTED_EDGE('',*,*,#323,.T.);
#426=ORIENTED_EDGE('',*,*,#324,.F.);
#427=ORIENTED_EDGE('',*,*,#325,.F.);
#428=ORIENTED_EDGE('',*,*,#323,.F.);
#429=ORIENTED_EDGE('',*,*,#308,.T.);
#430=ORIENTED_EDGE('',*,*,#326,.T.);
#431=ORIENTED_EDGE('',*,*,#327,.F.);
#432=ORIENTED_EDGE('',*,*,#328,.F.);
#433=ORIENTED_EDGE('',*,*,#326,.F.);
#434=ORIENTED_EDGE('',*,*,#329,.F.);
#435=ORIENTED_EDGE('',*,*,#330,.T.);
#436=ORIENTED_EDGE('',*,*,#310,.T.);
#437=ORIENTED_EDGE('',*,*,#331,.T.);
#438=ORIENTED_EDGE('',*,*,#332,.F.);
#439=ORIENTED_EDGE('',*,*,#333,.F.);
#440=ORIENTED_EDGE('',*,*,#311,.T.);
#441=ORIENTED_EDGE('',*,*,#330,.F.);
#442=ORIENTED_EDGE('',*,*,#334,.F.);
#443=ORIENTED_EDGE('',*,*,#335,.T.);
#444=ORIENTED_EDGE('',*,*,#312,.T.);
#445=ORIENTED_EDGE('',*,*,#333,.T.);
#446=ORIENTED_EDGE('',*,*,#336,.F.);
#447=ORIENTED_EDGE('',*,*,#337,.F.);
#448=ORIENTED_EDGE('',*,*,#313,.T.);
#449=ORIENTED_EDGE('',*,*,#335,.F.);
#450=ORIENTED_EDGE('',*,*,#338,.F.);
#451=ORIENTED_EDGE('',*,*,#339,.T.);
#452=ORIENTED_EDGE('',*,*,#314,.T.);
#453=ORIENTED_EDGE('',*,*,#337,.T.);
#454=ORIENTED_EDGE('',*,*,#340,.F.);
#455=ORIENTED_EDGE('',*,*,#341,.F.);
#456=ORIENTED_EDGE('',*,*,#315,.T.);
#457=ORIENTED_EDGE('',*,*,#339,.F.);
#458=ORIENTED_EDGE('',*,*,#342,.F.);
#459=ORIENTED_EDGE('',*,*,#343,.T.);
#460=ORIENTED_EDGE('',*,*,#316,.T.);
#461=ORIENTED_EDGE('',*,*,#341,.T.);
#462=ORIENTED_EDGE('',*,*,#344,.F.);
#463=ORIENTED_EDGE('',*,*,#331,.F.);
#464=ORIENTED_EDGE('',*,*,#317,.F.);
#465=ORIENTED_EDGE('',*,*,#343,.F.);
#466=ORIENTED_EDGE('',*,*,#319,.T.);
#467=ORIENTED_EDGE('',*,*,#345,.T.);
#468=ORIENTED_EDGE('',*,*,#346,.F.);
#469=ORIENTED_EDGE('',*,*,#347,.F.);
#470=ORIENTED_EDGE('',*,*,#345,.F.);
#471=ORIENTED_EDGE('',*,*,#348,.F.);
#472=ORIENTED_EDGE('',*,*,#349,.T.);
#473=ORIENTED_EDGE('',*,*,#321,.T.);
#474=ORIENTED_EDGE('',*,*,#349,.F.);
#475=ORIENTED_EDGE('',*,*,#350,.T.);
#476=ORIENTED_EDGE('',*,*,#351,.T.);
#477=ORIENTED_EDGE('',*,*,#350,.F.);
#478=ORIENTED_EDGE('',*,*,#324,.T.);
#479=ORIENTED_EDGE('',*,*,#325,.T.);
#480=ORIENTED_EDGE('',*,*,#352,.T.);
#481=ORIENTED_EDGE('',*,*,#353,.T.);
#482=ORIENTED_EDGE('',*,*,#352,.F.);
#483=ORIENTED_EDGE('',*,*,#327,.T.);
#484=ORIENTED_EDGE('',*,*,#328,.T.);
#485=ORIENTED_EDGE('',*,*,#354,.F.);
#486=ORIENTED_EDGE('',*,*,#329,.T.);
#487=ORIENTED_EDGE('',*,*,#355,.F.);
#488=ORIENTED_EDGE('',*,*,#356,.T.);
#489=ORIENTED_EDGE('',*,*,#354,.T.);
#490=ORIENTED_EDGE('',*,*,#357,.T.);
#491=ORIENTED_EDGE('',*,*,#358,.F.);
#492=ORIENTED_EDGE('',*,*,#332,.T.);
#493=ORIENTED_EDGE('',*,*,#358,.T.);
#494=ORIENTED_EDGE('',*,*,#359,.T.);
#495=ORIENTED_EDGE('',*,*,#360,.F.);
#496=ORIENTED_EDGE('',*,*,#334,.T.);
#497=ORIENTED_EDGE('',*,*,#360,.T.);
#498=ORIENTED_EDGE('',*,*,#361,.T.);
#499=ORIENTED_EDGE('',*,*,#362,.F.);
#500=ORIENTED_EDGE('',*,*,#336,.T.);
#501=ORIENTED_EDGE('',*,*,#362,.T.);
#502=ORIENTED_EDGE('',*,*,#363,.T.);
#503=ORIENTED_EDGE('',*,*,#364,.F.);
#504=ORIENTED_EDGE('',*,*,#338,.T.);
#505=ORIENTED_EDGE('',*,*,#364,.T.);
#506=ORIENTED_EDGE('',*,*,#365,.T.);
#507=ORIENTED_EDGE('',*,*,#366,.F.);
#508=ORIENTED_EDGE('',*,*,#340,.T.);
#509=ORIENTED_EDGE('',*,*,#366,.T.);
#510=ORIENTED_EDGE('',*,*,#367,.T.);
#511=ORIENTED_EDGE('',*,*,#368,.F.);
#512=ORIENTED_EDGE('',*,*,#342,.T.);
#513=ORIENTED_EDGE('',*,*,#355,.T.);
#514=ORIENTED_EDGE('',*,*,#344,.T.);
#515=ORIENTED_EDGE('',*,*,#368,.T.);
#516=ORIENTED_EDGE('',*,*,#369,.T.);
#517=ORIENTED_EDGE('',*,*,#370,.T.);
#518=ORIENTED_EDGE('',*,*,#371,.T.);
#519=ORIENTED_EDGE('',*,*,#370,.F.);
#520=ORIENTED_EDGE('',*,*,#346,.T.);
#521=ORIENTED_EDGE('',*,*,#347,.T.);
#522=ORIENTED_EDGE('',*,*,#348,.T.);
#523=ORIENTED_EDGE('',*,*,#372,.T.);
#524=ORIENTED_EDGE('',*,*,#295,.F.);
#525=ORIENTED_EDGE('',*,*,#296,.F.);
#526=ORIENTED_EDGE('',*,*,#372,.F.);
#527=ORIENTED_EDGE('',*,*,#369,.F.);
#528=ORIENTED_EDGE('',*,*,#367,.F.);
#529=ORIENTED_EDGE('',*,*,#365,.F.);
#530=ORIENTED_EDGE('',*,*,#363,.F.);
#531=ORIENTED_EDGE('',*,*,#361,.F.);
#532=ORIENTED_EDGE('',*,*,#359,.F.);
#533=ORIENTED_EDGE('',*,*,#357,.F.);
#534=ORIENTED_EDGE('',*,*,#356,.F.);
#535=ORIENTED_EDGE('',*,*,#371,.F.);
#536=ORIENTED_EDGE('',*,*,#353,.F.);
#537=ORIENTED_EDGE('',*,*,#351,.F.);
#538=ORIENTED_EDGE('',*,*,#294,.F.);
#539=CYLINDRICAL_SURFACE('',#606,1.7);
#540=CYLINDRICAL_SURFACE('',#614,1.7);
#541=CYLINDRICAL_SURFACE('',#617,1.7);
#542=CYLINDRICAL_SURFACE('',#620,1.7);
#543=CYLINDRICAL_SURFACE('',#635,1.7);
#544=CYLINDRICAL_SURFACE('',#637,3.);
#545=CYLINDRICAL_SURFACE('',#640,3.);
#546=CYLINDRICAL_SURFACE('',#643,5.);
#547=CYLINDRICAL_SURFACE('',#646,5.);
#548=CYLINDRICAL_SURFACE('',#649,5.);
#549=CYLINDRICAL_SURFACE('',#652,5.);
#550=CYLINDRICAL_SURFACE('',#655,3.00000000000001);
#551=CYLINDRICAL_SURFACE('',#667,0.5);
#552=CYLINDRICAL_SURFACE('',#671,0.5);
#553=CYLINDRICAL_SURFACE('',#675,0.5);
#554=CYLINDRICAL_SURFACE('',#679,0.5);
#555=CYLINDRICAL_SURFACE('',#682,3.00000000000001);
#556=ADVANCED_FACE('',(#63),#539,.F.);
#557=ADVANCED_FACE('',(#64),#56,.T.);
#558=ADVANCED_FACE('',(#65),#48,.F.);
#559=ADVANCED_FACE('',(#66),#540,.F.);
#560=ADVANCED_FACE('',(#67),#541,.F.);
#561=ADVANCED_FACE('',(#68),#542,.F.);
#562=ADVANCED_FACE('',(#69),#24,.F.);
#563=ADVANCED_FACE('',(#70),#25,.F.);
#564=ADVANCED_FACE('',(#71,#15,#16,#17,#18,#19),#57,.T.);
#565=ADVANCED_FACE('',(#72),#26,.F.);
#566=ADVANCED_FACE('',(#73),#543,.F.);
#567=ADVANCED_FACE('',(#74),#544,.F.);
#568=ADVANCED_FACE('',(#75),#545,.F.);
#569=ADVANCED_FACE('',(#76),#546,.T.);
#570=ADVANCED_FACE('',(#77),#58,.T.);
#571=ADVANCED_FACE('',(#78),#547,.T.);
#572=ADVANCED_FACE('',(#79),#59,.T.);
#573=ADVANCED_FACE('',(#80),#548,.T.);
#574=ADVANCED_FACE('',(#81),#60,.T.);
#575=ADVANCED_FACE('',(#82),#549,.T.);
#576=ADVANCED_FACE('',(#83),#61,.T.);
#577=ADVANCED_FACE('',(#84),#550,.F.);
#578=ADVANCED_FACE('',(#85),#27,.F.);
#579=ADVANCED_FACE('',(#86),#49,.F.);
#580=ADVANCED_FACE('',(#87),#50,.F.);
#581=ADVANCED_FACE('',(#88),#51,.F.);
#582=ADVANCED_FACE('',(#89),#551,.T.);
#583=ADVANCED_FACE('',(#90),#52,.F.);
#584=ADVANCED_FACE('',(#91),#552,.T.);
#585=ADVANCED_FACE('',(#92),#53,.F.);
#586=ADVANCED_FACE('',(#93),#553,.T.);
#587=ADVANCED_FACE('',(#94),#54,.F.);
#588=ADVANCED_FACE('',(#95),#554,.T.);
#589=ADVANCED_FACE('',(#96),#55,.F.);
#590=ADVANCED_FACE('',(#97),#555,.F.);
#591=ADVANCED_FACE('',(#98,#20,#21,#22,#23),#62,.F.);
#592=CLOSED_SHELL('',(#556,#557,#558,#559,#560,#561,#562,#563,#564,#565,
#566,#567,#568,#569,#570,#571,#572,#573,#574,#575,#576,#577,#578,#579,#580,
#581,#582,#583,#584,#585,#586,#587,#588,#589,#590,#591));
#593=DERIVED_UNIT_ELEMENT(#595,1.);
#594=DERIVED_UNIT_ELEMENT(#1387,-3.);
#595=(
MASS_UNIT()
NAMED_UNIT(*)
SI_UNIT(.KILO.,.GRAM.)
);
#596=DERIVED_UNIT((#593,#594));
#597=MEASURE_REPRESENTATION_ITEM('density measure',
POSITIVE_RATIO_MEASURE(1060.),#596);
#598=PROPERTY_DEFINITION_REPRESENTATION(#603,#600);
#599=PROPERTY_DEFINITION_REPRESENTATION(#604,#601);
#600=REPRESENTATION('material name',(#602),#1384);
#601=REPRESENTATION('density',(#597),#1384);
#602=DESCRIPTIVE_REPRESENTATION_ITEM('ABS Plastic','ABS Plastic');
#603=PROPERTY_DEFINITION('material property','material name',#1394);
#604=PROPERTY_DEFINITION('material property','density of part',#1394);
#605=AXIS2_PLACEMENT_3D('',#875,#684,#685);
#606=AXIS2_PLACEMENT_3D('',#876,#686,#687);
#607=AXIS2_PLACEMENT_3D('',#878,#688,#689);
#608=AXIS2_PLACEMENT_3D('',#881,#691,#692);
#609=AXIS2_PLACEMENT_3D('',#882,#693,#694);
#610=AXIS2_PLACEMENT_3D('',#940,#695,#696);
#611=AXIS2_PLACEMENT_3D('',#941,#697,#698);
#612=AXIS2_PLACEMENT_3D('',#943,#699,#700);
#613=AXIS2_PLACEMENT_3D('',#944,#701,#702);
#614=AXIS2_PLACEMENT_3D('',#945,#703,#704);
#615=AXIS2_PLACEMENT_3D('',#947,#705,#706);
#616=AXIS2_PLACEMENT_3D('',#950,#708,#709);
#617=AXIS2_PLACEMENT_3D('',#951,#710,#711);
#618=AXIS2_PLACEMENT_3D('',#953,#712,#713);
#619=AXIS2_PLACEMENT_3D('',#956,#715,#716);
#620=AXIS2_PLACEMENT_3D('',#957,#717,#718);
#621=AXIS2_PLACEMENT_3D('',#959,#719,#720);
#622=AXIS2_PLACEMENT_3D('',#962,#722,#723);
#623=AXIS2_PLACEMENT_3D('',#963,#724,#725);
#624=AXIS2_PLACEMENT_3D('',#965,#726,#727);
#625=AXIS2_PLACEMENT_3D('',#967,#729,#730);
#626=AXIS2_PLACEMENT_3D('',#969,#731,#732);
#627=AXIS2_PLACEMENT_3D('',#971,#734,#735);
#628=AXIS2_PLACEMENT_3D('',#974,#736,#737);
#629=AXIS2_PLACEMENT_3D('',#978,#739,#740);
#630=AXIS2_PLACEMENT_3D('',#982,#742,#743);
#631=AXIS2_PLACEMENT_3D('',#986,#745,#746);
#632=AXIS2_PLACEMENT_3D('',#989,#748,#749);
#633=AXIS2_PLACEMENT_3D('',#990,#750,#751);
#634=AXIS2_PLACEMENT_3D('',#992,#752,#753);
#635=AXIS2_PLACEMENT_3D('',#994,#755,#756);
#636=AXIS2_PLACEMENT_3D('',#996,#757,#758);
#637=AXIS2_PLACEMENT_3D('',#998,#760,#761);
#638=AXIS2_PLACEMENT_3D('',#1002,#763,#764);
#639=AXIS2_PLACEMENT_3D('',#1003,#765,#766);
#640=AXIS2_PLACEMENT_3D('',#1004,#767,#768);
#641=AXIS2_PLACEMENT_3D('',#1008,#770,#771);
#642=AXIS2_PLACEMENT_3D('',#1009,#772,#773);
#643=AXIS2_PLACEMENT_3D('',#1010,#774,#775);
#644=AXIS2_PLACEMENT_3D('',#1013,#776,#777);
#645=AXIS2_PLACEMENT_3D('',#1016,#780,#781);
#646=AXIS2_PLACEMENT_3D('',#1020,#784,#785);
#647=AXIS2_PLACEMENT_3D('',#1022,#786,#787);
#648=AXIS2_PLACEMENT_3D('',#1024,#789,#790);
#649=AXIS2_PLACEMENT_3D('',#1028,#793,#794);
#650=AXIS2_PLACEMENT_3D('',#1030,#795,#796);
#651=AXIS2_PLACEMENT_3D('',#1032,#798,#799);
#652=AXIS2_PLACEMENT_3D('',#1036,#802,#803);
#653=AXIS2_PLACEMENT_3D('',#1038,#804,#805);
#654=AXIS2_PLACEMENT_3D('',#1040,#807,#808);
#655=AXIS2_PLACEMENT_3D('',#1042,#810,#811);
#656=AXIS2_PLACEMENT_3D('',#1046,#813,#814);
#657=AXIS2_PLACEMENT_3D('',#1047,#815,#816);
#658=AXIS2_PLACEMENT_3D('',#1048,#817,#818);
#659=AXIS2_PLACEMENT_3D('',#1050,#819,#820);
#660=AXIS2_PLACEMENT_3D('',#1113,#822,#823);
#661=AXIS2_PLACEMENT_3D('',#1114,#824,#825);
#662=AXIS2_PLACEMENT_3D('',#1166,#826,#827);
#663=AXIS2_PLACEMENT_3D('',#1167,#828,#829);
#664=AXIS2_PLACEMENT_3D('',#1199,#830,#831);
#665=AXIS2_PLACEMENT_3D('',#1201,#832,#833);
#666=AXIS2_PLACEMENT_3D('',#1202,#834,#835);
#667=AXIS2_PLACEMENT_3D('',#1203,#836,#837);
#668=AXIS2_PLACEMENT_3D('',#1206,#839,#840);
#669=AXIS2_PLACEMENT_3D('',#1238,#841,#842);
#670=AXIS2_PLACEMENT_3D('',#1239,#843,#844);
#671=AXIS2_PLACEMENT_3D('',#1240,#845,#846);
#672=AXIS2_PLACEMENT_3D('',#1243,#848,#849);
#673=AXIS2_PLACEMENT_3D('',#1275,#850,#851);
#674=AXIS2_PLACEMENT_3D('',#1276,#852,#853);
#675=AXIS2_PLACEMENT_3D('',#1277,#854,#855);
#676=AXIS2_PLACEMENT_3D('',#1280,#857,#858);
#677=AXIS2_PLACEMENT_3D('',#1312,#859,#860);
#678=AXIS2_PLACEMENT_3D('',#1313,#861,#862);
#679=AXIS2_PLACEMENT_3D('',#1314,#863,#864);
#680=AXIS2_PLACEMENT_3D('',#1377,#866,#867);
#681=AXIS2_PLACEMENT_3D('',#1378,#868,#869);
#682=AXIS2_PLACEMENT_3D('',#1379,#870,#871);
#683=AXIS2_PLACEMENT_3D('',#1381,#873,#874);
#684=DIRECTION('axis',(0.,0.,1.));
#685=DIRECTION('refdir',(1.,0.,0.));
#686=DIRECTION('center_axis',(0.,0.,-1.));
#687=DIRECTION('ref_axis',(1.,0.,0.));
#688=DIRECTION('center_axis',(0.,0.,-1.));
#689=DIRECTION('ref_axis',(1.,0.,0.));
#690=DIRECTION('',(0.,0.,-1.));
#691=DIRECTION('center_axis',(0.,0.,-1.));
#692=DIRECTION('ref_axis',(1.,0.,0.));
#693=DIRECTION('center_axis',(0.,0.,1.));
#694=DIRECTION('ref_axis',(1.,0.,0.));
#695=DIRECTION('center_axis',(1.,0.,0.));
#696=DIRECTION('ref_axis',(0.,-1.,0.));
#697=DIRECTION('center_axis',(0.,-0.0511624152681972,-0.998690346035209));
#698=DIRECTION('ref_axis',(0.,-0.998690346035209,0.0511624152681972));
#699=DIRECTION('center_axis',(0.,0.0596612939646174,0.998218678447998));
#700=DIRECTION('ref_axis',(0.,-0.998218678447998,0.0596612939646174));
#701=DIRECTION('center_axis',(0.,0.0596612939646174,0.998218678447998));
#702=DIRECTION('ref_axis',(0.,-0.998218678447998,0.0596612939646174));
#703=DIRECTION('center_axis',(0.,0.,-1.));
#704=DIRECTION('ref_axis',(1.,0.,0.));
#705=DIRECTION('center_axis',(0.,0.,1.));
#706=DIRECTION('ref_axis',(1.,0.,0.));
#707=DIRECTION('',(0.,0.,1.));
#708=DIRECTION('center_axis',(0.,0.,1.));
#709=DIRECTION('ref_axis',(1.,0.,0.));
#710=DIRECTION('center_axis',(0.,0.,-1.));
#711=DIRECTION('ref_axis',(1.,0.,0.));
#712=DIRECTION('center_axis',(0.,0.,1.));
#713=DIRECTION('ref_axis',(1.,0.,0.));
#714=DIRECTION('',(0.,0.,1.));
#715=DIRECTION('center_axis',(0.,0.,1.));
#716=DIRECTION('ref_axis',(1.,0.,0.));
#717=DIRECTION('center_axis',(0.,0.,-1.));
#718=DIRECTION('ref_axis',(1.,0.,0.));
#719=DIRECTION('center_axis',(0.,0.,1.));
#720=DIRECTION('ref_axis',(1.,0.,0.));
#721=DIRECTION('',(0.,0.,1.));
#722=DIRECTION('center_axis',(0.,0.,1.));
#723=DIRECTION('ref_axis',(1.,0.,0.));
#724=DIRECTION('center_axis',(0.,0.,-1.));
#725=DIRECTION('ref_axis',(1.,0.,0.));
#726=DIRECTION('center_axis',(0.,0.,1.));
#727=DIRECTION('ref_axis',(1.,0.,0.));
#728=DIRECTION('',(0.7926239891046,-9.70684431184355E-17,0.609710760849693));
#729=DIRECTION('center_axis',(0.,0.,-1.));
#730=DIRECTION('ref_axis',(1.,0.,0.));
#731=DIRECTION('center_axis',(0.,0.,1.));
#732=DIRECTION('ref_axis',(1.,0.,0.));
#733=DIRECTION('',(0.7926239891046,-9.70684431184355E-17,0.609710760849693));
#734=DIRECTION('center_axis',(0.,0.,1.));
#735=DIRECTION('ref_axis',(1.,0.,0.));
#736=DIRECTION('center_axis',(0.,0.,-1.));
#737=DIRECTION('ref_axis',(-0.707106781186548,0.707106781186547,0.));
#738=DIRECTION('',(0.,1.,0.));
#739=DIRECTION('center_axis',(0.,0.,-1.));
#740=DIRECTION('ref_axis',(-0.707106781186547,-0.707106781186547,0.));
#741=DIRECTION('',(-1.,0.,0.));
#742=DIRECTION('center_axis',(0.,0.,-1.));
#743=DIRECTION('ref_axis',(0.707106781186547,-0.707106781186547,0.));
#744=DIRECTION('',(0.,-1.,0.));
#745=DIRECTION('center_axis',(0.,0.,-1.));
#746=DIRECTION('ref_axis',(0.707106781186547,0.707106781186547,0.));
#747=DIRECTION('',(-1.,0.,5.74648667801474E-18));
#748=DIRECTION('center_axis',(0.,0.,1.));
#749=DIRECTION('ref_axis',(1.,0.,0.));
#750=DIRECTION('center_axis',(0.,0.,-1.));
#751=DIRECTION('ref_axis',(1.,0.,0.));
#752=DIRECTION('center_axis',(0.,0.,1.));
#753=DIRECTION('ref_axis',(1.,0.,0.));
#754=DIRECTION('',(0.792623989104602,-9.70684431184357E-17,0.60971076084969));
#755=DIRECTION('center_axis',(0.,0.,-1.));
#756=DIRECTION('ref_axis',(1.,0.,0.));
#757=DIRECTION('center_axis',(0.,0.,1.));
#758=DIRECTION('ref_axis',(1.,0.,0.));
#759=DIRECTION('',(0.,0.,1.));
#760=DIRECTION('center_axis',(0.,0.,-1.));
#761=DIRECTION('ref_axis',(1.,0.,0.));
#762=DIRECTION('',(0.,0.,-1.));
#763=DIRECTION('center_axis',(0.,0.0596612939646174,0.998218678447998));
#764=DIRECTION('ref_axis',(0.,-0.998218678447998,0.0596612939646174));
#765=DIRECTION('center_axis',(0.,0.0596612939646174,0.998218678447998));
#766=DIRECTION('ref_axis',(0.,-0.998218678447998,0.0596612939646174));
#767=DIRECTION('center_axis',(0.,0.,-1.));
#768=DIRECTION('ref_axis',(1.,0.,0.));
#769=DIRECTION('',(0.,0.,-1.));
#770=DIRECTION('center_axis',(0.,0.0596612939646175,0.998218678447998));
#771=DIRECTION('ref_axis',(0.,-0.998218678447998,0.0596612939646175));
#772=DIRECTION('center_axis',(0.,0.0596612939646175,0.998218678447998));
#773=DIRECTION('ref_axis',(0.,-0.998218678447998,0.0596612939646175));
#774=DIRECTION('center_axis',(0.,0.,-1.));
#775=DIRECTION('ref_axis',(-0.707106781186548,0.707106781186547,0.));
#776=DIRECTION('center_axis',(1.0226847896656E-17,-0.0460576283765549,-0.99893878434483));
#777=DIRECTION('ref_axis',(-4.43617935428278E-16,0.99893878434483,-0.0460576283765549));
#778=DIRECTION('',(0.,0.,1.));
#779=DIRECTION('',(0.,0.,-1.));
#780=DIRECTION('center_axis',(-1.,0.,0.));
#781=DIRECTION('ref_axis',(0.,1.,0.));
#782=DIRECTION('',(0.,0.998690346035209,-0.0511624152681972));
#783=DIRECTION('',(0.,0.,-1.));
#784=DIRECTION('center_axis',(0.,0.,-1.));
#785=DIRECTION('ref_axis',(-0.707106781186547,-0.707106781186547,0.));
#786=DIRECTION('center_axis',(0.,-0.0460576283765549,-0.99893878434483));
#787=DIRECTION('ref_axis',(0.,-0.99893878434483,0.0460576283765549));
#788=DIRECTION('',(0.,0.,1.));
#789=DIRECTION('center_axis',(0.,-1.,0.));
#790=DIRECTION('ref_axis',(-1.,0.,0.));
#791=DIRECTION('',(-1.,0.,0.));
#792=DIRECTION('',(0.,0.,-1.));
#793=DIRECTION('center_axis',(0.,0.,-1.));
#794=DIRECTION('ref_axis',(0.707106781186547,-0.707106781186547,0.));
#795=DIRECTION('center_axis',(0.,-0.0460576283765549,-0.99893878434483));
#796=DIRECTION('ref_axis',(0.,-0.99893878434483,0.0460576283765549));
#797=DIRECTION('',(0.,0.,1.));
#798=DIRECTION('center_axis',(1.,0.,0.));
#799=DIRECTION('ref_axis',(0.,-1.,0.));
#800=DIRECTION('',(0.,-0.998690346035209,0.0511624152681972));
#801=DIRECTION('',(0.,0.,-1.));
#802=DIRECTION('center_axis',(0.,0.,-1.));
#803=DIRECTION('ref_axis',(0.707106781186547,0.707106781186547,0.));
#804=DIRECTION('center_axis',(0.,-0.0460576283765549,-0.99893878434483));
#805=DIRECTION('ref_axis',(0.,0.99893878434483,-0.0460576283765549));
#806=DIRECTION('',(0.,0.,1.));
#807=DIRECTION('center_axis',(0.,1.,0.));
#808=DIRECTION('ref_axis',(1.,0.,-5.74648667801474E-18));
#809=DIRECTION('',(1.,0.,0.));
#810=DIRECTION('center_axis',(0.,0.,-1.));
#811=DIRECTION('ref_axis',(1.,0.,0.));
#812=DIRECTION('',(0.,0.,-1.));
#813=DIRECTION('center_axis',(0.,0.0596612939646174,0.998218678447998));
#814=DIRECTION('ref_axis',(0.,-0.998218678447998,0.0596612939646174));
#815=DIRECTION('center_axis',(0.,0.0596612939646174,0.998218678447998));
#816=DIRECTION('ref_axis',(0.,-0.998218678447998,0.0596612939646174));
#817=DIRECTION('center_axis',(0.,0.,-1.));
#818=DIRECTION('ref_axis',(1.,0.,0.));
#819=DIRECTION('center_axis',(0.,0.,1.));
#820=DIRECTION('ref_axis',(1.,0.,0.));
#821=DIRECTION('',(0.792623989104602,-9.70684431184357E-17,0.60971076084969));
#822=DIRECTION('center_axis',(1.,0.,0.));
#823=DIRECTION('ref_axis',(0.,-1.,0.));
#824=DIRECTION('center_axis',(0.,-0.0511624152681972,-0.998690346035209));
#825=DIRECTION('ref_axis',(0.,-0.998690346035209,0.0511624152681972));
#826=DIRECTION('center_axis',(1.,0.,0.));
#827=DIRECTION('ref_axis',(0.,-1.,0.));
#828=DIRECTION('center_axis',(0.,-0.0511624152681972,-0.998690346035209));
#829=DIRECTION('ref_axis',(0.,-0.998690346035209,0.0511624152681972));
#830=DIRECTION('center_axis',(0.,-0.998690346035209,0.0511624152681911));
#831=DIRECTION('ref_axis',(-1.,0.,0.));
#832=DIRECTION('center_axis',(1.,0.,0.));
#833=DIRECTION('ref_axis',(0.,-0.0511624152681977,-0.998690346035209));
#834=DIRECTION('center_axis',(0.,0.0511624152681972,0.998690346035209));
#835=DIRECTION('ref_axis',(-3.69589672213051E-16,0.998690346035208,-0.0511624152681972));
#836=DIRECTION('center_axis',(0.,-0.998690346035209,0.0511624152681972));
#837=DIRECTION('ref_axis',(-0.707106781186547,-0.0361772907780076,-0.706180715987037));
#838=DIRECTION('',(0.,-0.998690346035209,0.0511624152681972));
#839=DIRECTION('center_axis',(0.,-0.998690346035208,0.0511624152682088));
#840=DIRECTION('ref_axis',(-1.,0.,0.));
#841=DIRECTION('center_axis',(0.,0.0511624152681972,0.998690346035209));
#842=DIRECTION('ref_axis',(-6.15982787021752E-17,-0.998690346035208,0.0511624152681972));
#843=DIRECTION('center_axis',(1.,0.,0.));
#844=DIRECTION('ref_axis',(0.,-1.,0.));
#845=DIRECTION('center_axis',(-1.,0.,0.));
#846=DIRECTION('ref_axis',(0.,-0.724969797739265,-0.688780656207685));
#847=DIRECTION('',(1.,0.,0.));
#848=DIRECTION('center_axis',(1.,0.,0.));
#849=DIRECTION('ref_axis',(0.,-1.,0.));
#850=DIRECTION('center_axis',(0.,0.0511624152681972,0.998690346035209));
#851=DIRECTION('ref_axis',(6.15982787021752E-17,-0.998690346035208,0.0511624152681972));
#852=DIRECTION('center_axis',(-2.27206765704793E-16,0.998690346035208,-0.0511624152682088));
#853=DIRECTION('ref_axis',(1.,0.,-4.44089209850056E-15));
#854=DIRECTION('center_axis',(0.,0.998690346035209,-0.0511624152681972));
#855=DIRECTION('ref_axis',(0.707106781186552,-0.0361772907780324,-0.706180715987031));
#856=DIRECTION('',(0.,0.998690346035209,-0.0511624152681972));
#857=DIRECTION('center_axis',(0.,0.998690346035209,-0.0511624152681977));
#858=DIRECTION('ref_axis',(1.,0.,0.));
#859=DIRECTION('center_axis',(0.,0.0511624152681972,0.998690346035209));
#860=DIRECTION('ref_axis',(6.15982787021752E-17,0.998690346035208,-0.0511624152681972));
#861=DIRECTION('center_axis',(-1.,0.,0.));
#862=DIRECTION('ref_axis',(0.,1.,0.));
#863=DIRECTION('center_axis',(1.,0.,0.));
#864=DIRECTION('ref_axis',(0.,0.688780656207695,-0.724969797739256));
#865=DIRECTION('',(-1.,0.,0.));
#866=DIRECTION('center_axis',(1.,0.,0.));
#867=DIRECTION('ref_axis',(0.,-1.,0.));
#868=DIRECTION('center_axis',(0.,-0.0511624152681972,-0.998690346035209));
#869=DIRECTION('ref_axis',(0.,-0.998690346035209,0.0511624152681972));
#870=DIRECTION('center_axis',(0.,0.,-1.));
#871=DIRECTION('ref_axis',(1.,0.,0.));
#872=DIRECTION('',(0.,0.,-1.));
#873=DIRECTION('center_axis',(0.,0.0511624152681972,0.998690346035209));
#874=DIRECTION('ref_axis',(1.,0.,0.));
#875=CARTESIAN_POINT('',(0.,0.,0.));
#876=CARTESIAN_POINT('Origin',(54.5598237360187,-30.9998851529701,4.));
#877=CARTESIAN_POINT('',(52.8598237360187,-30.9998851529701,-9.));
#878=CARTESIAN_POINT('Origin',(54.5598237360187,-30.9998851529701,-9.));
#879=CARTESIAN_POINT('',(52.8598237360187,-30.9998851529701,-14.));
#880=CARTESIAN_POINT('',(52.8598237360187,-30.9998851529701,4.));
#881=CARTESIAN_POINT('Origin',(54.5598237360187,-30.9998851529701,-14.));
#882=CARTESIAN_POINT('Origin',(38.0999180216764,-51.1000257112109,-14.));
#883=CARTESIAN_POINT('Ctrl Pts',(81.400366610738,-93.9253702486841,-14.4341537679991));
#884=CARTESIAN_POINT('Ctrl Pts',(81.9239653863363,-93.9253702486841,-14.4341537679991));
#885=CARTESIAN_POINT('Ctrl Pts',(82.9673023794551,-94.166677819461,-14.4217916998241));
#886=CARTESIAN_POINT('Ctrl Pts',(84.6606819855151,-95.4974193094334,-14.3536184677558));
#887=CARTESIAN_POINT('Ctrl Pts',(85.3059715467958,-98.3144532184817,-14.2093032060218));
#888=CARTESIAN_POINT('Ctrl Pts',(83.1392729717483,-101.036633301544,-14.0698472591436));
#889=CARTESIAN_POINT('Ctrl Pts',(79.6619197786567,-101.033330124714,-14.0700164792681));
#890=CARTESIAN_POINT('Ctrl Pts',(77.4926936087278,-98.3187641821621,-14.2090823574726));
#891=CARTESIAN_POINT('Ctrl Pts',(78.270212676479,-94.927320497407,-14.3828243495195));
#892=CARTESIAN_POINT('Ctrl Pts',(80.3531690595414,-93.9253702486841,-14.4341537679991));
#893=CARTESIAN_POINT('Ctrl Pts',(81.400366610738,-93.9253702486841,-14.4341537679991));
#894=CARTESIAN_POINT('Ctrl Pts',(81.400366610738,-94.0518386986415,-14.4276748515054));
#895=CARTESIAN_POINT('Ctrl Pts',(81.9049657814612,-94.0518386986415,-14.4276748515054));
#896=CARTESIAN_POINT('Ctrl Pts',(82.910442815316,-94.2847160073528,-14.4157340407934));
#897=CARTESIAN_POINT('Ctrl Pts',(84.5412928458438,-95.5685396885953,-14.3499603552271));
#898=CARTESIAN_POINT('Ctrl Pts',(85.158258266457,-98.2824879574006,-14.210946130314));
#899=CARTESIAN_POINT('Ctrl Pts',(83.0711321492616,-100.897260006043,-14.0770468801218));
#900=CARTESIAN_POINT('Ctrl Pts',(79.730037745346,-100.894045186311,-14.0772042831128));
#901=CARTESIAN_POINT('Ctrl Pts',(77.6405167868819,-98.2867137346602,-14.2107289749672));
#902=CARTESIAN_POINT('Ctrl Pts',(78.3838586534166,-95.0192192273691,-14.3780876914296));
#903=CARTESIAN_POINT('Ctrl Pts',(80.3911682692916,-94.0518386986415,-14.4276748515054));
#904=CARTESIAN_POINT('Ctrl Pts',(81.400366610738,-94.0518386986415,-14.4276748515054));
#905=CARTESIAN_POINT('Ctrl Pts',(81.400366610738,-94.2985813047867,-14.3136938919464));
#906=CARTESIAN_POINT('Ctrl Pts',(81.8672568852683,-94.2985813047867,-14.3136938919464));
#907=CARTESIAN_POINT('Ctrl Pts',(82.7973598198361,-94.5145508804085,-14.3021379464005));
#908=CARTESIAN_POINT('Ctrl Pts',(84.3038680115986,-95.7046639753413,-14.2384297330488));
#909=CARTESIAN_POINT('Ctrl Pts',(84.8647315889557,-98.2131252840284,-14.1039848299399));
#910=CARTESIAN_POINT('Ctrl Pts',(82.9358162480847,-100.61454150752,-13.9749547446766));
#911=CARTESIAN_POINT('Ctrl Pts',(79.86528553534,-100.611453106209,-13.9751203794211));
#912=CARTESIAN_POINT('Ctrl Pts',(77.9341733572858,-98.2171622139039,-14.103771407759));
#913=CARTESIAN_POINT('Ctrl Pts',(78.6100577091156,-95.1967043745081,-14.2656531862425));
#914=CARTESIAN_POINT('Ctrl Pts',(80.4665860616773,-94.2985813047867,-14.3136938919464));
#915=CARTESIAN_POINT('Ctrl Pts',(81.400366610738,-94.2985813047867,-14.3136938919464));
#916=CARTESIAN_POINT('Ctrl Pts',(81.400366610738,-94.39978904105,-14.0614428920481));
#917=CARTESIAN_POINT('Ctrl Pts',(81.850000079702,-94.39978904105,-14.0614428920481));
#918=CARTESIAN_POINT('Ctrl Pts',(82.7461005021676,-94.6075968156625,-14.0493490292999));
#919=CARTESIAN_POINT('Ctrl Pts',(84.1987055339027,-95.7526803288956,-13.9826847835248));
#920=CARTESIAN_POINT('Ctrl Pts',(84.7451454179741,-98.1704839749979,-13.8417206874645));
#921=CARTESIAN_POINT('Ctrl Pts',(82.8859077855164,-100.494479470095,-13.7058258415472));
#922=CARTESIAN_POINT('Ctrl Pts',(79.9152241821161,-100.491628274865,-13.7059907607561));
#923=CARTESIAN_POINT('Ctrl Pts',(78.0539239927982,-98.1743067963878,-13.8415018877426));
#924=CARTESIAN_POINT('Ctrl Pts',(78.71210322333,-95.2632835564593,-14.0112134694595));
#925=CARTESIAN_POINT('Ctrl Pts',(80.5010996728099,-94.39978904105,-14.0614428920481));
#926=CARTESIAN_POINT('Ctrl Pts',(81.400366610738,-94.39978904105,-14.0614428920481));
#927=CARTESIAN_POINT('Ctrl Pts',(81.400366610738,-94.39978904105,-13.9348085949815));
#928=CARTESIAN_POINT('Ctrl Pts',(81.8491655612508,-94.39978904105,-13.9348085949815));
#929=CARTESIAN_POINT('Ctrl Pts',(82.7434544124955,-94.606624101716,-13.9224465268065));
#930=CARTESIAN_POINT('Ctrl Pts',(84.1949226462612,-95.7472596645494,-13.8542732947382));
#931=CARTESIAN_POINT('Ctrl Pts',(84.7480279845018,-98.1618601580193,-13.7099580330042));
#932=CARTESIAN_POINT('Ctrl Pts',(82.8908577773183,-100.495157372073,-13.570502086126));
#933=CARTESIAN_POINT('Ctrl Pts',(79.9102693260969,-100.492326077647,-13.5706713062505));
#934=CARTESIAN_POINT('Ctrl Pts',(78.050932609015,-98.1655552697454,-13.709737184455));
#935=CARTESIAN_POINT('Ctrl Pts',(78.7173775242303,-95.2586035399553,-13.8834791765019));
#936=CARTESIAN_POINT('Ctrl Pts',(80.5027687097123,-94.39978904105,-13.9348085949815));
#937=CARTESIAN_POINT('Ctrl Pts',(81.400366610738,-94.39978904105,-13.9348085949815));
#938=CARTESIAN_POINT('',(81.400366610738,-94.39978904105,-13.9348085949815));
#939=CARTESIAN_POINT('',(81.400366610738,-93.9253702486841,-14.4341537679991));
#940=CARTESIAN_POINT('Origin',(81.400366610738,-93.89978904105,-13.9348085949815));
#941=CARTESIAN_POINT('Origin',(81.400366610738,-97.4253702486841,-14.2548504893106));
#942=CARTESIAN_POINT('',(78.400366610738,-97.39978904105,-13.755505316293));
#943=CARTESIAN_POINT('Origin',(81.400366610738,-97.39978904105,-13.755505316293));
#944=CARTESIAN_POINT('Origin',(81.400366610738,-97.39978904105,-13.755505316293));
#945=CARTESIAN_POINT('Origin',(-5.20000007450581,-97.4000011920929,-9.));
#946=CARTESIAN_POINT('',(-6.90000007450581,-97.4000011920929,-10.));
#947=CARTESIAN_POINT('Origin',(-5.20000007450581,-97.4000011920929,-10.));
#948=CARTESIAN_POINT('',(-6.90000007450581,-97.4000011920929,-9.));
#949=CARTESIAN_POINT('',(-6.90000007450581,-97.4000011920929,-9.));
#950=CARTESIAN_POINT('Origin',(-5.20000007450581,-97.4000011920929,-9.));
#951=CARTESIAN_POINT('Origin',(-5.20000007450581,-9.99999997019767,-9.));
#952=CARTESIAN_POINT('',(-6.90000007450581,-9.99999997019767,-10.));
#953=CARTESIAN_POINT('Origin',(-5.20000007450581,-9.99999997019767,-10.));
#954=CARTESIAN_POINT('',(-6.90000007450581,-9.99999997019767,-9.));
#955=CARTESIAN_POINT('',(-6.90000007450581,-9.99999997019767,-9.));
#956=CARTESIAN_POINT('Origin',(-5.20000007450581,-9.99999997019767,-9.));
#957=CARTESIAN_POINT('Origin',(81.4003188842863,-10.0004450569913,-9.));
#958=CARTESIAN_POINT('',(79.7003188842863,-10.0004450569913,-10.));
#959=CARTESIAN_POINT('Origin',(81.4003188842863,-10.0004450569913,-10.));
#960=CARTESIAN_POINT('',(79.7003188842863,-10.0004450569913,-9.));
#961=CARTESIAN_POINT('',(79.7003188842863,-10.0004450569913,-9.));
#962=CARTESIAN_POINT('Origin',(81.4003188842863,-10.0004450569913,-9.));
#963=CARTESIAN_POINT('Origin',(-5.20000007450581,-97.4000011920929,-10.5));
#964=CARTESIAN_POINT('',(-8.20000007450581,-97.4000011920929,-11.));
#965=CARTESIAN_POINT('Origin',(-5.20000007450581,-97.4000011920929,-11.));
#966=CARTESIAN_POINT('',(-7.55000007450581,-97.4000011920929,-10.5));
#967=CARTESIAN_POINT('Origin',(-5.20000007450581,-9.99999997019767,-10.5));
#968=CARTESIAN_POINT('',(-8.20000007450581,-9.99999997019767,-11.));
#969=CARTESIAN_POINT('Origin',(-5.20000007450581,-9.99999997019767,-11.));
#970=CARTESIAN_POINT('',(-7.55000007450581,-9.99999997019767,-10.5));
#971=CARTESIAN_POINT('Origin',(38.0999180216764,-51.1000257112109,-9.));
#972=CARTESIAN_POINT('',(-10.2001602188561,-9.80005180002664,-9.));
#973=CARTESIAN_POINT('',(-5.20016021885606,-4.80005180002665,-9.));
#974=CARTESIAN_POINT('Origin',(-5.20016021885607,-9.80005180002665,-9.));
#975=CARTESIAN_POINT('',(-10.2001602188561,-97.4000518000267,-9.));
#976=CARTESIAN_POINT('',(-10.2001602188561,-102.400051800027,-9.));
#977=CARTESIAN_POINT('',(-5.20016021885606,-102.400051800027,-9.));
#978=CARTESIAN_POINT('Origin',(-5.20016021885607,-97.4000518000267,-9.));
#979=CARTESIAN_POINT('',(81.3999962622088,-102.400051800027,-9.));
#980=CARTESIAN_POINT('',(86.3999962622088,-102.400051800027,-9.));
#981=CARTESIAN_POINT('',(86.3999962622088,-97.4000518000267,-9.));
#982=CARTESIAN_POINT('Origin',(81.3999962622088,-97.4000518000267,-9.));
#983=CARTESIAN_POINT('',(86.3999962622088,-9.80005180002665,-9.));
#984=CARTESIAN_POINT('',(86.3999962622088,-4.79999962239526,-9.));
#985=CARTESIAN_POINT('',(81.3999962622088,-4.80005180002665,-9.));
#986=CARTESIAN_POINT('Origin',(81.3999962622088,-9.80005180002665,-9.));
#987=CARTESIAN_POINT('',(86.3999962622088,-4.80005180002665,-9.));
#988=CARTESIAN_POINT('',(79.700366610738,-97.39978904105,-9.));
#989=CARTESIAN_POINT('Origin',(81.400366610738,-97.39978904105,-9.));
#990=CARTESIAN_POINT('Origin',(81.4003188842863,-10.0004450569913,-10.5));
#991=CARTESIAN_POINT('',(78.4003188842863,-10.0004450569913,-11.));
#992=CARTESIAN_POINT('Origin',(81.4003188842863,-10.0004450569913,-11.));
#993=CARTESIAN_POINT('',(79.0503188842863,-10.0004450569913,-10.5));
#994=CARTESIAN_POINT('Origin',(81.400366610738,-97.39978904105,-9.));
#995=CARTESIAN_POINT('',(79.700366610738,-97.39978904105,-10.));
#996=CARTESIAN_POINT('Origin',(81.400366610738,-97.39978904105,-10.));
#997=CARTESIAN_POINT('',(79.700366610738,-97.39978904105,-9.));
#998=CARTESIAN_POINT('Origin',(-5.20000007450581,-97.4000011920929,-9.));
#999=CARTESIAN_POINT('',(-8.20000007450581,-97.4000011920929,-13.7554944478994));
#1000=CARTESIAN_POINT('',(-8.20000007450581,-97.4000011920929,-9.));
#1001=CARTESIAN_POINT('',(-5.20000007450581,-94.4000011920929,-13.9347977265879));
#1002=CARTESIAN_POINT('Origin',(-5.20000007450581,-97.4000011920929,-13.7554944478994));
#1003=CARTESIAN_POINT('Origin',(-5.20000007450581,-97.4000011920929,-13.7554944478994));
#1004=CARTESIAN_POINT('Origin',(-5.20000007450581,-9.99999997019767,-9.));
#1005=CARTESIAN_POINT('',(-8.20000007450581,-9.99999997019767,-18.2329535268899));
#1006=CARTESIAN_POINT('',(-8.20000007450581,-9.99999997019767,-9.));
#1007=CARTESIAN_POINT('',(-5.20000007450581,-6.99999997019767,-18.4122568055784));
#1008=CARTESIAN_POINT('Origin',(-5.20000007450581,-9.99999997019767,-18.2329535268899));
#1009=CARTESIAN_POINT('Origin',(-5.20000007450581,-9.99999997019767,-18.2329535268899));
#1010=CARTESIAN_POINT('Origin',(-5.20016021885607,-9.80005180002665,-9.));
#1011=CARTESIAN_POINT('',(-10.2001602188561,-9.80005180002665,-18.2431967733126));
#1012=CARTESIAN_POINT('',(-5.20016021885607,-4.80005180002665,-18.4737295601979));
#1013=CARTESIAN_POINT('Origin',(-5.20016021885607,-9.80005180002665,-18.2431967733126));
#1014=CARTESIAN_POINT('',(-10.2001602188561,-9.80005180002665,-9.));
#1015=CARTESIAN_POINT('',(-5.20016021885607,-4.80005180002665,-9.));
#1016=CARTESIAN_POINT('Origin',(-10.2001602188561,-102.400051800027,-9.));
#1017=CARTESIAN_POINT('',(-10.2001602188561,-97.4000518000267,-13.7554918552798));
#1018=CARTESIAN_POINT('',(-10.2001602188561,-78.1660783806733,-14.7408388542221));
#1019=CARTESIAN_POINT('',(-10.2001602188561,-97.4000518000267,-9.));
#1020=CARTESIAN_POINT('Origin',(-5.20016021885607,-97.4000518000267,-9.));
#1021=CARTESIAN_POINT('',(-5.20016021885607,-102.400051800027,-13.5249590683946));
#1022=CARTESIAN_POINT('Origin',(-5.20016021885607,-97.4000518000267,-13.7554918552798));
#1023=CARTESIAN_POINT('',(-5.20016021885607,-102.400051800027,-9.));
#1024=CARTESIAN_POINT('Origin',(86.3999962622088,-102.400051800027,-9.));
#1025=CARTESIAN_POINT('',(81.3999962622088,-102.400051800027,-13.5249590683946));
#1026=CARTESIAN_POINT('',(62.2499571419426,-102.400051800027,-13.5249590683946));
#1027=CARTESIAN_POINT('',(81.3999962622088,-102.400051800027,-9.));
#1028=CARTESIAN_POINT('Origin',(81.3999962622088,-97.4000518000267,-9.));
#1029=CARTESIAN_POINT('',(86.3999962622088,-97.4000518000267,-13.7554918552798));
#1030=CARTESIAN_POINT('Origin',(81.3999962622088,-97.4000518000267,-13.7554918552798));
#1031=CARTESIAN_POINT('',(86.3999962622088,-97.4000518000267,-9.));
#1032=CARTESIAN_POINT('Origin',(86.3999962622088,-4.80005180002665,-9.));
#1033=CARTESIAN_POINT('',(86.3999962622088,-9.80005180002665,-18.2431967733126));
#1034=CARTESIAN_POINT('',(86.3999962622088,-29.4938169061938,-17.2342948723819));
#1035=CARTESIAN_POINT('',(86.3999962622088,-9.80005180002665,-9.));
#1036=CARTESIAN_POINT('Origin',(81.3999962622088,-9.80005180002665,-9.));
#1037=CARTESIAN_POINT('',(81.3999962622088,-4.80005180002665,-18.4737295601979));
#1038=CARTESIAN_POINT('Origin',(81.3999962622088,-9.80005180002665,-18.2431967733126));
#1039=CARTESIAN_POINT('',(81.3999962622088,-4.80005180002665,-9.));
#1040=CARTESIAN_POINT('Origin',(-10.2001602188561,-4.80005180002665,-9.));
#1041=CARTESIAN_POINT('',(13.9498789014102,-4.80005180002665,-18.4737295601979));
#1042=CARTESIAN_POINT('Origin',(81.4003188842863,-10.0004450569913,-9.));
#1043=CARTESIAN_POINT('',(78.4003188842863,-10.0004450569913,-18.2329307253124));
#1044=CARTESIAN_POINT('',(78.4003188842863,-10.0004450569913,-9.));
#1045=CARTESIAN_POINT('',(81.4003188842863,-7.00044505699128,-18.4122340040009));
#1046=CARTESIAN_POINT('Origin',(81.4003188842863,-10.0004450569913,-18.2329307253124));
#1047=CARTESIAN_POINT('Origin',(81.4003188842863,-10.0004450569913,-18.2329307253124));
#1048=CARTESIAN_POINT('Origin',(81.400366610738,-97.39978904105,-10.5));
#1049=CARTESIAN_POINT('',(78.400366610738,-97.39978904105,-11.));
#1050=CARTESIAN_POINT('Origin',(81.400366610738,-97.39978904105,-11.));
#1051=CARTESIAN_POINT('',(79.050366610738,-97.39978904105,-10.5));
#1052=CARTESIAN_POINT('Ctrl Pts',(-5.20000007450581,-93.925582399727,-14.4341428996055));
#1053=CARTESIAN_POINT('Ctrl Pts',(-4.67640129890751,-93.925582399727,-14.4341428996055));
#1054=CARTESIAN_POINT('Ctrl Pts',(-3.63307875444294,-94.1669046249824,-14.4217800806887));
#1055=CARTESIAN_POINT('Ctrl Pts',(-1.93945681241939,-95.4972362995157,-14.3536278432639));
#1056=CARTESIAN_POINT('Ctrl Pts',(-1.29409573996458,-98.314904813003,-14.2092800710565));
#1057=CARTESIAN_POINT('Ctrl Pts',(-3.46116643483484,-101.036164859817,-14.0698712571829));
#1058=CARTESIAN_POINT('Ctrl Pts',(-6.93835687349816,-101.03482795572,-14.0699397461223));
#1059=CARTESIAN_POINT('Ctrl Pts',(-9.10757066121161,-98.315868023642,-14.2092307262492));
#1060=CARTESIAN_POINT('Ctrl Pts',(-8.45922274598923,-95.4976512736259,-14.3536065843443));
#1061=CARTESIAN_POINT('Ctrl Pts',(-6.76710726688063,-94.1668988084168,-14.4217803786685));
#1062=CARTESIAN_POINT('Ctrl Pts',(-5.72359885010411,-93.925582399727,-14.4341428996055));
#1063=CARTESIAN_POINT('Ctrl Pts',(-5.20000007450581,-93.925582399727,-14.4341428996055));
#1064=CARTESIAN_POINT('Ctrl Pts',(-5.20000007450581,-94.0520508496844,-14.4276639831118));
#1065=CARTESIAN_POINT('Ctrl Pts',(-4.69540090378261,-94.0520508496844,-14.4276639831118));
#1066=CARTESIAN_POINT('Ctrl Pts',(-3.68992652798389,-94.2849386916678,-14.4157244707105));
#1067=CARTESIAN_POINT('Ctrl Pts',(-2.0588251534319,-95.5683666412187,-14.3499698704192));
#1068=CARTESIAN_POINT('Ctrl Pts',(-1.44178304297063,-98.2829418265128,-14.2109181894725));
#1069=CARTESIAN_POINT('Ctrl Pts',(-3.52929082993002,-100.896842589372,-14.0770491183979));
#1070=CARTESIAN_POINT('Ctrl Pts',(-6.87025054937191,-100.895534808787,-14.0771146653996));
#1071=CARTESIAN_POINT('Ctrl Pts',(-8.95980240400747,-98.2839092331018,-14.2108612356893));
#1072=CARTESIAN_POINT('Ctrl Pts',(-8.33987868362948,-95.5687311936988,-14.3499643412631));
#1073=CARTESIAN_POINT('Ctrl Pts',(-6.71025499462085,-94.2849385678924,-14.4157227635391));
#1074=CARTESIAN_POINT('Ctrl Pts',(-5.70459924522901,-94.0520508496844,-14.4276639831118));
#1075=CARTESIAN_POINT('Ctrl Pts',(-5.20000007450581,-94.0520508496844,-14.4276639831118));
#1076=CARTESIAN_POINT('Ctrl Pts',(-5.20000007450581,-94.298815111123,-14.3137035978545));
#1077=CARTESIAN_POINT('Ctrl Pts',(-4.73310979997548,-94.298815111123,-14.3137035978545));
#1078=CARTESIAN_POINT('Ctrl Pts',(-3.80304690339877,-94.514800504628,-14.3021466538019));
#1079=CARTESIAN_POINT('Ctrl Pts',(-2.2963252265197,-95.7045367721322,-14.2384598970099));
#1080=CARTESIAN_POINT('Ctrl Pts',(-1.73543161957917,-98.213556788683,-14.1039883035155));
#1081=CARTESIAN_POINT('Ctrl Pts',(-3.66464679483235,-100.614053154302,-13.9750116265981));
#1082=CARTESIAN_POINT('Ctrl Pts',(-6.73495986644527,-100.612793743879,-13.9750786698967));
#1083=CARTESIAN_POINT('Ctrl Pts',(-8.66602652697941,-98.2144671071933,-14.1039424554492));
#1084=CARTESIAN_POINT('Ctrl Pts',(-8.10248339714322,-95.7048988829254,-14.2384362835129));
#1085=CARTESIAN_POINT('Ctrl Pts',(-6.59712192980109,-94.5147983518726,-14.3021473414455));
#1086=CARTESIAN_POINT('Ctrl Pts',(-5.66689034903614,-94.298815111123,-14.3137035978545));
#1087=CARTESIAN_POINT('Ctrl Pts',(-5.20000007450581,-94.298815111123,-14.3137035978545));
#1088=CARTESIAN_POINT('Ctrl Pts',(-5.20000007450581,-94.4000011920929,-14.0614320236546));
#1089=CARTESIAN_POINT('Ctrl Pts',(-4.75036660554177,-94.4000011920929,-14.0614320236546));
#1090=CARTESIAN_POINT('Ctrl Pts',(-3.85422570780113,-94.60780592359,-14.0493379995601));
#1091=CARTESIAN_POINT('Ctrl Pts',(-2.40135545283059,-95.7525390588606,-13.9826940285887));
#1092=CARTESIAN_POINT('Ctrl Pts',(-1.85481253281634,-98.1709363585514,-13.8416963057927));
#1093=CARTESIAN_POINT('Ctrl Pts',(-3.71446510009568,-100.494244881288,-13.7058435162018));
#1094=CARTESIAN_POINT('Ctrl Pts',(-6.68510891352038,-100.493075060351,-13.7059108960794));
#1095=CARTESIAN_POINT('Ctrl Pts',(-8.54656582329546,-98.1718624026387,-13.8416447781409));
#1096=CARTESIAN_POINT('Ctrl Pts',(-7.99744082657924,-95.7527772491501,-13.9826777375267));
#1097=CARTESIAN_POINT('Ctrl Pts',(-6.54593965488237,-94.6078178690141,-14.049337670894));
#1098=CARTESIAN_POINT('Ctrl Pts',(-5.64963354346984,-94.4000011920929,-14.0614320236546));
#1099=CARTESIAN_POINT('Ctrl Pts',(-5.20000007450581,-94.4000011920929,-14.0614320236546));
#1100=CARTESIAN_POINT('Ctrl Pts',(-5.20000007450581,-94.4000011920929,-13.9347977265879));
#1101=CARTESIAN_POINT('Ctrl Pts',(-4.75120112399298,-94.4000011920929,-13.9347977265879));
#1102=CARTESIAN_POINT('Ctrl Pts',(-3.85692465730907,-94.6068488137404,-13.9224349076711));
#1103=CARTESIAN_POINT('Ctrl Pts',(-2.40524870700316,-95.7471331061976,-13.8542826702463));
#1104=CARTESIAN_POINT('Ctrl Pts',(-1.85208207347047,-98.1622775463295,-13.7099348980389));
#1105=CARTESIAN_POINT('Ctrl Pts',(-3.70957124050212,-100.494786157884,-13.5705260841653));
#1106=CARTESIAN_POINT('Ctrl Pts',(-6.69002018792783,-100.493640240087,-13.5705945731047));
#1107=CARTESIAN_POINT('Ctrl Pts',(-8.54934629168221,-98.1631031554487,-13.7098855532316));
#1108=CARTESIAN_POINT('Ctrl Pts',(-7.99361950720588,-95.747488798292,-13.8542614113267));
#1109=CARTESIAN_POINT('Ctrl Pts',(-6.54323481082709,-94.6068438281127,-13.9224352056509));
#1110=CARTESIAN_POINT('Ctrl Pts',(-5.64879902501863,-94.4000011920929,-13.9347977265879));
#1111=CARTESIAN_POINT('Ctrl Pts',(-5.20000007450581,-94.4000011920929,-13.9347977265879));
#1112=CARTESIAN_POINT('',(-5.20000007450581,-93.925582399727,-14.4341428996055));
#1113=CARTESIAN_POINT('Origin',(-5.20000007450581,-93.9000011920929,-13.9347977265879));
#1114=CARTESIAN_POINT('Origin',(-5.20000007450581,-97.425582399727,-14.254839620917));
#1115=CARTESIAN_POINT('Ctrl Pts',(-5.20000007450581,-6.52558117783176,-18.911601978596));
#1116=CARTESIAN_POINT('Ctrl Pts',(-4.15280252330921,-6.52558117783176,-18.911601978596));
#1117=CARTESIAN_POINT('Ctrl Pts',(-2.06709584077672,-7.52654211221046,-18.8603232422037));
#1118=CARTESIAN_POINT('Ctrl Pts',(-1.29581917317541,-10.9162681209026,-18.6866692458568));
#1119=CARTESIAN_POINT('Ctrl Pts',(-3.46106070137239,-13.6383683918254,-18.5472173877152));
#1120=CARTESIAN_POINT('Ctrl Pts',(-6.93621363050099,-13.6326287742077,-18.547511425503));
#1121=CARTESIAN_POINT('Ctrl Pts',(-9.11127862059153,-10.9180356251528,-18.6865786974833));
#1122=CARTESIAN_POINT('Ctrl Pts',(-8.32821772972937,-7.52751160029513,-18.8602735758059));
#1123=CARTESIAN_POINT('Ctrl Pts',(-6.24719762570241,-6.52558117783176,-18.911601978596));
#1124=CARTESIAN_POINT('Ctrl Pts',(-5.20000007450581,-6.52558117783176,-18.911601978596));
#1125=CARTESIAN_POINT('Ctrl Pts',(-5.20000007450581,-6.65204962778917,-18.9051230621023));
#1126=CARTESIAN_POINT('Ctrl Pts',(-4.19080173305941,-6.65204962778917,-18.9051230621023));
#1127=CARTESIAN_POINT('Ctrl Pts',(-2.18075344875179,-7.61850520221366,-18.8555761131333));
#1128=CARTESIAN_POINT('Ctrl Pts',(-1.44340496721482,-10.88427529691,-18.6883052139168));
#1129=CARTESIAN_POINT('Ctrl Pts',(-3.52920478297523,-13.4989337783828,-18.5543993455045));
#1130=CARTESIAN_POINT('Ctrl Pts',(-6.86823124301027,-13.4934670047855,-18.5546444952979));
#1131=CARTESIAN_POINT('Ctrl Pts',(-8.96337127364953,-10.886049018764,-18.6882302755937));
#1132=CARTESIAN_POINT('Ctrl Pts',(-8.21471513807418,-7.6193695011024,-18.8555434162826));
#1133=CARTESIAN_POINT('Ctrl Pts',(-6.20919841595222,-6.65204962778917,-18.9051230621023));
#1134=CARTESIAN_POINT('Ctrl Pts',(-5.20000007450581,-6.65204962778917,-18.9051230621023));
#1135=CARTESIAN_POINT('Ctrl Pts',(-5.20000007450581,-6.8989051009112,-18.7912493354111));
#1136=CARTESIAN_POINT('Ctrl Pts',(-4.26621952544515,-6.8989051009112,-18.7912493354111));
#1137=CARTESIAN_POINT('Ctrl Pts',(-2.40726002586056,-7.79613507064665,-18.7432657067902));
#1138=CARTESIAN_POINT('Ctrl Pts',(-1.7371200150668,-10.8147997552368,-18.5814862129319));
#1139=CARTESIAN_POINT('Ctrl Pts',(-3.66463608174619,-13.2158197056324,-18.4524834532851));
#1140=CARTESIAN_POINT('Ctrl Pts',(-6.73303036373179,-13.2105840924919,-18.4527757686988));
#1141=CARTESIAN_POINT('Ctrl Pts',(-8.66930990741517,-10.8166926960963,-18.5813828538568));
#1142=CARTESIAN_POINT('Ctrl Pts',(-7.98834508956246,-7.7969069567861,-18.7432185814119));
#1143=CARTESIAN_POINT('Ctrl Pts',(-6.13378062356646,-6.8989051009112,-18.7912493354111));
#1144=CARTESIAN_POINT('Ctrl Pts',(-5.20000007450581,-6.8989051009112,-18.7912493354111));
#1145=CARTESIAN_POINT('Ctrl Pts',(-5.20000007450581,-6.99999997019767,-18.5388911026451));
#1146=CARTESIAN_POINT('Ctrl Pts',(-4.30073313657774,-6.99999997019767,-18.5388911026451));
#1147=CARTESIAN_POINT('Ctrl Pts',(-2.50911803583336,-7.86272141226612,-18.488708419893));
#1148=CARTESIAN_POINT('Ctrl Pts',(-1.85613709438573,-10.7721490384514,-18.319085450166));
#1149=CARTESIAN_POINT('Ctrl Pts',(-3.71440304445732,-13.0960974835392,-18.1831931634666));
#1150=CARTESIAN_POINT('Ctrl Pts',(-6.68340076035986,-13.0914469266573,-18.1834697261466));
#1151=CARTESIAN_POINT('Ctrl Pts',(-8.54969606451122,-10.7737084320599,-18.3189978440836));
#1152=CARTESIAN_POINT('Ctrl Pts',(-7.88693489275418,-7.86337756932513,-18.4886653797636));
#1153=CARTESIAN_POINT('Ctrl Pts',(-6.09926701243388,-6.99999997019767,-18.5388911026451));
#1154=CARTESIAN_POINT('Ctrl Pts',(-5.20000007450581,-6.99999997019767,-18.5388911026451));
#1155=CARTESIAN_POINT('Ctrl Pts',(-5.20000007450581,-6.99999997019767,-18.4122568055784));
#1156=CARTESIAN_POINT('Ctrl Pts',(-4.30240217348015,-6.99999997019767,-18.4122568055784));
#1157=CARTESIAN_POINT('Ctrl Pts',(-2.51465358845231,-7.85796648537942,-18.3609780691861));
#1158=CARTESIAN_POINT('Ctrl Pts',(-1.8535593019369,-10.7634459214013,-18.1873240728392));
#1159=CARTESIAN_POINT('Ctrl Pts',(-3.70948061182002,-13.0966747250493,-18.0478722146976));
#1160=CARTESIAN_POINT('Ctrl Pts',(-6.68818312250167,-13.0917550528056,-18.0481662524854));
#1161=CARTESIAN_POINT('Ctrl Pts',(-8.55252454257928,-10.7649609250443,-18.1872335244657));
#1162=CARTESIAN_POINT('Ctrl Pts',(-7.88132949326886,-7.85879747516626,-18.3609284027883));
#1163=CARTESIAN_POINT('Ctrl Pts',(-6.09759797553146,-6.99999997019767,-18.4122568055784));
#1164=CARTESIAN_POINT('Ctrl Pts',(-5.20000007450581,-6.99999997019767,-18.4122568055784));
#1165=CARTESIAN_POINT('',(-5.20000007450581,-6.52558117783177,-18.9116019785961));
#1166=CARTESIAN_POINT('Origin',(-5.20000007450581,-6.49999997019767,-18.4122568055784));
#1167=CARTESIAN_POINT('Origin',(-5.20000007450581,-10.0255811778318,-18.7322986999075));
#1168=CARTESIAN_POINT('Ctrl Pts',(-5.20016021885607,-5.32563300766074,-18.9730747332155));
#1169=CARTESIAN_POINT('Ctrl Pts',(-6.20995785750993,-5.32563300766074,-18.9730747332155));
#1170=CARTESIAN_POINT('Ctrl Pts',(-7.88701230886509,-5.91520312769173,-18.9428713459188));
#1171=CARTESIAN_POINT('Ctrl Pts',(-9.39238281710341,-7.80822468635409,-18.8458927824627));
#1172=CARTESIAN_POINT('Ctrl Pts',(-9.70016021885607,-9.1524345818915,-18.7770295706012));
#1173=CARTESIAN_POINT('Ctrl Pts',(-9.70016021885607,-9.82563300766074,-18.7425419463302));
#1174=CARTESIAN_POINT('Ctrl Pts',(-5.20016021885607,-5.19064493642521,-18.9799901057173));
#1175=CARTESIAN_POINT('Ctrl Pts',(-6.2403929551239,-5.19064493642521,-18.9799901057173));
#1176=CARTESIAN_POINT('Ctrl Pts',(-7.96772227243179,-5.79855056299496,-18.9488907116446));
#1177=CARTESIAN_POINT('Ctrl Pts',(-9.5163191903599,-7.74910706378316,-18.8489183949998));
#1178=CARTESIAN_POINT('Ctrl Pts',(-9.83170399935921,-9.13286834257302,-18.7780527614993));
#1179=CARTESIAN_POINT('Ctrl Pts',(-9.83105991275565,-9.82563300766074,-18.7425419463302));
#1180=CARTESIAN_POINT('Ctrl Pts',(-5.20016021885607,-4.91602092797465,-18.8779377520627));
#1181=CARTESIAN_POINT('Ctrl Pts',(-6.30065312154064,-4.91602092797465,-18.8779377520627));
#1182=CARTESIAN_POINT('Ctrl Pts',(-8.12841149971796,-5.56085166626836,-18.8459079124345));
#1183=CARTESIAN_POINT('Ctrl Pts',(-9.76277773845901,-7.62560919991773,-18.7433634680544));
#1184=CARTESIAN_POINT('Ctrl Pts',(-10.0936488046548,-9.08847328717713,-18.6706576494958));
#1185=CARTESIAN_POINT('Ctrl Pts',(-10.0917744874515,-9.82008773186147,-18.6342981627285));
#1186=CARTESIAN_POINT('Ctrl Pts',(-5.20016021885607,-4.80005180002665,-18.6088946509304));
#1187=CARTESIAN_POINT('Ctrl Pts',(-6.32398352942884,-4.80005180002665,-18.6088946509304));
#1188=CARTESIAN_POINT('Ctrl Pts',(-8.18950572148964,-5.45678581565273,-18.5780937115734));
#1189=CARTESIAN_POINT('Ctrl Pts',(-9.86147217775262,-7.5643841526539,-18.4792076933116));
#1190=CARTESIAN_POINT('Ctrl Pts',(-10.2011847515374,-9.05862630990404,-18.409055901253));
#1191=CARTESIAN_POINT('Ctrl Pts',(-10.2001602188561,-9.80674894452441,-18.3739250339091));
#1192=CARTESIAN_POINT('Ctrl Pts',(-5.20016021885607,-4.80005180002665,-18.4737295601979));
#1193=CARTESIAN_POINT('Ctrl Pts',(-6.32215759513814,-4.80005180002665,-18.4737295601979));
#1194=CARTESIAN_POINT('Ctrl Pts',(-8.1855514299772,-5.45512971117219,-18.4435261729012));
#1195=CARTESIAN_POINT('Ctrl Pts',(-9.85818532801978,-7.55848699857481,-18.3465476094451));
#1196=CARTESIAN_POINT('Ctrl Pts',(-10.2001602188561,-9.05205354917193,-18.2776843975836));
#1197=CARTESIAN_POINT('Ctrl Pts',(-10.2001602188561,-9.80005180002664,-18.2431967733126));
#1198=CARTESIAN_POINT('',(-9.70016021885607,-9.82563300766074,-18.7425419463302));
#1199=CARTESIAN_POINT('Origin',(-9.70016021885607,-9.80005180002665,-18.2431967733126));
#1200=CARTESIAN_POINT('',(-5.20016021885607,-5.32563300766075,-18.9730747332155));
#1201=CARTESIAN_POINT('Origin',(-5.20016021885607,-5.30005180002665,-18.4737295601979));
#1202=CARTESIAN_POINT('Origin',(-5.20016021885607,-9.82563300766074,-18.7425419463302));
#1203=CARTESIAN_POINT('Origin',(-9.70016021885607,-78.1660783806733,-14.7408388542221));
#1204=CARTESIAN_POINT('',(-9.70016021885607,-97.4256330076608,-14.2548370282974));
#1205=CARTESIAN_POINT('',(-9.70016021885607,-78.1916595883074,-15.2401840272397));
#1206=CARTESIAN_POINT('Origin',(-9.70016021885607,-97.4000518000267,-13.7554918552798));
#1207=CARTESIAN_POINT('Ctrl Pts',(-9.70016021885607,-97.4256330076608,-14.2548370282974));
#1208=CARTESIAN_POINT('Ctrl Pts',(-9.70016021885607,-98.4354306463146,-14.203105591891));
#1209=CARTESIAN_POINT('Ctrl Pts',(-9.10996534270122,-100.112236361344,-14.1172036597686));
#1210=CARTESIAN_POINT('Ctrl Pts',(-7.21730594297953,-101.617672937294,-14.0400808843613));
#1211=CARTESIAN_POINT('Ctrl Pts',(-5.87335864462531,-101.925633007661,-14.0243042414122));
#1212=CARTESIAN_POINT('Ctrl Pts',(-5.20016021885607,-101.925633007661,-14.0243042414122));
#1213=CARTESIAN_POINT('Ctrl Pts',(-9.83105991275565,-97.4256330076608,-14.2548370282974));
#1214=CARTESIAN_POINT('Ctrl Pts',(-9.83009378285031,-98.4647800052923,-14.2015708055439));
#1215=CARTESIAN_POINT('Ctrl Pts',(-9.22136542135959,-100.188966458241,-14.1132753270464));
#1216=CARTESIAN_POINT('Ctrl Pts',(-7.27415329104632,-101.735822896479,-14.0339927087965));
#1217=CARTESIAN_POINT('Ctrl Pts',(-5.89235824950041,-102.052101457618,-14.0178253249185));
#1218=CARTESIAN_POINT('Ctrl Pts',(-5.20016021885607,-102.052101457618,-14.0178253249185));
#1219=CARTESIAN_POINT('Ctrl Pts',(-10.0916718783886,-97.420082482134,-14.1464907700152));
#1220=CARTESIAN_POINT('Ctrl Pts',(-10.0888604025836,-98.5175041491605,-14.0919515398642));
#1221=CARTESIAN_POINT('Ctrl Pts',(-9.44289395674783,-100.336440975986,-14.0014939579642));
#1222=CARTESIAN_POINT('Ctrl Pts',(-7.38741633706589,-101.965730069929,-13.9204502281316));
#1223=CARTESIAN_POINT('Ctrl Pts',(-5.93006714569329,-102.298864971092,-13.9038642290334));
#1224=CARTESIAN_POINT('Ctrl Pts',(-5.20016021885607,-102.298864971092,-13.9038642290334));
#1225=CARTESIAN_POINT('Ctrl Pts',(-10.2001602188561,-97.4067489445244,-13.8862201158763));
#1226=CARTESIAN_POINT('Ctrl Pts',(-10.198623419834,-98.528932896455,-13.8335238148604));
#1227=CARTESIAN_POINT('Ctrl Pts',(-9.54093274164423,-100.389818766832,-13.7460940922362));
#1228=CARTESIAN_POINT('Ctrl Pts',(-7.43853600615502,-102.059031097981,-13.6676284805541));
#1229=CARTESIAN_POINT('Ctrl Pts',(-5.94732395125958,-102.400051800027,-13.6515933654612));
#1230=CARTESIAN_POINT('Ctrl Pts',(-5.20016021885607,-102.400051800027,-13.6515933654612));
#1231=CARTESIAN_POINT('Ctrl Pts',(-10.2001602188561,-97.4000518000267,-13.7554918552798));
#1232=CARTESIAN_POINT('Ctrl Pts',(-10.2001602188561,-98.5220491763087,-13.7037604188734));
#1233=CARTESIAN_POINT('Ctrl Pts',(-9.54438813423957,-100.385166637453,-13.617858486751));
#1234=CARTESIAN_POINT('Ctrl Pts',(-7.44143324565992,-102.057873944064,-13.5407357113437));
#1235=CARTESIAN_POINT('Ctrl Pts',(-5.94815846971079,-102.400051800027,-13.5249590683946));
#1236=CARTESIAN_POINT('Ctrl Pts',(-5.20016021885607,-102.400051800027,-13.5249590683946));
#1237=CARTESIAN_POINT('',(-5.20016021885607,-101.925633007661,-14.0243042414122));
#1238=CARTESIAN_POINT('Origin',(-5.20016021885607,-97.4256330076608,-14.2548370282974));
#1239=CARTESIAN_POINT('Origin',(-5.20016021885607,-101.900051800027,-13.5249590683946));
#1240=CARTESIAN_POINT('Origin',(62.2499571419426,-101.900051800027,-13.5249590683946));
#1241=CARTESIAN_POINT('',(81.3999962622088,-101.925633007661,-14.0243042414122));
#1242=CARTESIAN_POINT('',(62.2499571419426,-101.925633007661,-14.0243042414122));
#1243=CARTESIAN_POINT('Origin',(81.3999962622088,-101.900051800027,-13.5249590683946));
#1244=CARTESIAN_POINT('Ctrl Pts',(81.3999962622088,-101.925633007661,-14.0243042414122));
#1245=CARTESIAN_POINT('Ctrl Pts',(82.073194687978,-101.925633007661,-14.0243042414122));
#1246=CARTESIAN_POINT('Ctrl Pts',(83.4170654924444,-101.617625036444,-14.0400833382983));
#1247=CARTESIAN_POINT('Ctrl Pts',(85.3096419924239,-100.112169605989,-14.1172070796126));
#1248=CARTESIAN_POINT('Ctrl Pts',(85.8999962622088,-98.4354306463146,-14.203105591891));
#1249=CARTESIAN_POINT('Ctrl Pts',(85.8999962622088,-97.4256330076608,-14.2548370282974));
#1250=CARTESIAN_POINT('Ctrl Pts',(81.3999962622088,-102.052101457618,-14.0178253249185));
#1251=CARTESIAN_POINT('Ctrl Pts',(82.0921942928531,-102.052101457618,-14.0178253249185));
#1252=CARTESIAN_POINT('Ctrl Pts',(83.4739131368179,-101.735775852329,-14.0339935627944));
#1253=CARTESIAN_POINT('Ctrl Pts',(85.4210420639915,-100.188900250736,-14.1132768459909));
#1254=CARTESIAN_POINT('Ctrl Pts',(86.029929826203,-98.4647800052923,-14.2015708055439));
#1255=CARTESIAN_POINT('Ctrl Pts',(86.0308959561084,-97.4256330076608,-14.2548370282974));
#1256=CARTESIAN_POINT('Ctrl Pts',(81.3999962622088,-102.298843749884,-13.9038440671486));
#1257=CARTESIAN_POINT('Ctrl Pts',(82.129903189046,-102.298843749884,-13.9038440671486));
#1258=CARTESIAN_POINT('Ctrl Pts',(83.5871575343349,-101.96565863311,-13.9204322074398));
#1259=CARTESIAN_POINT('Ctrl Pts',(85.6425418978365,-100.336346922519,-14.0014770333101));
#1260=CARTESIAN_POINT('Ctrl Pts',(86.2886729760433,-98.5175029483841,-14.0919281007086));
#1261=CARTESIAN_POINT('Ctrl Pts',(86.2914844518483,-97.4200812813576,-14.1464673308596));
#1262=CARTESIAN_POINT('Ctrl Pts',(81.3999962622088,-102.400051800027,-13.6515933654612));
#1263=CARTESIAN_POINT('Ctrl Pts',(82.1471599946123,-102.400051800027,-13.6515933654612));
#1264=CARTESIAN_POINT('Ctrl Pts',(83.6382978054321,-102.058988876755,-13.6676305270958));
#1265=CARTESIAN_POINT('Ctrl Pts',(85.7406109436554,-100.389757989329,-13.7460970387));
#1266=CARTESIAN_POINT('Ctrl Pts',(86.3984594631867,-98.528932896455,-13.8335238148604));
#1267=CARTESIAN_POINT('Ctrl Pts',(86.3999962622088,-97.4067489445244,-13.8862201158763));
#1268=CARTESIAN_POINT('Ctrl Pts',(81.3999962622088,-102.400051800027,-13.5249590683946));
#1269=CARTESIAN_POINT('Ctrl Pts',(82.1479945130635,-102.400051800027,-13.5249590683946));
#1270=CARTESIAN_POINT('Ctrl Pts',(83.641184295804,-102.057820720897,-13.5407381652807));
#1271=CARTESIAN_POINT('Ctrl Pts',(85.7440470735589,-100.385092464836,-13.617861906595));
#1272=CARTESIAN_POINT('Ctrl Pts',(86.3999962622088,-98.5220491763087,-13.7037604188734));
#1273=CARTESIAN_POINT('Ctrl Pts',(86.3999962622088,-97.4000518000267,-13.7554918552798));
#1274=CARTESIAN_POINT('',(85.8999962622088,-97.4256330076608,-14.2548370282974));
#1275=CARTESIAN_POINT('Origin',(81.3999962622088,-97.4256330076608,-14.2548370282974));
#1276=CARTESIAN_POINT('Origin',(85.8999962622088,-97.4000518000267,-13.7554918552798));
#1277=CARTESIAN_POINT('Origin',(85.8999962622088,-29.4938169061938,-17.2342948723819));
#1278=CARTESIAN_POINT('',(85.8999962622088,-9.82563300766075,-18.7425419463302));
#1279=CARTESIAN_POINT('',(85.8999962622088,-29.5193981138279,-17.7336400453995));
#1280=CARTESIAN_POINT('Origin',(85.8999962622088,-9.80005180002665,-18.2431967733126));
#1281=CARTESIAN_POINT('Ctrl Pts',(85.8999962622088,-9.82563300766075,-18.7425419463302));
#1282=CARTESIAN_POINT('Ctrl Pts',(85.8999962622088,-8.81583536900689,-18.7942733827367));
#1283=CARTESIAN_POINT('Ctrl Pts',(85.3098307321503,-7.1390174858742,-18.880175938225));
#1284=CARTESIAN_POINT('Ctrl Pts',(83.4171557172612,-5.63358430707811,-18.9572985395978));
#1285=CARTESIAN_POINT('Ctrl Pts',(82.0731946879781,-5.32563300766074,-18.9730747332155));
#1286=CARTESIAN_POINT('Ctrl Pts',(81.3999962622088,-5.32563300766074,-18.9730747332155));
#1287=CARTESIAN_POINT('Ctrl Pts',(86.0308959561084,-9.82563300766075,-18.7425419463302));
#1288=CARTESIAN_POINT('Ctrl Pts',(86.0318620860137,-8.78648601002917,-18.7958081690838));
#1289=CARTESIAN_POINT('Ctrl Pts',(85.426195288071,-7.05984908196309,-18.884225008408));
#1290=CARTESIAN_POINT('Ctrl Pts',(83.4778361952333,-5.50809859199683,-18.9637652795471));
#1291=CARTESIAN_POINT('Ctrl Pts',(82.093484753054,-5.19064493642521,-18.9799901057173));
#1292=CARTESIAN_POINT('Ctrl Pts',(81.3999962622088,-5.19064493642521,-18.9799901057173));
#1293=CARTESIAN_POINT('Ctrl Pts',(86.291512361592,-9.82008270928748,-18.634200122084));
#1294=CARTESIAN_POINT('Ctrl Pts',(86.294323837397,-8.72266104226097,-18.688739352235));
#1295=CARTESIAN_POINT('Ctrl Pts',(85.6572613890725,-6.89640280020837,-18.7794881978804));
#1296=CARTESIAN_POINT('Ctrl Pts',(83.5984575894129,-5.2528306569217,-18.8610961989791));
#1297=CARTESIAN_POINT('Ctrl Pts',(82.1336581973319,-4.91612887014874,-18.8778241385118));
#1298=CARTESIAN_POINT('Ctrl Pts',(81.3999962622088,-4.91612887014874,-18.8778241385118));
#1299=CARTESIAN_POINT('Ctrl Pts',(86.3999962622088,-9.80674894452442,-18.3739250339091));
#1300=CARTESIAN_POINT('Ctrl Pts',(86.4015330612309,-8.68456499259385,-18.426621334925));
#1301=CARTESIAN_POINT('Ctrl Pts',(85.748670441979,-6.81988009184516,-18.5141487891357));
#1302=CARTESIAN_POINT('Ctrl Pts',(83.6444640959696,-5.1428868938155,-18.5928129825956));
#1303=CARTESIAN_POINT('Ctrl Pts',(82.1492118025907,-4.80005180002665,-18.6088946509304));
#1304=CARTESIAN_POINT('Ctrl Pts',(81.3999962622088,-4.80005180002665,-18.6088946509304));
#1305=CARTESIAN_POINT('Ctrl Pts',(86.3999962622088,-9.80005180002665,-18.2431967733126));
#1306=CARTESIAN_POINT('Ctrl Pts',(86.3999962622088,-8.67805442374458,-18.2949282097191));
#1307=CARTESIAN_POINT('Ctrl Pts',(85.744256784366,-6.81492344248604,-18.3808307652074));
#1308=CARTESIAN_POINT('Ctrl Pts',(83.6412845456003,-5.14221991049038,-18.4579533665802));
#1309=CARTESIAN_POINT('Ctrl Pts',(82.1479945130635,-4.80005180002665,-18.4737295601979));
#1310=CARTESIAN_POINT('Ctrl Pts',(81.3999962622088,-4.80005180002665,-18.4737295601979));
#1311=CARTESIAN_POINT('',(81.3999962622088,-5.32563300766075,-18.9730747332155));
#1312=CARTESIAN_POINT('Origin',(81.3999962622088,-9.82563300766075,-18.7425419463302));
#1313=CARTESIAN_POINT('Origin',(81.3999962622088,-5.30005180002665,-18.4737295601979));
#1314=CARTESIAN_POINT('Origin',(13.9498789014102,-5.30005180002665,-18.4737295601979));
#1315=CARTESIAN_POINT('',(13.9498789014102,-5.32563300766075,-18.9730747332155));
#1316=CARTESIAN_POINT('Ctrl Pts',(81.4003188842863,-6.52602626462538,-18.9115791770185));
#1317=CARTESIAN_POINT('Ctrl Pts',(81.9239176598846,-6.52602626462538,-18.9115791770185));
#1318=CARTESIAN_POINT('Ctrl Pts',(82.9672362810164,-6.76734826249957,-18.8992163697504));
#1319=CARTESIAN_POINT('Ctrl Pts',(84.6608854655385,-8.09764683721349,-18.831065828013));
#1320=CARTESIAN_POINT('Ctrl Pts',(85.306252468369,-10.9153515578811,-18.6867162009296));
#1321=CARTESIAN_POINT('Ctrl Pts',(83.1391399719118,-13.6365972587106,-18.5473081219937));
#1322=CARTESIAN_POINT('Ctrl Pts',(79.661965695733,-13.6352907940961,-18.5473750515333));
#1323=CARTESIAN_POINT('Ctrl Pts',(77.4927448434061,-10.9163008229835,-18.6866675705453));
#1324=CARTESIAN_POINT('Ctrl Pts',(78.1410746438756,-8.09806153012192,-18.8310445834992));
#1325=CARTESIAN_POINT('Ctrl Pts',(79.8332099799858,-6.76733710515939,-18.8992169413354));
#1326=CARTESIAN_POINT('Ctrl Pts',(80.876720108688,-6.52602626462538,-18.9115791770185));
#1327=CARTESIAN_POINT('Ctrl Pts',(81.4003188842863,-6.52602626462538,-18.9115791770185));
#1328=CARTESIAN_POINT('Ctrl Pts',(81.4003188842863,-6.65249471458278,-18.9051002605248));
#1329=CARTESIAN_POINT('Ctrl Pts',(81.9049180550095,-6.65249471458278,-18.9051002605248));
#1330=CARTESIAN_POINT('Ctrl Pts',(82.9103896893001,-6.88538186271729,-18.8931610073972));
#1331=CARTESIAN_POINT('Ctrl Pts',(84.5415191683298,-8.16877779146514,-18.8274080433161));
#1332=CARTESIAN_POINT('Ctrl Pts',(85.1585673165359,-10.8833890311589,-18.6883539567543));
#1333=CARTESIAN_POINT('Ctrl Pts',(83.0710175028466,-13.4972782586235,-18.5544842003484));
#1334=CARTESIAN_POINT('Ctrl Pts',(79.730070415535,-13.4959997652157,-18.5545483543468));
#1335=CARTESIAN_POINT('Ctrl Pts',(77.6405095104234,-10.8843429580195,-18.6882976611365));
#1336=CARTESIAN_POINT('Ctrl Pts',(78.2604164262769,-8.16914224932493,-18.8274023828268));
#1337=CARTESIAN_POINT('Ctrl Pts',(79.8900610830456,-6.88537674085298,-18.8931594992808));
#1338=CARTESIAN_POINT('Ctrl Pts',(80.8957197135631,-6.65249471458278,-18.9051002605248));
#1339=CARTESIAN_POINT('Ctrl Pts',(81.4003188842863,-6.65249471458278,-18.9051002605248));
#1340=CARTESIAN_POINT('Ctrl Pts',(81.4003188842863,-6.89926209343116,-18.7911428370619));
#1341=CARTESIAN_POINT('Ctrl Pts',(81.8672091588167,-6.89926209343116,-18.7911428370619));
#1342=CARTESIAN_POINT('Ctrl Pts',(82.7972652161019,-7.11524740942429,-18.7795858779262));
#1343=CARTESIAN_POINT('Ctrl Pts',(84.3040110816682,-8.30495344080845,-18.7159008867669));
#1344=CARTESIAN_POINT('Ctrl Pts',(84.8649060217664,-10.8140031073386,-18.5814280994669));
#1345=CARTESIAN_POINT('Ctrl Pts',(82.9356570127039,-13.2144788768898,-18.4524530090596));
#1346=CARTESIAN_POINT('Ctrl Pts',(79.865367406716,-13.2132472866574,-18.4525185413011));
#1347=CARTESIAN_POINT('Ctrl Pts',(77.9342966329511,-10.8149004688053,-18.5813829683361));
#1348=CARTESIAN_POINT('Ctrl Pts',(78.4978198576998,-8.30531514860233,-18.7158772998953));
#1349=CARTESIAN_POINT('Ctrl Pts',(80.0031987151121,-7.11524048959539,-18.7795868436505));
#1350=CARTESIAN_POINT('Ctrl Pts',(80.933428609756,-6.89926209343116,-18.7911428370619));
#1351=CARTESIAN_POINT('Ctrl Pts',(81.4003188842863,-6.89926209343116,-18.7911428370619));
#1352=CARTESIAN_POINT('Ctrl Pts',(81.4003188842863,-7.00044505699128,-18.5388683010675));
#1353=CARTESIAN_POINT('Ctrl Pts',(81.8499523532504,-7.00044505699128,-18.5388683010675));
#1354=CARTESIAN_POINT('Ctrl Pts',(82.7460950170407,-7.20824766319624,-18.5267743594416));
#1355=CARTESIAN_POINT('Ctrl Pts',(84.1989942512392,-8.35295190832133,-18.4601320501053));
#1356=CARTESIAN_POINT('Ctrl Pts',(84.7455449398629,-10.7713846120383,-18.3191323376992));
#1357=CARTESIAN_POINT('Ctrl Pts',(82.8858491370849,-13.0946917076602,-18.1832798763142));
#1358=CARTESIAN_POINT('Ctrl Pts',(79.9152063235585,-13.0935473926309,-18.1833457593004));
#1359=CARTESIAN_POINT('Ctrl Pts',(78.0537351049669,-10.7722987593608,-18.3190815021592));
#1360=CARTESIAN_POINT('Ctrl Pts',(78.6028481422643,-8.35319077036872,-18.4601157343443));
#1361=CARTESIAN_POINT('Ctrl Pts',(80.0543721469828,-7.20825552405035,-18.5267742788915));
#1362=CARTESIAN_POINT('Ctrl Pts',(80.9506854153223,-7.00044505699128,-18.5388683010675));
#1363=CARTESIAN_POINT('Ctrl Pts',(81.4003188842863,-7.00044505699128,-18.5388683010675));
#1364=CARTESIAN_POINT('Ctrl Pts',(81.4003188842863,-7.00044505699128,-18.4122340040009));
#1365=CARTESIAN_POINT('Ctrl Pts',(81.8491178347992,-7.00044505699128,-18.4122340040009));
#1366=CARTESIAN_POINT('Ctrl Pts',(82.7433909386264,-7.20729248374059,-18.3998711967328));
#1367=CARTESIAN_POINT('Ctrl Pts',(84.1950902396454,-8.34754840492395,-18.3317206549954));
#1368=CARTESIAN_POINT('Ctrl Pts',(84.7482619563573,-10.7627238797819,-18.187371027912));
#1369=CARTESIAN_POINT('Ctrl Pts',(82.8907369593939,-13.0952201947786,-18.047962948976));
#1370=CARTESIAN_POINT('Ctrl Pts',(79.9103018655263,-13.0941003679662,-18.0480298785157));
#1371=CARTESIAN_POINT('Ctrl Pts',(78.050969706389,-10.763537535584,-18.1873223975276));
#1372=CARTESIAN_POINT('Ctrl Pts',(78.6066809639343,-8.34790385598831,-18.3316994104816));
#1373=CARTESIAN_POINT('Ctrl Pts',(80.0570826806002,-7.20728292030615,-18.3998717683178));
#1374=CARTESIAN_POINT('Ctrl Pts',(80.9515199337735,-7.00044505699128,-18.4122340040009));
#1375=CARTESIAN_POINT('Ctrl Pts',(81.4003188842863,-7.00044505699128,-18.4122340040009));
#1376=CARTESIAN_POINT('',(81.4003188842863,-6.52602626462538,-18.9115791770185));
#1377=CARTESIAN_POINT('Origin',(81.4003188842863,-6.50044505699128,-18.4122340040009));
#1378=CARTESIAN_POINT('Origin',(81.4003188842863,-10.0260262646254,-18.73227589833));
#1379=CARTESIAN_POINT('Origin',(81.400366610738,-97.39978904105,-9.));
#1380=CARTESIAN_POINT('',(78.400366610738,-97.39978904105,-9.));
#1381=CARTESIAN_POINT('Origin',(38.0999180216764,-53.7277903255471,-16.4934560181598));
#1382=UNCERTAINTY_MEASURE_WITH_UNIT(LENGTH_MEASURE(0.01),#1386,
'DISTANCE_ACCURACY_VALUE',
'Maximum model space distance between geometric entities at asserted c
onnectivities');
#1383=UNCERTAINTY_MEASURE_WITH_UNIT(LENGTH_MEASURE(0.01),#1386,
'DISTANCE_ACCURACY_VALUE',
'Maximum model space distance between geometric entities at asserted c
onnectivities');
#1384=(
GEOMETRIC_REPRESENTATION_CONTEXT(3)
GLOBAL_UNCERTAINTY_ASSIGNED_CONTEXT((#1382))
GLOBAL_UNIT_ASSIGNED_CONTEXT((#1386,#1388,#1389))
REPRESENTATION_CONTEXT('','3D')
);
#1385=(
GEOMETRIC_REPRESENTATION_CONTEXT(3)
GLOBAL_UNCERTAINTY_ASSIGNED_CONTEXT((#1383))
GLOBAL_UNIT_ASSIGNED_CONTEXT((#1386,#1388,#1389))
REPRESENTATION_CONTEXT('','3D')
);
#1386=(
LENGTH_UNIT()
NAMED_UNIT(*)
SI_UNIT(.MILLI.,.METRE.)
);
#1387=(
LENGTH_UNIT()
NAMED_UNIT(*)
SI_UNIT($,.METRE.)
);
#1388=(
NAMED_UNIT(*)
PLANE_ANGLE_UNIT()
SI_UNIT($,.RADIAN.)
);
#1389=(
NAMED_UNIT(*)
SI_UNIT($,.STERADIAN.)
SOLID_ANGLE_UNIT()
);
#1390=SHAPE_DEFINITION_REPRESENTATION(#1391,#1392);
#1391=PRODUCT_DEFINITION_SHAPE('',$,#1394);
#1392=SHAPE_REPRESENTATION('',(#605),#1384);
#1393=PRODUCT_DEFINITION_CONTEXT('part definition',#1398,'design');
#1394=PRODUCT_DEFINITION('2026-09-23-00-25-20-658','bottom',#1395,#1393);
#1395=PRODUCT_DEFINITION_FORMATION('',$,#1400);
#1396=PRODUCT_RELATED_PRODUCT_CATEGORY('bottom','bottom',(#1400));
#1397=APPLICATION_PROTOCOL_DEFINITION('international standard',
'automotive_design',2009,#1398);
#1398=APPLICATION_CONTEXT(
'Core Data for Automotive Mechanical Design Process');
#1399=PRODUCT_CONTEXT('part definition',#1398,'mechanical');
#1400=PRODUCT('2026-09-23-00-25-20-658','bottom',$,(#1399));
#1401=PRESENTATION_STYLE_ASSIGNMENT((#1402));
#1402=SURFACE_STYLE_USAGE(.BOTH.,#1403);
#1403=SURFACE_SIDE_STYLE('',(#1404));
#1404=SURFACE_STYLE_FILL_AREA(#1405);
#1405=FILL_AREA_STYLE('ABS (White)',(#1406));
#1406=FILL_AREA_STYLE_COLOUR('ABS (White)',#1407);
#1407=COLOUR_RGB('ABS (White)',0.964705882352941,0.964705882352941,0.952941176470588);
ENDSEC;
END-ISO-10303-21;
