ISO-10303-21;
HEADER;
/* Generated by software containing ST-Developer
 * from STEP Tools, Inc. (www.steptools.com) 
 */

FILE_DESCRIPTION(
/* description */ (''),
/* implementation_level */ '2;1');

FILE_NAME(
/* name */ 'middle.step',
/* time_stamp */ '2026-09-23T00:24:55-04:00',
/* author */ (''),
/* organization */ (''),
/* preprocessor_version */ 'ST-DEVELOPER v20.2',
/* originating_system */ 'Autodesk Translation Framework v15.15.0.0',
/* authorisation */ '');

FILE_SCHEMA (('AUTOMOTIVE_DESIGN { 1 0 10303 214 3 1 1 }'));
ENDSEC;

DATA;
#10=MECHANICAL_DESIGN_GEOMETRIC_PRESENTATION_REPRESENTATION('',(#13),#2141);
#11=SHAPE_REPRESENTATION_RELATIONSHIP('SRR','None',#2148,#12);
#12=ADVANCED_BREP_SHAPE_REPRESENTATION('',(#14),#2140);
#13=STYLED_ITEM('',(#2157),#14);
#14=MANIFOLD_SOLID_BREP('middle',#1233);
#15=TOROIDAL_SURFACE('',#1278,5.5,0.5);
#16=TOROIDAL_SURFACE('',#1283,5.5,0.5);
#17=TOROIDAL_SURFACE('',#1288,5.5,0.5);
#18=TOROIDAL_SURFACE('',#1293,5.5,0.5);
#19=TOROIDAL_SURFACE('',#1353,2.5,0.5);
#20=TOROIDAL_SURFACE('',#1358,2.5,0.5);
#21=TOROIDAL_SURFACE('',#1363,2.5,0.5);
#22=TOROIDAL_SURFACE('',#1368,2.5,0.5);
#23=FACE_BOUND('',#153,.T.);
#24=FACE_BOUND('',#156,.T.);
#25=FACE_BOUND('',#175,.T.);
#26=FACE_BOUND('',#176,.T.);
#27=FACE_BOUND('',#177,.T.);
#28=FACE_BOUND('',#178,.T.);
#29=FACE_BOUND('',#179,.T.);
#30=FACE_BOUND('',#186,.T.);
#31=FACE_BOUND('',#194,.T.);
#32=FACE_BOUND('',#216,.T.);
#33=FACE_BOUND('',#217,.T.);
#34=FACE_BOUND('',#218,.T.);
#35=FACE_BOUND('',#219,.T.);
#36=FACE_BOUND('',#220,.T.);
#37=FACE_BOUND('',#223,.T.);
#38=FACE_BOUND('',#224,.T.);
#39=FACE_BOUND('',#225,.T.);
#40=FACE_BOUND('',#226,.T.);
#41=FACE_BOUND('',#227,.T.);
#42=FACE_BOUND('',#228,.T.);
#43=FACE_BOUND('',#240,.T.);
#44=PLANE('',#1253);
#45=PLANE('',#1257);
#46=PLANE('',#1258);
#47=PLANE('',#1259);
#48=PLANE('',#1263);
#49=PLANE('',#1267);
#50=PLANE('',#1271);
#51=PLANE('',#1295);
#52=PLANE('',#1304);
#53=PLANE('',#1306);
#54=PLANE('',#1308);
#55=PLANE('',#1310);
#56=PLANE('',#1312);
#57=PLANE('',#1314);
#58=PLANE('',#1327);
#59=PLANE('',#1330);
#60=PLANE('',#1333);
#61=PLANE('',#1336);
#62=PLANE('',#1349);
#63=PLANE('',#1370);
#64=PLANE('',#1371);
#65=PLANE('',#1372);
#66=PLANE('',#1373);
#67=PLANE('',#1374);
#68=PLANE('',#1377);
#69=PLANE('',#1380);
#70=PLANE('',#1381);
#71=PLANE('',#1385);
#72=PLANE('',#1389);
#73=PLANE('',#1390);
#74=PLANE('',#1391);
#75=PLANE('',#1392);
#76=PLANE('',#1393);
#77=FACE_OUTER_BOUND('',#150,.T.);
#78=FACE_OUTER_BOUND('',#151,.T.);
#79=FACE_OUTER_BOUND('',#152,.T.);
#80=FACE_OUTER_BOUND('',#154,.T.);
#81=FACE_OUTER_BOUND('',#155,.T.);
#82=FACE_OUTER_BOUND('',#157,.T.);
#83=FACE_OUTER_BOUND('',#158,.T.);
#84=FACE_OUTER_BOUND('',#159,.T.);
#85=FACE_OUTER_BOUND('',#160,.T.);
#86=FACE_OUTER_BOUND('',#161,.T.);
#87=FACE_OUTER_BOUND('',#162,.T.);
#88=FACE_OUTER_BOUND('',#163,.T.);
#89=FACE_OUTER_BOUND('',#164,.T.);
#90=FACE_OUTER_BOUND('',#165,.T.);
#91=FACE_OUTER_BOUND('',#166,.T.);
#92=FACE_OUTER_BOUND('',#167,.T.);
#93=FACE_OUTER_BOUND('',#168,.T.);
#94=FACE_OUTER_BOUND('',#169,.T.);
#95=FACE_OUTER_BOUND('',#170,.T.);
#96=FACE_OUTER_BOUND('',#171,.T.);
#97=FACE_OUTER_BOUND('',#172,.T.);
#98=FACE_OUTER_BOUND('',#173,.T.);
#99=FACE_OUTER_BOUND('',#174,.T.);
#100=FACE_OUTER_BOUND('',#180,.T.);
#101=FACE_OUTER_BOUND('',#181,.T.);
#102=FACE_OUTER_BOUND('',#182,.T.);
#103=FACE_OUTER_BOUND('',#183,.T.);
#104=FACE_OUTER_BOUND('',#184,.T.);
#105=FACE_OUTER_BOUND('',#185,.T.);
#106=FACE_OUTER_BOUND('',#187,.T.);
#107=FACE_OUTER_BOUND('',#188,.T.);
#108=FACE_OUTER_BOUND('',#189,.T.);
#109=FACE_OUTER_BOUND('',#190,.T.);
#110=FACE_OUTER_BOUND('',#191,.T.);
#111=FACE_OUTER_BOUND('',#192,.T.);
#112=FACE_OUTER_BOUND('',#193,.T.);
#113=FACE_OUTER_BOUND('',#195,.T.);
#114=FACE_OUTER_BOUND('',#196,.T.);
#115=FACE_OUTER_BOUND('',#197,.T.);
#116=FACE_OUTER_BOUND('',#198,.T.);
#117=FACE_OUTER_BOUND('',#199,.T.);
#118=FACE_OUTER_BOUND('',#200,.T.);
#119=FACE_OUTER_BOUND('',#201,.T.);
#120=FACE_OUTER_BOUND('',#202,.T.);
#121=FACE_OUTER_BOUND('',#203,.T.);
#122=FACE_OUTER_BOUND('',#204,.T.);
#123=FACE_OUTER_BOUND('',#205,.T.);
#124=FACE_OUTER_BOUND('',#206,.T.);
#125=FACE_OUTER_BOUND('',#207,.T.);
#126=FACE_OUTER_BOUND('',#208,.T.);
#127=FACE_OUTER_BOUND('',#209,.T.);
#128=FACE_OUTER_BOUND('',#210,.T.);
#129=FACE_OUTER_BOUND('',#211,.T.);
#130=FACE_OUTER_BOUND('',#212,.T.);
#131=FACE_OUTER_BOUND('',#213,.T.);
#132=FACE_OUTER_BOUND('',#214,.T.);
#133=FACE_OUTER_BOUND('',#215,.T.);
#134=FACE_OUTER_BOUND('',#221,.T.);
#135=FACE_OUTER_BOUND('',#222,.T.);
#136=FACE_OUTER_BOUND('',#229,.T.);
#137=FACE_OUTER_BOUND('',#230,.T.);
#138=FACE_OUTER_BOUND('',#231,.T.);
#139=FACE_OUTER_BOUND('',#232,.T.);
#140=FACE_OUTER_BOUND('',#233,.T.);
#141=FACE_OUTER_BOUND('',#234,.T.);
#142=FACE_OUTER_BOUND('',#235,.T.);
#143=FACE_OUTER_BOUND('',#236,.T.);
#144=FACE_OUTER_BOUND('',#237,.T.);
#145=FACE_OUTER_BOUND('',#238,.T.);
#146=FACE_OUTER_BOUND('',#239,.T.);
#147=FACE_OUTER_BOUND('',#241,.T.);
#148=FACE_OUTER_BOUND('',#242,.T.);
#149=FACE_OUTER_BOUND('',#243,.T.);
#150=EDGE_LOOP('',(#788,#789,#790,#791));
#151=EDGE_LOOP('',(#792,#793,#794,#795));
#152=EDGE_LOOP('',(#796));
#153=EDGE_LOOP('',(#797));
#154=EDGE_LOOP('',(#798,#799,#800,#801));
#155=EDGE_LOOP('',(#802));
#156=EDGE_LOOP('',(#803));
#157=EDGE_LOOP('',(#804,#805,#806,#807));
#158=EDGE_LOOP('',(#808,#809,#810,#811));
#159=EDGE_LOOP('',(#812,#813,#814,#815));
#160=EDGE_LOOP('',(#816,#817,#818,#819));
#161=EDGE_LOOP('',(#820,#821,#822,#823));
#162=EDGE_LOOP('',(#824,#825,#826,#827));
#163=EDGE_LOOP('',(#828,#829,#830,#831));
#164=EDGE_LOOP('',(#832,#833,#834,#835));
#165=EDGE_LOOP('',(#836,#837,#838,#839));
#166=EDGE_LOOP('',(#840,#841,#842,#843));
#167=EDGE_LOOP('',(#844,#845,#846,#847));
#168=EDGE_LOOP('',(#848,#849,#850,#851));
#169=EDGE_LOOP('',(#852,#853,#854,#855));
#170=EDGE_LOOP('',(#856,#857,#858,#859));
#171=EDGE_LOOP('',(#860,#861,#862,#863));
#172=EDGE_LOOP('',(#864,#865,#866,#867));
#173=EDGE_LOOP('',(#868,#869,#870,#871));
#174=EDGE_LOOP('',(#872,#873,#874,#875,#876,#877,#878,#879));
#175=EDGE_LOOP('',(#880));
#176=EDGE_LOOP('',(#881));
#177=EDGE_LOOP('',(#882));
#178=EDGE_LOOP('',(#883));
#179=EDGE_LOOP('',(#884));
#180=EDGE_LOOP('',(#885));
#181=EDGE_LOOP('',(#886));
#182=EDGE_LOOP('',(#887));
#183=EDGE_LOOP('',(#888));
#184=EDGE_LOOP('',(#889));
#185=EDGE_LOOP('',(#890,#891,#892,#893,#894,#895,#896,#897));
#186=EDGE_LOOP('',(#898,#899,#900,#901,#902,#903,#904,#905));
#187=EDGE_LOOP('',(#906,#907,#908,#909));
#188=EDGE_LOOP('',(#910,#911,#912,#913));
#189=EDGE_LOOP('',(#914,#915,#916,#917));
#190=EDGE_LOOP('',(#918,#919,#920,#921));
#191=EDGE_LOOP('',(#922,#923,#924,#925));
#192=EDGE_LOOP('',(#926,#927,#928,#929));
#193=EDGE_LOOP('',(#930,#931,#932,#933));
#194=EDGE_LOOP('',(#934,#935,#936,#937,#938,#939,#940,#941));
#195=EDGE_LOOP('',(#942,#943,#944,#945));
#196=EDGE_LOOP('',(#946,#947,#948,#949));
#197=EDGE_LOOP('',(#950,#951,#952,#953));
#198=EDGE_LOOP('',(#954,#955,#956,#957));
#199=EDGE_LOOP('',(#958,#959,#960,#961));
#200=EDGE_LOOP('',(#962,#963,#964,#965));
#201=EDGE_LOOP('',(#966,#967,#968,#969));
#202=EDGE_LOOP('',(#970,#971,#972,#973));
#203=EDGE_LOOP('',(#974,#975,#976,#977));
#204=EDGE_LOOP('',(#978,#979,#980,#981));
#205=EDGE_LOOP('',(#982,#983,#984,#985));
#206=EDGE_LOOP('',(#986,#987,#988,#989));
#207=EDGE_LOOP('',(#990,#991,#992,#993));
#208=EDGE_LOOP('',(#994,#995,#996,#997));
#209=EDGE_LOOP('',(#998,#999,#1000,#1001));
#210=EDGE_LOOP('',(#1002,#1003,#1004,#1005));
#211=EDGE_LOOP('',(#1006,#1007,#1008,#1009));
#212=EDGE_LOOP('',(#1010,#1011,#1012,#1013));
#213=EDGE_LOOP('',(#1014,#1015,#1016,#1017));
#214=EDGE_LOOP('',(#1018,#1019,#1020,#1021));
#215=EDGE_LOOP('',(#1022,#1023,#1024,#1025,#1026,#1027,#1028,#1029));
#216=EDGE_LOOP('',(#1030,#1031,#1032,#1033));
#217=EDGE_LOOP('',(#1034));
#218=EDGE_LOOP('',(#1035));
#219=EDGE_LOOP('',(#1036));
#220=EDGE_LOOP('',(#1037));
#221=EDGE_LOOP('',(#1038,#1039,#1040,#1041));
#222=EDGE_LOOP('',(#1042,#1043,#1044,#1045));
#223=EDGE_LOOP('',(#1046));
#224=EDGE_LOOP('',(#1047));
#225=EDGE_LOOP('',(#1048));
#226=EDGE_LOOP('',(#1049));
#227=EDGE_LOOP('',(#1050));
#228=EDGE_LOOP('',(#1051));
#229=EDGE_LOOP('',(#1052,#1053,#1054,#1055));
#230=EDGE_LOOP('',(#1056,#1057,#1058,#1059));
#231=EDGE_LOOP('',(#1060,#1061,#1062,#1063));
#232=EDGE_LOOP('',(#1064,#1065,#1066,#1067));
#233=EDGE_LOOP('',(#1068,#1069,#1070,#1071));
#234=EDGE_LOOP('',(#1072,#1073,#1074,#1075));
#235=EDGE_LOOP('',(#1076,#1077,#1078,#1079,#1080,#1081));
#236=EDGE_LOOP('',(#1082,#1083,#1084,#1085));
#237=EDGE_LOOP('',(#1086,#1087,#1088,#1089,#1090,#1091));
#238=EDGE_LOOP('',(#1092,#1093,#1094,#1095));
#239=EDGE_LOOP('',(#1096,#1097,#1098,#1099));
#240=EDGE_LOOP('',(#1100,#1101,#1102,#1103,#1104,#1105,#1106,#1107,#1108,
#1109,#1110,#1111));
#241=EDGE_LOOP('',(#1112,#1113,#1114,#1115));
#242=EDGE_LOOP('',(#1116,#1117,#1118,#1119,#1120,#1121,#1122,#1123));
#243=EDGE_LOOP('',(#1124,#1125,#1126,#1127));
#244=LINE('',#1791,#340);
#245=LINE('',#1797,#341);
#246=LINE('',#1804,#342);
#247=LINE('',#1810,#343);
#248=LINE('',#1812,#344);
#249=LINE('',#1814,#345);
#250=LINE('',#1815,#346);
#251=LINE('',#1819,#347);
#252=LINE('',#1821,#348);
#253=LINE('',#1823,#349);
#254=LINE('',#1824,#350);
#255=LINE('',#1830,#351);
#256=LINE('',#1833,#352);
#257=LINE('',#1835,#353);
#258=LINE('',#1836,#354);
#259=LINE('',#1842,#355);
#260=LINE('',#1845,#356);
#261=LINE('',#1847,#357);
#262=LINE('',#1848,#358);
#263=LINE('',#1854,#359);
#264=LINE('',#1857,#360);
#265=LINE('',#1859,#361);
#266=LINE('',#1860,#362);
#267=LINE('',#1869,#363);
#268=LINE('',#1877,#364);
#269=LINE('',#1885,#365);
#270=LINE('',#1893,#366);
#271=LINE('',#1901,#367);
#272=LINE('',#1905,#368);
#273=LINE('',#1909,#369);
#274=LINE('',#1912,#370);
#275=LINE('',#1939,#371);
#276=LINE('',#1943,#372);
#277=LINE('',#1947,#373);
#278=LINE('',#1951,#374);
#279=LINE('',#1956,#375);
#280=LINE('',#1960,#376);
#281=LINE('',#1964,#377);
#282=LINE('',#1968,#378);
#283=LINE('',#1971,#379);
#284=LINE('',#1973,#380);
#285=LINE('',#1974,#381);
#286=LINE('',#1978,#382);
#287=LINE('',#1981,#383);
#288=LINE('',#1982,#384);
#289=LINE('',#1986,#385);
#290=LINE('',#1989,#386);
#291=LINE('',#1990,#387);
#292=LINE('',#1994,#388);
#293=LINE('',#1997,#389);
#294=LINE('',#1998,#390);
#295=LINE('',#2003,#391);
#296=LINE('',#2007,#392);
#297=LINE('',#2011,#393);
#298=LINE('',#2015,#394);
#299=LINE('',#2019,#395);
#300=LINE('',#2024,#396);
#301=LINE('',#2026,#397);
#302=LINE('',#2028,#398);
#303=LINE('',#2029,#399);
#304=LINE('',#2035,#400);
#305=LINE('',#2043,#401);
#306=LINE('',#2050,#402);
#307=LINE('',#2059,#403);
#308=LINE('',#2064,#404);
#309=LINE('',#2066,#405);
#310=LINE('',#2067,#406);
#311=LINE('',#2070,#407);
#312=LINE('',#2071,#408);
#313=LINE('',#2074,#409);
#314=LINE('',#2075,#410);
#315=LINE('',#2077,#411);
#316=LINE('',#2080,#412);
#317=LINE('',#2082,#413);
#318=LINE('',#2083,#414);
#319=LINE('',#2087,#415);
#320=LINE('',#2090,#416);
#321=LINE('',#2091,#417);
#322=LINE('',#2095,#418);
#323=LINE('',#2098,#419);
#324=LINE('',#2099,#420);
#325=LINE('',#2103,#421);
#326=LINE('',#2105,#422);
#327=LINE('',#2107,#423);
#328=LINE('',#2108,#424);
#329=LINE('',#2113,#425);
#330=LINE('',#2116,#426);
#331=LINE('',#2117,#427);
#332=LINE('',#2122,#428);
#333=LINE('',#2126,#429);
#334=LINE('',#2128,#430);
#335=LINE('',#2129,#431);
#336=LINE('',#2131,#432);
#337=LINE('',#2132,#433);
#338=LINE('',#2134,#434);
#339=LINE('',#2136,#435);
#340=VECTOR('',#1400,1.7);
#341=VECTOR('',#1407,2.35);
#342=VECTOR('',#1416,5.);
#343=VECTOR('',#1423,10.);
#344=VECTOR('',#1424,10.);
#345=VECTOR('',#1425,10.);
#346=VECTOR('',#1426,10.);
#347=VECTOR('',#1429,10.);
#348=VECTOR('',#1430,10.);
#349=VECTOR('',#1431,10.);
#350=VECTOR('',#1432,10.);
#351=VECTOR('',#1439,10.);
#352=VECTOR('',#1442,10.);
#353=VECTOR('',#1443,10.);
#354=VECTOR('',#1444,10.);
#355=VECTOR('',#1451,10.);
#356=VECTOR('',#1454,10.);
#357=VECTOR('',#1455,10.);
#358=VECTOR('',#1456,10.);
#359=VECTOR('',#1463,10.);
#360=VECTOR('',#1466,10.);
#361=VECTOR('',#1467,10.);
#362=VECTOR('',#1468,10.);
#363=VECTOR('',#1481,10.);
#364=VECTOR('',#1492,10.);
#365=VECTOR('',#1503,10.);
#366=VECTOR('',#1514,10.);
#367=VECTOR('',#1523,10.);
#368=VECTOR('',#1526,10.);
#369=VECTOR('',#1529,10.);
#370=VECTOR('',#1532,10.);
#371=VECTOR('',#1563,10.);
#372=VECTOR('',#1566,10.);
#373=VECTOR('',#1569,10.);
#374=VECTOR('',#1572,10.);
#375=VECTOR('',#1579,1.7);
#376=VECTOR('',#1584,1.7);
#377=VECTOR('',#1589,1.7);
#378=VECTOR('',#1594,1.7);
#379=VECTOR('',#1597,10.);
#380=VECTOR('',#1598,10.);
#381=VECTOR('',#1599,5.);
#382=VECTOR('',#1604,5.);
#383=VECTOR('',#1607,5.);
#384=VECTOR('',#1608,10.);
#385=VECTOR('',#1613,5.);
#386=VECTOR('',#1616,10.);
#387=VECTOR('',#1617,10.);
#388=VECTOR('',#1622,10.);
#389=VECTOR('',#1625,10.);
#390=VECTOR('',#1626,10.);
#391=VECTOR('',#1633,1.7);
#392=VECTOR('',#1638,1.7);
#393=VECTOR('',#1643,1.7);
#394=VECTOR('',#1648,1.7);
#395=VECTOR('',#1653,1.7);
#396=VECTOR('',#1658,10.);
#397=VECTOR('',#1659,10.);
#398=VECTOR('',#1660,10.);
#399=VECTOR('',#1661,10.);
#400=VECTOR('',#1668,10.);
#401=VECTOR('',#1679,10.);
#402=VECTOR('',#1688,10.);
#403=VECTOR('',#1701,10.);
#404=VECTOR('',#1708,10.);
#405=VECTOR('',#1709,10.);
#406=VECTOR('',#1710,10.);
#407=VECTOR('',#1713,10.);
#408=VECTOR('',#1714,10.);
#409=VECTOR('',#1717,10.);
#410=VECTOR('',#1718,10.);
#411=VECTOR('',#1721,10.);
#412=VECTOR('',#1724,10.);
#413=VECTOR('',#1725,10.);
#414=VECTOR('',#1726,10.);
#415=VECTOR('',#1731,10.);
#416=VECTOR('',#1734,10.);
#417=VECTOR('',#1735,10.);
#418=VECTOR('',#1740,10.);
#419=VECTOR('',#1743,10.);
#420=VECTOR('',#1744,10.);
#421=VECTOR('',#1747,10.);
#422=VECTOR('',#1748,10.);
#423=VECTOR('',#1749,10.);
#424=VECTOR('',#1750,10.);
#425=VECTOR('',#1757,10.);
#426=VECTOR('',#1760,10.);
#427=VECTOR('',#1761,10.);
#428=VECTOR('',#1766,10.);
#429=VECTOR('',#1771,10.);
#430=VECTOR('',#1772,10.);
#431=VECTOR('',#1773,10.);
#432=VECTOR('',#1776,10.);
#433=VECTOR('',#1777,10.);
#434=VECTOR('',#1780,10.);
#435=VECTOR('',#1783,10.);
#436=CIRCLE('',#1248,1.7);
#437=CIRCLE('',#1249,1.7);
#438=CIRCLE('',#1251,2.35);
#439=CIRCLE('',#1252,2.35);
#440=CIRCLE('',#1255,5.);
#441=CIRCLE('',#1256,5.);
#442=CIRCLE('',#1261,5.);
#443=CIRCLE('',#1262,5.);
#444=CIRCLE('',#1265,5.);
#445=CIRCLE('',#1266,5.);
#446=CIRCLE('',#1269,5.);
#447=CIRCLE('',#1270,5.);
#448=CIRCLE('',#1273,5.);
#449=CIRCLE('',#1274,5.);
#450=CIRCLE('',#1276,0.5);
#451=CIRCLE('',#1277,0.5);
#452=CIRCLE('',#1279,0.5);
#453=CIRCLE('',#1280,5.5);
#454=CIRCLE('',#1282,0.5);
#455=CIRCLE('',#1284,0.5);
#456=CIRCLE('',#1285,5.5);
#457=CIRCLE('',#1287,0.5);
#458=CIRCLE('',#1289,0.5);
#459=CIRCLE('',#1290,5.5);
#460=CIRCLE('',#1292,0.499999999999999);
#461=CIRCLE('',#1294,5.5);
#462=CIRCLE('',#1296,5.);
#463=CIRCLE('',#1297,5.);
#464=CIRCLE('',#1298,5.);
#465=CIRCLE('',#1299,5.);
#466=CIRCLE('',#1300,1.7);
#467=CIRCLE('',#1301,1.7);
#468=CIRCLE('',#1302,1.7);
#469=CIRCLE('',#1303,1.7);
#470=CIRCLE('',#1305,1.7);
#471=CIRCLE('',#1307,1.7);
#472=CIRCLE('',#1309,1.7);
#473=CIRCLE('',#1311,1.7);
#474=CIRCLE('',#1313,1.7);
#475=CIRCLE('',#1315,2.5);
#476=CIRCLE('',#1316,2.5);
#477=CIRCLE('',#1317,2.5);
#478=CIRCLE('',#1318,2.5);
#479=CIRCLE('',#1320,1.7);
#480=CIRCLE('',#1322,1.7);
#481=CIRCLE('',#1324,1.7);
#482=CIRCLE('',#1326,1.7);
#483=CIRCLE('',#1329,5.);
#484=CIRCLE('',#1332,5.);
#485=CIRCLE('',#1335,5.);
#486=CIRCLE('',#1338,5.);
#487=CIRCLE('',#1340,1.7);
#488=CIRCLE('',#1342,1.7);
#489=CIRCLE('',#1344,1.7);
#490=CIRCLE('',#1346,1.7);
#491=CIRCLE('',#1348,1.7);
#492=CIRCLE('',#1351,0.499999999999998);
#493=CIRCLE('',#1352,0.500000000000003);
#494=CIRCLE('',#1354,0.5);
#495=CIRCLE('',#1355,2.);
#496=CIRCLE('',#1357,0.5);
#497=CIRCLE('',#1359,2.);
#498=CIRCLE('',#1360,0.5);
#499=CIRCLE('',#1362,0.499999999999998);
#500=CIRCLE('',#1364,0.499999999999999);
#501=CIRCLE('',#1365,2.);
#502=CIRCLE('',#1367,0.5);
#503=CIRCLE('',#1369,2.);
#504=CIRCLE('',#1376,2.);
#505=CIRCLE('',#1379,2.);
#506=CIRCLE('',#1383,2.);
#507=CIRCLE('',#1384,2.);
#508=CIRCLE('',#1387,2.);
#509=CIRCLE('',#1388,2.);
#510=VERTEX_POINT('',#1788);
#511=VERTEX_POINT('',#1790);
#512=VERTEX_POINT('',#1794);
#513=VERTEX_POINT('',#1796);
#514=VERTEX_POINT('',#1801);
#515=VERTEX_POINT('',#1803);
#516=VERTEX_POINT('',#1808);
#517=VERTEX_POINT('',#1809);
#518=VERTEX_POINT('',#1811);
#519=VERTEX_POINT('',#1813);
#520=VERTEX_POINT('',#1817);
#521=VERTEX_POINT('',#1818);
#522=VERTEX_POINT('',#1820);
#523=VERTEX_POINT('',#1822);
#524=VERTEX_POINT('',#1826);
#525=VERTEX_POINT('',#1828);
#526=VERTEX_POINT('',#1832);
#527=VERTEX_POINT('',#1834);
#528=VERTEX_POINT('',#1838);
#529=VERTEX_POINT('',#1840);
#530=VERTEX_POINT('',#1844);
#531=VERTEX_POINT('',#1846);
#532=VERTEX_POINT('',#1850);
#533=VERTEX_POINT('',#1852);
#534=VERTEX_POINT('',#1856);
#535=VERTEX_POINT('',#1858);
#536=VERTEX_POINT('',#1865);
#537=VERTEX_POINT('',#1867);
#538=VERTEX_POINT('',#1871);
#539=VERTEX_POINT('',#1875);
#540=VERTEX_POINT('',#1879);
#541=VERTEX_POINT('',#1883);
#542=VERTEX_POINT('',#1887);
#543=VERTEX_POINT('',#1891);
#544=VERTEX_POINT('',#1897);
#545=VERTEX_POINT('',#1898);
#546=VERTEX_POINT('',#1900);
#547=VERTEX_POINT('',#1902);
#548=VERTEX_POINT('',#1904);
#549=VERTEX_POINT('',#1906);
#550=VERTEX_POINT('',#1908);
#551=VERTEX_POINT('',#1910);
#552=VERTEX_POINT('',#1913);
#553=VERTEX_POINT('',#1915);
#554=VERTEX_POINT('',#1917);
#555=VERTEX_POINT('',#1919);
#556=VERTEX_POINT('',#1922);
#557=VERTEX_POINT('',#1925);
#558=VERTEX_POINT('',#1928);
#559=VERTEX_POINT('',#1931);
#560=VERTEX_POINT('',#1934);
#561=VERTEX_POINT('',#1937);
#562=VERTEX_POINT('',#1938);
#563=VERTEX_POINT('',#1940);
#564=VERTEX_POINT('',#1942);
#565=VERTEX_POINT('',#1944);
#566=VERTEX_POINT('',#1946);
#567=VERTEX_POINT('',#1948);
#568=VERTEX_POINT('',#1950);
#569=VERTEX_POINT('',#1954);
#570=VERTEX_POINT('',#1958);
#571=VERTEX_POINT('',#1962);
#572=VERTEX_POINT('',#1966);
#573=VERTEX_POINT('',#1970);
#574=VERTEX_POINT('',#1972);
#575=VERTEX_POINT('',#1976);
#576=VERTEX_POINT('',#1980);
#577=VERTEX_POINT('',#1984);
#578=VERTEX_POINT('',#1988);
#579=VERTEX_POINT('',#1992);
#580=VERTEX_POINT('',#1996);
#581=VERTEX_POINT('',#2002);
#582=VERTEX_POINT('',#2006);
#583=VERTEX_POINT('',#2010);
#584=VERTEX_POINT('',#2014);
#585=VERTEX_POINT('',#2018);
#586=VERTEX_POINT('',#2022);
#587=VERTEX_POINT('',#2023);
#588=VERTEX_POINT('',#2025);
#589=VERTEX_POINT('',#2027);
#590=VERTEX_POINT('',#2031);
#591=VERTEX_POINT('',#2033);
#592=VERTEX_POINT('',#2037);
#593=VERTEX_POINT('',#2041);
#594=VERTEX_POINT('',#2045);
#595=VERTEX_POINT('',#2049);
#596=VERTEX_POINT('',#2053);
#597=VERTEX_POINT('',#2057);
#598=VERTEX_POINT('',#2063);
#599=VERTEX_POINT('',#2065);
#600=VERTEX_POINT('',#2069);
#601=VERTEX_POINT('',#2073);
#602=VERTEX_POINT('',#2079);
#603=VERTEX_POINT('',#2081);
#604=VERTEX_POINT('',#2085);
#605=VERTEX_POINT('',#2089);
#606=VERTEX_POINT('',#2093);
#607=VERTEX_POINT('',#2097);
#608=VERTEX_POINT('',#2101);
#609=VERTEX_POINT('',#2102);
#610=VERTEX_POINT('',#2104);
#611=VERTEX_POINT('',#2106);
#612=VERTEX_POINT('',#2111);
#613=VERTEX_POINT('',#2115);
#614=VERTEX_POINT('',#2119);
#615=VERTEX_POINT('',#2121);
#616=VERTEX_POINT('',#2125);
#617=VERTEX_POINT('',#2127);
#618=EDGE_CURVE('',#510,#510,#436,.T.);
#619=EDGE_CURVE('',#510,#511,#244,.T.);
#620=EDGE_CURVE('',#511,#511,#437,.T.);
#621=EDGE_CURVE('',#512,#512,#438,.T.);
#622=EDGE_CURVE('',#512,#513,#245,.T.);
#623=EDGE_CURVE('',#513,#513,#439,.T.);
#624=EDGE_CURVE('',#514,#514,#440,.T.);
#625=EDGE_CURVE('',#514,#515,#246,.T.);
#626=EDGE_CURVE('',#515,#515,#441,.T.);
#627=EDGE_CURVE('',#516,#517,#247,.F.);
#628=EDGE_CURVE('',#518,#517,#248,.T.);
#629=EDGE_CURVE('',#518,#519,#249,.F.);
#630=EDGE_CURVE('',#519,#516,#250,.T.);
#631=EDGE_CURVE('',#520,#521,#251,.T.);
#632=EDGE_CURVE('',#522,#520,#252,.T.);
#633=EDGE_CURVE('',#522,#523,#253,.T.);
#634=EDGE_CURVE('',#521,#523,#254,.T.);
#635=EDGE_CURVE('',#521,#524,#442,.T.);
#636=EDGE_CURVE('',#525,#523,#443,.T.);
#637=EDGE_CURVE('',#525,#524,#255,.T.);
#638=EDGE_CURVE('',#524,#526,#256,.T.);
#639=EDGE_CURVE('',#525,#527,#257,.T.);
#640=EDGE_CURVE('',#526,#527,#258,.T.);
#641=EDGE_CURVE('',#526,#528,#444,.T.);
#642=EDGE_CURVE('',#529,#527,#445,.T.);
#643=EDGE_CURVE('',#529,#528,#259,.T.);
#644=EDGE_CURVE('',#528,#530,#260,.T.);
#645=EDGE_CURVE('',#529,#531,#261,.T.);
#646=EDGE_CURVE('',#530,#531,#262,.T.);
#647=EDGE_CURVE('',#530,#532,#446,.T.);
#648=EDGE_CURVE('',#533,#531,#447,.T.);
#649=EDGE_CURVE('',#533,#532,#263,.T.);
#650=EDGE_CURVE('',#532,#534,#264,.T.);
#651=EDGE_CURVE('',#533,#535,#265,.T.);
#652=EDGE_CURVE('',#534,#535,#266,.T.);
#653=EDGE_CURVE('',#534,#520,#448,.T.);
#654=EDGE_CURVE('',#522,#535,#449,.T.);
#655=EDGE_CURVE('',#536,#532,#450,.T.);
#656=EDGE_CURVE('',#537,#534,#451,.T.);
#657=EDGE_CURVE('',#537,#536,#267,.T.);
#658=EDGE_CURVE('',#538,#530,#452,.T.);
#659=EDGE_CURVE('',#536,#538,#453,.T.);
#660=EDGE_CURVE('',#539,#528,#454,.T.);
#661=EDGE_CURVE('',#538,#539,#268,.T.);
#662=EDGE_CURVE('',#540,#526,#455,.T.);
#663=EDGE_CURVE('',#539,#540,#456,.T.);
#664=EDGE_CURVE('',#541,#524,#457,.T.);
#665=EDGE_CURVE('',#540,#541,#269,.T.);
#666=EDGE_CURVE('',#542,#521,#458,.T.);
#667=EDGE_CURVE('',#541,#542,#459,.T.);
#668=EDGE_CURVE('',#520,#543,#460,.T.);
#669=EDGE_CURVE('',#542,#543,#270,.T.);
#670=EDGE_CURVE('',#543,#537,#461,.T.);
#671=EDGE_CURVE('',#544,#545,#462,.T.);
#672=EDGE_CURVE('',#544,#546,#271,.T.);
#673=EDGE_CURVE('',#547,#546,#463,.T.);
#674=EDGE_CURVE('',#547,#548,#272,.T.);
#675=EDGE_CURVE('',#549,#548,#464,.T.);
#676=EDGE_CURVE('',#549,#550,#273,.T.);
#677=EDGE_CURVE('',#551,#550,#465,.T.);
#678=EDGE_CURVE('',#551,#545,#274,.T.);
#679=EDGE_CURVE('',#552,#552,#466,.T.);
#680=EDGE_CURVE('',#553,#553,#467,.T.);
#681=EDGE_CURVE('',#554,#554,#468,.T.);
#682=EDGE_CURVE('',#555,#555,#469,.T.);
#683=EDGE_CURVE('',#556,#556,#470,.T.);
#684=EDGE_CURVE('',#557,#557,#471,.T.);
#685=EDGE_CURVE('',#558,#558,#472,.T.);
#686=EDGE_CURVE('',#559,#559,#473,.T.);
#687=EDGE_CURVE('',#560,#560,#474,.T.);
#688=EDGE_CURVE('',#561,#562,#275,.T.);
#689=EDGE_CURVE('',#563,#561,#475,.T.);
#690=EDGE_CURVE('',#564,#563,#276,.T.);
#691=EDGE_CURVE('',#565,#564,#476,.T.);
#692=EDGE_CURVE('',#566,#565,#277,.T.);
#693=EDGE_CURVE('',#567,#566,#477,.T.);
#694=EDGE_CURVE('',#568,#567,#278,.T.);
#695=EDGE_CURVE('',#562,#568,#478,.T.);
#696=EDGE_CURVE('',#569,#569,#479,.T.);
#697=EDGE_CURVE('',#569,#555,#279,.T.);
#698=EDGE_CURVE('',#570,#570,#480,.T.);
#699=EDGE_CURVE('',#570,#554,#280,.T.);
#700=EDGE_CURVE('',#571,#571,#481,.T.);
#701=EDGE_CURVE('',#571,#553,#281,.T.);
#702=EDGE_CURVE('',#572,#572,#482,.T.);
#703=EDGE_CURVE('',#572,#552,#282,.T.);
#704=EDGE_CURVE('',#573,#544,#283,.T.);
#705=EDGE_CURVE('',#573,#574,#284,.T.);
#706=EDGE_CURVE('',#546,#574,#285,.T.);
#707=EDGE_CURVE('',#574,#575,#483,.T.);
#708=EDGE_CURVE('',#575,#547,#286,.T.);
#709=EDGE_CURVE('',#548,#576,#287,.T.);
#710=EDGE_CURVE('',#576,#575,#288,.T.);
#711=EDGE_CURVE('',#576,#577,#484,.T.);
#712=EDGE_CURVE('',#577,#549,#289,.T.);
#713=EDGE_CURVE('',#550,#578,#290,.T.);
#714=EDGE_CURVE('',#577,#578,#291,.T.);
#715=EDGE_CURVE('',#578,#579,#485,.T.);
#716=EDGE_CURVE('',#579,#551,#292,.T.);
#717=EDGE_CURVE('',#545,#580,#293,.T.);
#718=EDGE_CURVE('',#579,#580,#294,.T.);
#719=EDGE_CURVE('',#580,#573,#486,.T.);
#720=EDGE_CURVE('',#556,#581,#295,.T.);
#721=EDGE_CURVE('',#581,#581,#487,.T.);
#722=EDGE_CURVE('',#557,#582,#296,.T.);
#723=EDGE_CURVE('',#582,#582,#488,.T.);
#724=EDGE_CURVE('',#558,#583,#297,.T.);
#725=EDGE_CURVE('',#583,#583,#489,.T.);
#726=EDGE_CURVE('',#559,#584,#298,.T.);
#727=EDGE_CURVE('',#584,#584,#490,.T.);
#728=EDGE_CURVE('',#560,#585,#299,.T.);
#729=EDGE_CURVE('',#585,#585,#491,.T.);
#730=EDGE_CURVE('',#586,#587,#300,.T.);
#731=EDGE_CURVE('',#586,#588,#301,.T.);
#732=EDGE_CURVE('',#589,#588,#302,.T.);
#733=EDGE_CURVE('',#587,#589,#303,.T.);
#734=EDGE_CURVE('',#590,#566,#492,.T.);
#735=EDGE_CURVE('',#591,#565,#493,.T.);
#736=EDGE_CURVE('',#591,#590,#304,.T.);
#737=EDGE_CURVE('',#592,#567,#494,.T.);
#738=EDGE_CURVE('',#590,#592,#495,.T.);
#739=EDGE_CURVE('',#593,#568,#496,.T.);
#740=EDGE_CURVE('',#592,#593,#305,.T.);
#741=EDGE_CURVE('',#593,#594,#497,.T.);
#742=EDGE_CURVE('',#562,#594,#498,.T.);
#743=EDGE_CURVE('',#594,#595,#306,.T.);
#744=EDGE_CURVE('',#595,#561,#499,.T.);
#745=EDGE_CURVE('',#596,#563,#500,.T.);
#746=EDGE_CURVE('',#595,#596,#501,.T.);
#747=EDGE_CURVE('',#597,#564,#502,.T.);
#748=EDGE_CURVE('',#596,#597,#307,.T.);
#749=EDGE_CURVE('',#597,#591,#503,.T.);
#750=EDGE_CURVE('',#588,#598,#308,.T.);
#751=EDGE_CURVE('',#599,#586,#309,.T.);
#752=EDGE_CURVE('',#599,#598,#310,.T.);
#753=EDGE_CURVE('',#598,#600,#311,.T.);
#754=EDGE_CURVE('',#600,#589,#312,.T.);
#755=EDGE_CURVE('',#587,#601,#313,.T.);
#756=EDGE_CURVE('',#601,#600,#314,.T.);
#757=EDGE_CURVE('',#601,#599,#315,.T.);
#758=EDGE_CURVE('',#602,#591,#316,.T.);
#759=EDGE_CURVE('',#603,#602,#317,.T.);
#760=EDGE_CURVE('',#590,#603,#318,.T.);
#761=EDGE_CURVE('',#603,#604,#504,.T.);
#762=EDGE_CURVE('',#604,#592,#319,.T.);
#763=EDGE_CURVE('',#605,#604,#320,.T.);
#764=EDGE_CURVE('',#593,#605,#321,.T.);
#765=EDGE_CURVE('',#605,#606,#505,.T.);
#766=EDGE_CURVE('',#606,#594,#322,.T.);
#767=EDGE_CURVE('',#607,#606,#323,.T.);
#768=EDGE_CURVE('',#595,#607,#324,.T.);
#769=EDGE_CURVE('',#608,#609,#325,.T.);
#770=EDGE_CURVE('',#610,#608,#326,.T.);
#771=EDGE_CURVE('',#611,#610,#327,.T.);
#772=EDGE_CURVE('',#611,#609,#328,.F.);
#773=EDGE_CURVE('',#607,#609,#506,.T.);
#774=EDGE_CURVE('',#611,#612,#507,.T.);
#775=EDGE_CURVE('',#612,#596,#329,.T.);
#776=EDGE_CURVE('',#613,#612,#330,.T.);
#777=EDGE_CURVE('',#597,#613,#331,.T.);
#778=EDGE_CURVE('',#614,#613,#508,.F.);
#779=EDGE_CURVE('',#614,#615,#332,.T.);
#780=EDGE_CURVE('',#602,#615,#509,.F.);
#781=EDGE_CURVE('',#616,#614,#333,.T.);
#782=EDGE_CURVE('',#616,#617,#334,.T.);
#783=EDGE_CURVE('',#615,#617,#335,.T.);
#784=EDGE_CURVE('',#519,#608,#336,.T.);
#785=EDGE_CURVE('',#617,#516,#337,.T.);
#786=EDGE_CURVE('',#610,#518,#338,.T.);
#787=EDGE_CURVE('',#517,#616,#339,.T.);
#788=ORIENTED_EDGE('',*,*,#618,.F.);
#789=ORIENTED_EDGE('',*,*,#619,.T.);
#790=ORIENTED_EDGE('',*,*,#620,.F.);
#791=ORIENTED_EDGE('',*,*,#619,.F.);
#792=ORIENTED_EDGE('',*,*,#621,.F.);
#793=ORIENTED_EDGE('',*,*,#622,.T.);
#794=ORIENTED_EDGE('',*,*,#623,.T.);
#795=ORIENTED_EDGE('',*,*,#622,.F.);
#796=ORIENTED_EDGE('',*,*,#623,.F.);
#797=ORIENTED_EDGE('',*,*,#618,.T.);
#798=ORIENTED_EDGE('',*,*,#624,.F.);
#799=ORIENTED_EDGE('',*,*,#625,.T.);
#800=ORIENTED_EDGE('',*,*,#626,.F.);
#801=ORIENTED_EDGE('',*,*,#625,.F.);
#802=ORIENTED_EDGE('',*,*,#626,.T.);
#803=ORIENTED_EDGE('',*,*,#621,.T.);
#804=ORIENTED_EDGE('',*,*,#627,.T.);
#805=ORIENTED_EDGE('',*,*,#628,.F.);
#806=ORIENTED_EDGE('',*,*,#629,.T.);
#807=ORIENTED_EDGE('',*,*,#630,.T.);
#808=ORIENTED_EDGE('',*,*,#631,.F.);
#809=ORIENTED_EDGE('',*,*,#632,.F.);
#810=ORIENTED_EDGE('',*,*,#633,.T.);
#811=ORIENTED_EDGE('',*,*,#634,.F.);
#812=ORIENTED_EDGE('',*,*,#635,.F.);
#813=ORIENTED_EDGE('',*,*,#634,.T.);
#814=ORIENTED_EDGE('',*,*,#636,.F.);
#815=ORIENTED_EDGE('',*,*,#637,.T.);
#816=ORIENTED_EDGE('',*,*,#638,.F.);
#817=ORIENTED_EDGE('',*,*,#637,.F.);
#818=ORIENTED_EDGE('',*,*,#639,.T.);
#819=ORIENTED_EDGE('',*,*,#640,.F.);
#820=ORIENTED_EDGE('',*,*,#641,.F.);
#821=ORIENTED_EDGE('',*,*,#640,.T.);
#822=ORIENTED_EDGE('',*,*,#642,.F.);
#823=ORIENTED_EDGE('',*,*,#643,.T.);
#824=ORIENTED_EDGE('',*,*,#644,.F.);
#825=ORIENTED_EDGE('',*,*,#643,.F.);
#826=ORIENTED_EDGE('',*,*,#645,.T.);
#827=ORIENTED_EDGE('',*,*,#646,.F.);
#828=ORIENTED_EDGE('',*,*,#647,.F.);
#829=ORIENTED_EDGE('',*,*,#646,.T.);
#830=ORIENTED_EDGE('',*,*,#648,.F.);
#831=ORIENTED_EDGE('',*,*,#649,.T.);
#832=ORIENTED_EDGE('',*,*,#650,.F.);
#833=ORIENTED_EDGE('',*,*,#649,.F.);
#834=ORIENTED_EDGE('',*,*,#651,.T.);
#835=ORIENTED_EDGE('',*,*,#652,.F.);
#836=ORIENTED_EDGE('',*,*,#653,.F.);
#837=ORIENTED_EDGE('',*,*,#652,.T.);
#838=ORIENTED_EDGE('',*,*,#654,.F.);
#839=ORIENTED_EDGE('',*,*,#632,.T.);
#840=ORIENTED_EDGE('',*,*,#655,.T.);
#841=ORIENTED_EDGE('',*,*,#650,.T.);
#842=ORIENTED_EDGE('',*,*,#656,.F.);
#843=ORIENTED_EDGE('',*,*,#657,.T.);
#844=ORIENTED_EDGE('',*,*,#658,.T.);
#845=ORIENTED_EDGE('',*,*,#647,.T.);
#846=ORIENTED_EDGE('',*,*,#655,.F.);
#847=ORIENTED_EDGE('',*,*,#659,.T.);
#848=ORIENTED_EDGE('',*,*,#660,.T.);
#849=ORIENTED_EDGE('',*,*,#644,.T.);
#850=ORIENTED_EDGE('',*,*,#658,.F.);
#851=ORIENTED_EDGE('',*,*,#661,.T.);
#852=ORIENTED_EDGE('',*,*,#662,.T.);
#853=ORIENTED_EDGE('',*,*,#641,.T.);
#854=ORIENTED_EDGE('',*,*,#660,.F.);
#855=ORIENTED_EDGE('',*,*,#663,.T.);
#856=ORIENTED_EDGE('',*,*,#664,.T.);
#857=ORIENTED_EDGE('',*,*,#638,.T.);
#858=ORIENTED_EDGE('',*,*,#662,.F.);
#859=ORIENTED_EDGE('',*,*,#665,.T.);
#860=ORIENTED_EDGE('',*,*,#666,.T.);
#861=ORIENTED_EDGE('',*,*,#635,.T.);
#862=ORIENTED_EDGE('',*,*,#664,.F.);
#863=ORIENTED_EDGE('',*,*,#667,.T.);
#864=ORIENTED_EDGE('',*,*,#668,.F.);
#865=ORIENTED_EDGE('',*,*,#631,.T.);
#866=ORIENTED_EDGE('',*,*,#666,.F.);
#867=ORIENTED_EDGE('',*,*,#669,.T.);
#868=ORIENTED_EDGE('',*,*,#668,.T.);
#869=ORIENTED_EDGE('',*,*,#670,.T.);
#870=ORIENTED_EDGE('',*,*,#656,.T.);
#871=ORIENTED_EDGE('',*,*,#653,.T.);
#872=ORIENTED_EDGE('',*,*,#671,.F.);
#873=ORIENTED_EDGE('',*,*,#672,.T.);
#874=ORIENTED_EDGE('',*,*,#673,.F.);
#875=ORIENTED_EDGE('',*,*,#674,.T.);
#876=ORIENTED_EDGE('',*,*,#675,.F.);
#877=ORIENTED_EDGE('',*,*,#676,.T.);
#878=ORIENTED_EDGE('',*,*,#677,.F.);
#879=ORIENTED_EDGE('',*,*,#678,.T.);
#880=ORIENTED_EDGE('',*,*,#620,.T.);
#881=ORIENTED_EDGE('',*,*,#679,.T.);
#882=ORIENTED_EDGE('',*,*,#680,.T.);
#883=ORIENTED_EDGE('',*,*,#681,.T.);
#884=ORIENTED_EDGE('',*,*,#682,.T.);
#885=ORIENTED_EDGE('',*,*,#683,.T.);
#886=ORIENTED_EDGE('',*,*,#684,.T.);
#887=ORIENTED_EDGE('',*,*,#685,.T.);
#888=ORIENTED_EDGE('',*,*,#686,.T.);
#889=ORIENTED_EDGE('',*,*,#687,.T.);
#890=ORIENTED_EDGE('',*,*,#654,.T.);
#891=ORIENTED_EDGE('',*,*,#651,.F.);
#892=ORIENTED_EDGE('',*,*,#648,.T.);
#893=ORIENTED_EDGE('',*,*,#645,.F.);
#894=ORIENTED_EDGE('',*,*,#642,.T.);
#895=ORIENTED_EDGE('',*,*,#639,.F.);
#896=ORIENTED_EDGE('',*,*,#636,.T.);
#897=ORIENTED_EDGE('',*,*,#633,.F.);
#898=ORIENTED_EDGE('',*,*,#688,.F.);
#899=ORIENTED_EDGE('',*,*,#689,.F.);
#900=ORIENTED_EDGE('',*,*,#690,.F.);
#901=ORIENTED_EDGE('',*,*,#691,.F.);
#902=ORIENTED_EDGE('',*,*,#692,.F.);
#903=ORIENTED_EDGE('',*,*,#693,.F.);
#904=ORIENTED_EDGE('',*,*,#694,.F.);
#905=ORIENTED_EDGE('',*,*,#695,.F.);
#906=ORIENTED_EDGE('',*,*,#696,.F.);
#907=ORIENTED_EDGE('',*,*,#697,.T.);
#908=ORIENTED_EDGE('',*,*,#682,.F.);
#909=ORIENTED_EDGE('',*,*,#697,.F.);
#910=ORIENTED_EDGE('',*,*,#698,.F.);
#911=ORIENTED_EDGE('',*,*,#699,.T.);
#912=ORIENTED_EDGE('',*,*,#681,.F.);
#913=ORIENTED_EDGE('',*,*,#699,.F.);
#914=ORIENTED_EDGE('',*,*,#700,.F.);
#915=ORIENTED_EDGE('',*,*,#701,.T.);
#916=ORIENTED_EDGE('',*,*,#680,.F.);
#917=ORIENTED_EDGE('',*,*,#701,.F.);
#918=ORIENTED_EDGE('',*,*,#702,.F.);
#919=ORIENTED_EDGE('',*,*,#703,.T.);
#920=ORIENTED_EDGE('',*,*,#679,.F.);
#921=ORIENTED_EDGE('',*,*,#703,.F.);
#922=ORIENTED_EDGE('',*,*,#704,.F.);
#923=ORIENTED_EDGE('',*,*,#705,.T.);
#924=ORIENTED_EDGE('',*,*,#706,.F.);
#925=ORIENTED_EDGE('',*,*,#672,.F.);
#926=ORIENTED_EDGE('',*,*,#707,.T.);
#927=ORIENTED_EDGE('',*,*,#708,.T.);
#928=ORIENTED_EDGE('',*,*,#673,.T.);
#929=ORIENTED_EDGE('',*,*,#706,.T.);
#930=ORIENTED_EDGE('',*,*,#709,.F.);
#931=ORIENTED_EDGE('',*,*,#674,.F.);
#932=ORIENTED_EDGE('',*,*,#708,.F.);
#933=ORIENTED_EDGE('',*,*,#710,.F.);
#934=ORIENTED_EDGE('',*,*,#670,.F.);
#935=ORIENTED_EDGE('',*,*,#669,.F.);
#936=ORIENTED_EDGE('',*,*,#667,.F.);
#937=ORIENTED_EDGE('',*,*,#665,.F.);
#938=ORIENTED_EDGE('',*,*,#663,.F.);
#939=ORIENTED_EDGE('',*,*,#661,.F.);
#940=ORIENTED_EDGE('',*,*,#659,.F.);
#941=ORIENTED_EDGE('',*,*,#657,.F.);
#942=ORIENTED_EDGE('',*,*,#675,.T.);
#943=ORIENTED_EDGE('',*,*,#709,.T.);
#944=ORIENTED_EDGE('',*,*,#711,.T.);
#945=ORIENTED_EDGE('',*,*,#712,.T.);
#946=ORIENTED_EDGE('',*,*,#713,.F.);
#947=ORIENTED_EDGE('',*,*,#676,.F.);
#948=ORIENTED_EDGE('',*,*,#712,.F.);
#949=ORIENTED_EDGE('',*,*,#714,.T.);
#950=ORIENTED_EDGE('',*,*,#677,.T.);
#951=ORIENTED_EDGE('',*,*,#713,.T.);
#952=ORIENTED_EDGE('',*,*,#715,.T.);
#953=ORIENTED_EDGE('',*,*,#716,.T.);
#954=ORIENTED_EDGE('',*,*,#717,.F.);
#955=ORIENTED_EDGE('',*,*,#678,.F.);
#956=ORIENTED_EDGE('',*,*,#716,.F.);
#957=ORIENTED_EDGE('',*,*,#718,.T.);
#958=ORIENTED_EDGE('',*,*,#671,.T.);
#959=ORIENTED_EDGE('',*,*,#717,.T.);
#960=ORIENTED_EDGE('',*,*,#719,.T.);
#961=ORIENTED_EDGE('',*,*,#704,.T.);
#962=ORIENTED_EDGE('',*,*,#683,.F.);
#963=ORIENTED_EDGE('',*,*,#720,.T.);
#964=ORIENTED_EDGE('',*,*,#721,.F.);
#965=ORIENTED_EDGE('',*,*,#720,.F.);
#966=ORIENTED_EDGE('',*,*,#684,.F.);
#967=ORIENTED_EDGE('',*,*,#722,.T.);
#968=ORIENTED_EDGE('',*,*,#723,.F.);
#969=ORIENTED_EDGE('',*,*,#722,.F.);
#970=ORIENTED_EDGE('',*,*,#685,.F.);
#971=ORIENTED_EDGE('',*,*,#724,.T.);
#972=ORIENTED_EDGE('',*,*,#725,.F.);
#973=ORIENTED_EDGE('',*,*,#724,.F.);
#974=ORIENTED_EDGE('',*,*,#686,.F.);
#975=ORIENTED_EDGE('',*,*,#726,.T.);
#976=ORIENTED_EDGE('',*,*,#727,.F.);
#977=ORIENTED_EDGE('',*,*,#726,.F.);
#978=ORIENTED_EDGE('',*,*,#687,.F.);
#979=ORIENTED_EDGE('',*,*,#728,.T.);
#980=ORIENTED_EDGE('',*,*,#729,.F.);
#981=ORIENTED_EDGE('',*,*,#728,.F.);
#982=ORIENTED_EDGE('',*,*,#730,.F.);
#983=ORIENTED_EDGE('',*,*,#731,.T.);
#984=ORIENTED_EDGE('',*,*,#732,.F.);
#985=ORIENTED_EDGE('',*,*,#733,.F.);
#986=ORIENTED_EDGE('',*,*,#734,.T.);
#987=ORIENTED_EDGE('',*,*,#692,.T.);
#988=ORIENTED_EDGE('',*,*,#735,.F.);
#989=ORIENTED_EDGE('',*,*,#736,.T.);
#990=ORIENTED_EDGE('',*,*,#737,.T.);
#991=ORIENTED_EDGE('',*,*,#693,.T.);
#992=ORIENTED_EDGE('',*,*,#734,.F.);
#993=ORIENTED_EDGE('',*,*,#738,.T.);
#994=ORIENTED_EDGE('',*,*,#739,.T.);
#995=ORIENTED_EDGE('',*,*,#694,.T.);
#996=ORIENTED_EDGE('',*,*,#737,.F.);
#997=ORIENTED_EDGE('',*,*,#740,.T.);
#998=ORIENTED_EDGE('',*,*,#739,.F.);
#999=ORIENTED_EDGE('',*,*,#741,.T.);
#1000=ORIENTED_EDGE('',*,*,#742,.F.);
#1001=ORIENTED_EDGE('',*,*,#695,.T.);
#1002=ORIENTED_EDGE('',*,*,#742,.T.);
#1003=ORIENTED_EDGE('',*,*,#743,.T.);
#1004=ORIENTED_EDGE('',*,*,#744,.T.);
#1005=ORIENTED_EDGE('',*,*,#688,.T.);
#1006=ORIENTED_EDGE('',*,*,#745,.T.);
#1007=ORIENTED_EDGE('',*,*,#689,.T.);
#1008=ORIENTED_EDGE('',*,*,#744,.F.);
#1009=ORIENTED_EDGE('',*,*,#746,.T.);
#1010=ORIENTED_EDGE('',*,*,#747,.T.);
#1011=ORIENTED_EDGE('',*,*,#690,.T.);
#1012=ORIENTED_EDGE('',*,*,#745,.F.);
#1013=ORIENTED_EDGE('',*,*,#748,.T.);
#1014=ORIENTED_EDGE('',*,*,#735,.T.);
#1015=ORIENTED_EDGE('',*,*,#691,.T.);
#1016=ORIENTED_EDGE('',*,*,#747,.F.);
#1017=ORIENTED_EDGE('',*,*,#749,.T.);
#1018=ORIENTED_EDGE('',*,*,#750,.F.);
#1019=ORIENTED_EDGE('',*,*,#731,.F.);
#1020=ORIENTED_EDGE('',*,*,#751,.F.);
#1021=ORIENTED_EDGE('',*,*,#752,.T.);
#1022=ORIENTED_EDGE('',*,*,#719,.F.);
#1023=ORIENTED_EDGE('',*,*,#718,.F.);
#1024=ORIENTED_EDGE('',*,*,#715,.F.);
#1025=ORIENTED_EDGE('',*,*,#714,.F.);
#1026=ORIENTED_EDGE('',*,*,#711,.F.);
#1027=ORIENTED_EDGE('',*,*,#710,.T.);
#1028=ORIENTED_EDGE('',*,*,#707,.F.);
#1029=ORIENTED_EDGE('',*,*,#705,.F.);
#1030=ORIENTED_EDGE('',*,*,#750,.T.);
#1031=ORIENTED_EDGE('',*,*,#753,.T.);
#1032=ORIENTED_EDGE('',*,*,#754,.T.);
#1033=ORIENTED_EDGE('',*,*,#732,.T.);
#1034=ORIENTED_EDGE('',*,*,#702,.T.);
#1035=ORIENTED_EDGE('',*,*,#700,.T.);
#1036=ORIENTED_EDGE('',*,*,#698,.T.);
#1037=ORIENTED_EDGE('',*,*,#696,.T.);
#1038=ORIENTED_EDGE('',*,*,#755,.F.);
#1039=ORIENTED_EDGE('',*,*,#733,.T.);
#1040=ORIENTED_EDGE('',*,*,#754,.F.);
#1041=ORIENTED_EDGE('',*,*,#756,.F.);
#1042=ORIENTED_EDGE('',*,*,#751,.T.);
#1043=ORIENTED_EDGE('',*,*,#730,.T.);
#1044=ORIENTED_EDGE('',*,*,#755,.T.);
#1045=ORIENTED_EDGE('',*,*,#757,.T.);
#1046=ORIENTED_EDGE('',*,*,#624,.T.);
#1047=ORIENTED_EDGE('',*,*,#729,.T.);
#1048=ORIENTED_EDGE('',*,*,#727,.T.);
#1049=ORIENTED_EDGE('',*,*,#725,.T.);
#1050=ORIENTED_EDGE('',*,*,#723,.T.);
#1051=ORIENTED_EDGE('',*,*,#721,.T.);
#1052=ORIENTED_EDGE('',*,*,#736,.F.);
#1053=ORIENTED_EDGE('',*,*,#758,.F.);
#1054=ORIENTED_EDGE('',*,*,#759,.F.);
#1055=ORIENTED_EDGE('',*,*,#760,.F.);
#1056=ORIENTED_EDGE('',*,*,#738,.F.);
#1057=ORIENTED_EDGE('',*,*,#760,.T.);
#1058=ORIENTED_EDGE('',*,*,#761,.T.);
#1059=ORIENTED_EDGE('',*,*,#762,.T.);
#1060=ORIENTED_EDGE('',*,*,#740,.F.);
#1061=ORIENTED_EDGE('',*,*,#762,.F.);
#1062=ORIENTED_EDGE('',*,*,#763,.F.);
#1063=ORIENTED_EDGE('',*,*,#764,.F.);
#1064=ORIENTED_EDGE('',*,*,#741,.F.);
#1065=ORIENTED_EDGE('',*,*,#764,.T.);
#1066=ORIENTED_EDGE('',*,*,#765,.T.);
#1067=ORIENTED_EDGE('',*,*,#766,.T.);
#1068=ORIENTED_EDGE('',*,*,#743,.F.);
#1069=ORIENTED_EDGE('',*,*,#766,.F.);
#1070=ORIENTED_EDGE('',*,*,#767,.F.);
#1071=ORIENTED_EDGE('',*,*,#768,.F.);
#1072=ORIENTED_EDGE('',*,*,#769,.F.);
#1073=ORIENTED_EDGE('',*,*,#770,.F.);
#1074=ORIENTED_EDGE('',*,*,#771,.F.);
#1075=ORIENTED_EDGE('',*,*,#772,.T.);
#1076=ORIENTED_EDGE('',*,*,#746,.F.);
#1077=ORIENTED_EDGE('',*,*,#768,.T.);
#1078=ORIENTED_EDGE('',*,*,#773,.T.);
#1079=ORIENTED_EDGE('',*,*,#772,.F.);
#1080=ORIENTED_EDGE('',*,*,#774,.T.);
#1081=ORIENTED_EDGE('',*,*,#775,.T.);
#1082=ORIENTED_EDGE('',*,*,#748,.F.);
#1083=ORIENTED_EDGE('',*,*,#775,.F.);
#1084=ORIENTED_EDGE('',*,*,#776,.F.);
#1085=ORIENTED_EDGE('',*,*,#777,.F.);
#1086=ORIENTED_EDGE('',*,*,#749,.F.);
#1087=ORIENTED_EDGE('',*,*,#777,.T.);
#1088=ORIENTED_EDGE('',*,*,#778,.F.);
#1089=ORIENTED_EDGE('',*,*,#779,.T.);
#1090=ORIENTED_EDGE('',*,*,#780,.F.);
#1091=ORIENTED_EDGE('',*,*,#758,.T.);
#1092=ORIENTED_EDGE('',*,*,#781,.F.);
#1093=ORIENTED_EDGE('',*,*,#782,.T.);
#1094=ORIENTED_EDGE('',*,*,#783,.F.);
#1095=ORIENTED_EDGE('',*,*,#779,.F.);
#1096=ORIENTED_EDGE('',*,*,#757,.F.);
#1097=ORIENTED_EDGE('',*,*,#756,.T.);
#1098=ORIENTED_EDGE('',*,*,#753,.F.);
#1099=ORIENTED_EDGE('',*,*,#752,.F.);
#1100=ORIENTED_EDGE('',*,*,#784,.T.);
#1101=ORIENTED_EDGE('',*,*,#769,.T.);
#1102=ORIENTED_EDGE('',*,*,#773,.F.);
#1103=ORIENTED_EDGE('',*,*,#767,.T.);
#1104=ORIENTED_EDGE('',*,*,#765,.F.);
#1105=ORIENTED_EDGE('',*,*,#763,.T.);
#1106=ORIENTED_EDGE('',*,*,#761,.F.);
#1107=ORIENTED_EDGE('',*,*,#759,.T.);
#1108=ORIENTED_EDGE('',*,*,#780,.T.);
#1109=ORIENTED_EDGE('',*,*,#783,.T.);
#1110=ORIENTED_EDGE('',*,*,#785,.T.);
#1111=ORIENTED_EDGE('',*,*,#630,.F.);
#1112=ORIENTED_EDGE('',*,*,#786,.F.);
#1113=ORIENTED_EDGE('',*,*,#770,.T.);
#1114=ORIENTED_EDGE('',*,*,#784,.F.);
#1115=ORIENTED_EDGE('',*,*,#629,.F.);
#1116=ORIENTED_EDGE('',*,*,#781,.T.);
#1117=ORIENTED_EDGE('',*,*,#778,.T.);
#1118=ORIENTED_EDGE('',*,*,#776,.T.);
#1119=ORIENTED_EDGE('',*,*,#774,.F.);
#1120=ORIENTED_EDGE('',*,*,#771,.T.);
#1121=ORIENTED_EDGE('',*,*,#786,.T.);
#1122=ORIENTED_EDGE('',*,*,#628,.T.);
#1123=ORIENTED_EDGE('',*,*,#787,.T.);
#1124=ORIENTED_EDGE('',*,*,#787,.F.);
#1125=ORIENTED_EDGE('',*,*,#627,.F.);
#1126=ORIENTED_EDGE('',*,*,#785,.F.);
#1127=ORIENTED_EDGE('',*,*,#782,.F.);
#1128=CYLINDRICAL_SURFACE('',#1247,1.7);
#1129=CYLINDRICAL_SURFACE('',#1250,2.35);
#1130=CYLINDRICAL_SURFACE('',#1254,5.);
#1131=CYLINDRICAL_SURFACE('',#1260,5.);
#1132=CYLINDRICAL_SURFACE('',#1264,5.);
#1133=CYLINDRICAL_SURFACE('',#1268,5.);
#1134=CYLINDRICAL_SURFACE('',#1272,5.);
#1135=CYLINDRICAL_SURFACE('',#1275,0.5);
#1136=CYLINDRICAL_SURFACE('',#1281,0.5);
#1137=CYLINDRICAL_SURFACE('',#1286,0.5);
#1138=CYLINDRICAL_SURFACE('',#1291,0.5);
#1139=CYLINDRICAL_SURFACE('',#1319,1.7);
#1140=CYLINDRICAL_SURFACE('',#1321,1.7);
#1141=CYLINDRICAL_SURFACE('',#1323,1.7);
#1142=CYLINDRICAL_SURFACE('',#1325,1.7);
#1143=CYLINDRICAL_SURFACE('',#1328,5.);
#1144=CYLINDRICAL_SURFACE('',#1331,5.);
#1145=CYLINDRICAL_SURFACE('',#1334,5.);
#1146=CYLINDRICAL_SURFACE('',#1337,5.);
#1147=CYLINDRICAL_SURFACE('',#1339,1.7);
#1148=CYLINDRICAL_SURFACE('',#1341,1.7);
#1149=CYLINDRICAL_SURFACE('',#1343,1.7);
#1150=CYLINDRICAL_SURFACE('',#1345,1.7);
#1151=CYLINDRICAL_SURFACE('',#1347,1.7);
#1152=CYLINDRICAL_SURFACE('',#1350,0.5);
#1153=CYLINDRICAL_SURFACE('',#1356,0.5);
#1154=CYLINDRICAL_SURFACE('',#1361,0.5);
#1155=CYLINDRICAL_SURFACE('',#1366,0.5);
#1156=CYLINDRICAL_SURFACE('',#1375,2.);
#1157=CYLINDRICAL_SURFACE('',#1378,2.);
#1158=CYLINDRICAL_SURFACE('',#1382,2.);
#1159=CYLINDRICAL_SURFACE('',#1386,2.);
#1160=ADVANCED_FACE('',(#77),#1128,.F.);
#1161=ADVANCED_FACE('',(#78),#1129,.F.);
#1162=ADVANCED_FACE('',(#79,#23),#44,.T.);
#1163=ADVANCED_FACE('',(#80),#1130,.T.);
#1164=ADVANCED_FACE('',(#81,#24),#45,.T.);
#1165=ADVANCED_FACE('',(#82),#46,.T.);
#1166=ADVANCED_FACE('',(#83),#47,.F.);
#1167=ADVANCED_FACE('',(#84),#1131,.F.);
#1168=ADVANCED_FACE('',(#85),#48,.F.);
#1169=ADVANCED_FACE('',(#86),#1132,.F.);
#1170=ADVANCED_FACE('',(#87),#49,.F.);
#1171=ADVANCED_FACE('',(#88),#1133,.F.);
#1172=ADVANCED_FACE('',(#89),#50,.F.);
#1173=ADVANCED_FACE('',(#90),#1134,.F.);
#1174=ADVANCED_FACE('',(#91),#1135,.T.);
#1175=ADVANCED_FACE('',(#92),#15,.T.);
#1176=ADVANCED_FACE('',(#93),#1136,.T.);
#1177=ADVANCED_FACE('',(#94),#16,.T.);
#1178=ADVANCED_FACE('',(#95),#1137,.T.);
#1179=ADVANCED_FACE('',(#96),#17,.T.);
#1180=ADVANCED_FACE('',(#97),#1138,.T.);
#1181=ADVANCED_FACE('',(#98),#18,.T.);
#1182=ADVANCED_FACE('',(#99,#25,#26,#27,#28,#29),#51,.F.);
#1183=ADVANCED_FACE('',(#100),#52,.T.);
#1184=ADVANCED_FACE('',(#101),#53,.T.);
#1185=ADVANCED_FACE('',(#102),#54,.T.);
#1186=ADVANCED_FACE('',(#103),#55,.T.);
#1187=ADVANCED_FACE('',(#104),#56,.T.);
#1188=ADVANCED_FACE('',(#105,#30),#57,.F.);
#1189=ADVANCED_FACE('',(#106),#1139,.F.);
#1190=ADVANCED_FACE('',(#107),#1140,.F.);
#1191=ADVANCED_FACE('',(#108),#1141,.F.);
#1192=ADVANCED_FACE('',(#109),#1142,.F.);
#1193=ADVANCED_FACE('',(#110),#58,.T.);
#1194=ADVANCED_FACE('',(#111),#1143,.T.);
#1195=ADVANCED_FACE('',(#112,#31),#59,.F.);
#1196=ADVANCED_FACE('',(#113),#1144,.T.);
#1197=ADVANCED_FACE('',(#114),#60,.T.);
#1198=ADVANCED_FACE('',(#115),#1145,.T.);
#1199=ADVANCED_FACE('',(#116),#61,.T.);
#1200=ADVANCED_FACE('',(#117),#1146,.T.);
#1201=ADVANCED_FACE('',(#118),#1147,.T.);
#1202=ADVANCED_FACE('',(#119),#1148,.T.);
#1203=ADVANCED_FACE('',(#120),#1149,.T.);
#1204=ADVANCED_FACE('',(#121),#1150,.T.);
#1205=ADVANCED_FACE('',(#122),#1151,.T.);
#1206=ADVANCED_FACE('',(#123),#62,.T.);
#1207=ADVANCED_FACE('',(#124),#1152,.T.);
#1208=ADVANCED_FACE('',(#125),#19,.T.);
#1209=ADVANCED_FACE('',(#126),#1153,.T.);
#1210=ADVANCED_FACE('',(#127),#20,.T.);
#1211=ADVANCED_FACE('',(#128),#1154,.T.);
#1212=ADVANCED_FACE('',(#129),#21,.T.);
#1213=ADVANCED_FACE('',(#130),#1155,.T.);
#1214=ADVANCED_FACE('',(#131),#22,.T.);
#1215=ADVANCED_FACE('',(#132),#63,.T.);
#1216=ADVANCED_FACE('',(#133,#32,#33,#34,#35,#36),#64,.T.);
#1217=ADVANCED_FACE('',(#134),#65,.T.);
#1218=ADVANCED_FACE('',(#135,#37,#38,#39,#40,#41,#42),#66,.T.);
#1219=ADVANCED_FACE('',(#136),#67,.F.);
#1220=ADVANCED_FACE('',(#137),#1156,.F.);
#1221=ADVANCED_FACE('',(#138),#68,.F.);
#1222=ADVANCED_FACE('',(#139),#1157,.F.);
#1223=ADVANCED_FACE('',(#140),#69,.F.);
#1224=ADVANCED_FACE('',(#141),#70,.F.);
#1225=ADVANCED_FACE('',(#142),#1158,.F.);
#1226=ADVANCED_FACE('',(#143),#71,.F.);
#1227=ADVANCED_FACE('',(#144),#1159,.F.);
#1228=ADVANCED_FACE('',(#145),#72,.F.);
#1229=ADVANCED_FACE('',(#146,#43),#73,.T.);
#1230=ADVANCED_FACE('',(#147),#74,.F.);
#1231=ADVANCED_FACE('',(#148),#75,.F.);
#1232=ADVANCED_FACE('',(#149),#76,.F.);
#1233=CLOSED_SHELL('',(#1160,#1161,#1162,#1163,#1164,#1165,#1166,#1167,
#1168,#1169,#1170,#1171,#1172,#1173,#1174,#1175,#1176,#1177,#1178,#1179,
#1180,#1181,#1182,#1183,#1184,#1185,#1186,#1187,#1188,#1189,#1190,#1191,
#1192,#1193,#1194,#1195,#1196,#1197,#1198,#1199,#1200,#1201,#1202,#1203,
#1204,#1205,#1206,#1207,#1208,#1209,#1210,#1211,#1212,#1213,#1214,#1215,
#1216,#1217,#1218,#1219,#1220,#1221,#1222,#1223,#1224,#1225,#1226,#1227,
#1228,#1229,#1230,#1231,#1232));
#1234=DERIVED_UNIT_ELEMENT(#1236,1.);
#1235=DERIVED_UNIT_ELEMENT(#2143,-3.);
#1236=(
MASS_UNIT()
NAMED_UNIT(*)
SI_UNIT(.KILO.,.GRAM.)
);
#1237=DERIVED_UNIT((#1234,#1235));
#1238=MEASURE_REPRESENTATION_ITEM('density measure',
POSITIVE_RATIO_MEASURE(1060.),#1237);
#1239=PROPERTY_DEFINITION_REPRESENTATION(#1244,#1241);
#1240=PROPERTY_DEFINITION_REPRESENTATION(#1245,#1242);
#1241=REPRESENTATION('material name',(#1243),#2140);
#1242=REPRESENTATION('density',(#1238),#2140);
#1243=DESCRIPTIVE_REPRESENTATION_ITEM('ABS Plastic','ABS Plastic');
#1244=PROPERTY_DEFINITION('material property','material name',#2150);
#1245=PROPERTY_DEFINITION('material property','density of part',#2150);
#1246=AXIS2_PLACEMENT_3D('',#1786,#1394,#1395);
#1247=AXIS2_PLACEMENT_3D('',#1787,#1396,#1397);
#1248=AXIS2_PLACEMENT_3D('',#1789,#1398,#1399);
#1249=AXIS2_PLACEMENT_3D('',#1792,#1401,#1402);
#1250=AXIS2_PLACEMENT_3D('',#1793,#1403,#1404);
#1251=AXIS2_PLACEMENT_3D('',#1795,#1405,#1406);
#1252=AXIS2_PLACEMENT_3D('',#1798,#1408,#1409);
#1253=AXIS2_PLACEMENT_3D('',#1799,#1410,#1411);
#1254=AXIS2_PLACEMENT_3D('',#1800,#1412,#1413);
#1255=AXIS2_PLACEMENT_3D('',#1802,#1414,#1415);
#1256=AXIS2_PLACEMENT_3D('',#1805,#1417,#1418);
#1257=AXIS2_PLACEMENT_3D('',#1806,#1419,#1420);
#1258=AXIS2_PLACEMENT_3D('',#1807,#1421,#1422);
#1259=AXIS2_PLACEMENT_3D('',#1816,#1427,#1428);
#1260=AXIS2_PLACEMENT_3D('',#1825,#1433,#1434);
#1261=AXIS2_PLACEMENT_3D('',#1827,#1435,#1436);
#1262=AXIS2_PLACEMENT_3D('',#1829,#1437,#1438);
#1263=AXIS2_PLACEMENT_3D('',#1831,#1440,#1441);
#1264=AXIS2_PLACEMENT_3D('',#1837,#1445,#1446);
#1265=AXIS2_PLACEMENT_3D('',#1839,#1447,#1448);
#1266=AXIS2_PLACEMENT_3D('',#1841,#1449,#1450);
#1267=AXIS2_PLACEMENT_3D('',#1843,#1452,#1453);
#1268=AXIS2_PLACEMENT_3D('',#1849,#1457,#1458);
#1269=AXIS2_PLACEMENT_3D('',#1851,#1459,#1460);
#1270=AXIS2_PLACEMENT_3D('',#1853,#1461,#1462);
#1271=AXIS2_PLACEMENT_3D('',#1855,#1464,#1465);
#1272=AXIS2_PLACEMENT_3D('',#1861,#1469,#1470);
#1273=AXIS2_PLACEMENT_3D('',#1862,#1471,#1472);
#1274=AXIS2_PLACEMENT_3D('',#1863,#1473,#1474);
#1275=AXIS2_PLACEMENT_3D('',#1864,#1475,#1476);
#1276=AXIS2_PLACEMENT_3D('',#1866,#1477,#1478);
#1277=AXIS2_PLACEMENT_3D('',#1868,#1479,#1480);
#1278=AXIS2_PLACEMENT_3D('',#1870,#1482,#1483);
#1279=AXIS2_PLACEMENT_3D('',#1872,#1484,#1485);
#1280=AXIS2_PLACEMENT_3D('',#1873,#1486,#1487);
#1281=AXIS2_PLACEMENT_3D('',#1874,#1488,#1489);
#1282=AXIS2_PLACEMENT_3D('',#1876,#1490,#1491);
#1283=AXIS2_PLACEMENT_3D('',#1878,#1493,#1494);
#1284=AXIS2_PLACEMENT_3D('',#1880,#1495,#1496);
#1285=AXIS2_PLACEMENT_3D('',#1881,#1497,#1498);
#1286=AXIS2_PLACEMENT_3D('',#1882,#1499,#1500);
#1287=AXIS2_PLACEMENT_3D('',#1884,#1501,#1502);
#1288=AXIS2_PLACEMENT_3D('',#1886,#1504,#1505);
#1289=AXIS2_PLACEMENT_3D('',#1888,#1506,#1507);
#1290=AXIS2_PLACEMENT_3D('',#1889,#1508,#1509);
#1291=AXIS2_PLACEMENT_3D('',#1890,#1510,#1511);
#1292=AXIS2_PLACEMENT_3D('',#1892,#1512,#1513);
#1293=AXIS2_PLACEMENT_3D('',#1894,#1515,#1516);
#1294=AXIS2_PLACEMENT_3D('',#1895,#1517,#1518);
#1295=AXIS2_PLACEMENT_3D('',#1896,#1519,#1520);
#1296=AXIS2_PLACEMENT_3D('',#1899,#1521,#1522);
#1297=AXIS2_PLACEMENT_3D('',#1903,#1524,#1525);
#1298=AXIS2_PLACEMENT_3D('',#1907,#1527,#1528);
#1299=AXIS2_PLACEMENT_3D('',#1911,#1530,#1531);
#1300=AXIS2_PLACEMENT_3D('',#1914,#1533,#1534);
#1301=AXIS2_PLACEMENT_3D('',#1916,#1535,#1536);
#1302=AXIS2_PLACEMENT_3D('',#1918,#1537,#1538);
#1303=AXIS2_PLACEMENT_3D('',#1920,#1539,#1540);
#1304=AXIS2_PLACEMENT_3D('',#1921,#1541,#1542);
#1305=AXIS2_PLACEMENT_3D('',#1923,#1543,#1544);
#1306=AXIS2_PLACEMENT_3D('',#1924,#1545,#1546);
#1307=AXIS2_PLACEMENT_3D('',#1926,#1547,#1548);
#1308=AXIS2_PLACEMENT_3D('',#1927,#1549,#1550);
#1309=AXIS2_PLACEMENT_3D('',#1929,#1551,#1552);
#1310=AXIS2_PLACEMENT_3D('',#1930,#1553,#1554);
#1311=AXIS2_PLACEMENT_3D('',#1932,#1555,#1556);
#1312=AXIS2_PLACEMENT_3D('',#1933,#1557,#1558);
#1313=AXIS2_PLACEMENT_3D('',#1935,#1559,#1560);
#1314=AXIS2_PLACEMENT_3D('',#1936,#1561,#1562);
#1315=AXIS2_PLACEMENT_3D('',#1941,#1564,#1565);
#1316=AXIS2_PLACEMENT_3D('',#1945,#1567,#1568);
#1317=AXIS2_PLACEMENT_3D('',#1949,#1570,#1571);
#1318=AXIS2_PLACEMENT_3D('',#1952,#1573,#1574);
#1319=AXIS2_PLACEMENT_3D('',#1953,#1575,#1576);
#1320=AXIS2_PLACEMENT_3D('',#1955,#1577,#1578);
#1321=AXIS2_PLACEMENT_3D('',#1957,#1580,#1581);
#1322=AXIS2_PLACEMENT_3D('',#1959,#1582,#1583);
#1323=AXIS2_PLACEMENT_3D('',#1961,#1585,#1586);
#1324=AXIS2_PLACEMENT_3D('',#1963,#1587,#1588);
#1325=AXIS2_PLACEMENT_3D('',#1965,#1590,#1591);
#1326=AXIS2_PLACEMENT_3D('',#1967,#1592,#1593);
#1327=AXIS2_PLACEMENT_3D('',#1969,#1595,#1596);
#1328=AXIS2_PLACEMENT_3D('',#1975,#1600,#1601);
#1329=AXIS2_PLACEMENT_3D('',#1977,#1602,#1603);
#1330=AXIS2_PLACEMENT_3D('',#1979,#1605,#1606);
#1331=AXIS2_PLACEMENT_3D('',#1983,#1609,#1610);
#1332=AXIS2_PLACEMENT_3D('',#1985,#1611,#1612);
#1333=AXIS2_PLACEMENT_3D('',#1987,#1614,#1615);
#1334=AXIS2_PLACEMENT_3D('',#1991,#1618,#1619);
#1335=AXIS2_PLACEMENT_3D('',#1993,#1620,#1621);
#1336=AXIS2_PLACEMENT_3D('',#1995,#1623,#1624);
#1337=AXIS2_PLACEMENT_3D('',#1999,#1627,#1628);
#1338=AXIS2_PLACEMENT_3D('',#2000,#1629,#1630);
#1339=AXIS2_PLACEMENT_3D('',#2001,#1631,#1632);
#1340=AXIS2_PLACEMENT_3D('',#2004,#1634,#1635);
#1341=AXIS2_PLACEMENT_3D('',#2005,#1636,#1637);
#1342=AXIS2_PLACEMENT_3D('',#2008,#1639,#1640);
#1343=AXIS2_PLACEMENT_3D('',#2009,#1641,#1642);
#1344=AXIS2_PLACEMENT_3D('',#2012,#1644,#1645);
#1345=AXIS2_PLACEMENT_3D('',#2013,#1646,#1647);
#1346=AXIS2_PLACEMENT_3D('',#2016,#1649,#1650);
#1347=AXIS2_PLACEMENT_3D('',#2017,#1651,#1652);
#1348=AXIS2_PLACEMENT_3D('',#2020,#1654,#1655);
#1349=AXIS2_PLACEMENT_3D('',#2021,#1656,#1657);
#1350=AXIS2_PLACEMENT_3D('',#2030,#1662,#1663);
#1351=AXIS2_PLACEMENT_3D('',#2032,#1664,#1665);
#1352=AXIS2_PLACEMENT_3D('',#2034,#1666,#1667);
#1353=AXIS2_PLACEMENT_3D('',#2036,#1669,#1670);
#1354=AXIS2_PLACEMENT_3D('',#2038,#1671,#1672);
#1355=AXIS2_PLACEMENT_3D('',#2039,#1673,#1674);
#1356=AXIS2_PLACEMENT_3D('',#2040,#1675,#1676);
#1357=AXIS2_PLACEMENT_3D('',#2042,#1677,#1678);
#1358=AXIS2_PLACEMENT_3D('',#2044,#1680,#1681);
#1359=AXIS2_PLACEMENT_3D('',#2046,#1682,#1683);
#1360=AXIS2_PLACEMENT_3D('',#2047,#1684,#1685);
#1361=AXIS2_PLACEMENT_3D('',#2048,#1686,#1687);
#1362=AXIS2_PLACEMENT_3D('',#2051,#1689,#1690);
#1363=AXIS2_PLACEMENT_3D('',#2052,#1691,#1692);
#1364=AXIS2_PLACEMENT_3D('',#2054,#1693,#1694);
#1365=AXIS2_PLACEMENT_3D('',#2055,#1695,#1696);
#1366=AXIS2_PLACEMENT_3D('',#2056,#1697,#1698);
#1367=AXIS2_PLACEMENT_3D('',#2058,#1699,#1700);
#1368=AXIS2_PLACEMENT_3D('',#2060,#1702,#1703);
#1369=AXIS2_PLACEMENT_3D('',#2061,#1704,#1705);
#1370=AXIS2_PLACEMENT_3D('',#2062,#1706,#1707);
#1371=AXIS2_PLACEMENT_3D('',#2068,#1711,#1712);
#1372=AXIS2_PLACEMENT_3D('',#2072,#1715,#1716);
#1373=AXIS2_PLACEMENT_3D('',#2076,#1719,#1720);
#1374=AXIS2_PLACEMENT_3D('',#2078,#1722,#1723);
#1375=AXIS2_PLACEMENT_3D('',#2084,#1727,#1728);
#1376=AXIS2_PLACEMENT_3D('',#2086,#1729,#1730);
#1377=AXIS2_PLACEMENT_3D('',#2088,#1732,#1733);
#1378=AXIS2_PLACEMENT_3D('',#2092,#1736,#1737);
#1379=AXIS2_PLACEMENT_3D('',#2094,#1738,#1739);
#1380=AXIS2_PLACEMENT_3D('',#2096,#1741,#1742);
#1381=AXIS2_PLACEMENT_3D('',#2100,#1745,#1746);
#1382=AXIS2_PLACEMENT_3D('',#2109,#1751,#1752);
#1383=AXIS2_PLACEMENT_3D('',#2110,#1753,#1754);
#1384=AXIS2_PLACEMENT_3D('',#2112,#1755,#1756);
#1385=AXIS2_PLACEMENT_3D('',#2114,#1758,#1759);
#1386=AXIS2_PLACEMENT_3D('',#2118,#1762,#1763);
#1387=AXIS2_PLACEMENT_3D('',#2120,#1764,#1765);
#1388=AXIS2_PLACEMENT_3D('',#2123,#1767,#1768);
#1389=AXIS2_PLACEMENT_3D('',#2124,#1769,#1770);
#1390=AXIS2_PLACEMENT_3D('',#2130,#1774,#1775);
#1391=AXIS2_PLACEMENT_3D('',#2133,#1778,#1779);
#1392=AXIS2_PLACEMENT_3D('',#2135,#1781,#1782);
#1393=AXIS2_PLACEMENT_3D('',#2137,#1784,#1785);
#1394=DIRECTION('axis',(0.,0.,1.));
#1395=DIRECTION('refdir',(1.,0.,0.));
#1396=DIRECTION('center_axis',(0.,0.,-1.));
#1397=DIRECTION('ref_axis',(1.,0.,0.));
#1398=DIRECTION('center_axis',(0.,0.,-1.));
#1399=DIRECTION('ref_axis',(1.,0.,0.));
#1400=DIRECTION('',(0.,0.,-1.));
#1401=DIRECTION('center_axis',(0.,0.,1.));
#1402=DIRECTION('ref_axis',(1.,0.,0.));
#1403=DIRECTION('center_axis',(0.,0.,-1.));
#1404=DIRECTION('ref_axis',(1.,0.,0.));
#1405=DIRECTION('center_axis',(0.,0.,-1.));
#1406=DIRECTION('ref_axis',(1.,0.,0.));
#1407=DIRECTION('',(0.,0.,-1.));
#1408=DIRECTION('center_axis',(0.,0.,-1.));
#1409=DIRECTION('ref_axis',(1.,0.,0.));
#1410=DIRECTION('center_axis',(0.,0.,1.));
#1411=DIRECTION('ref_axis',(1.,0.,0.));
#1412=DIRECTION('center_axis',(0.,0.,-1.));
#1413=DIRECTION('ref_axis',(1.,0.,0.));
#1414=DIRECTION('center_axis',(0.,0.,-1.));
#1415=DIRECTION('ref_axis',(1.,0.,0.));
#1416=DIRECTION('',(0.,0.,1.));
#1417=DIRECTION('center_axis',(0.,0.,1.));
#1418=DIRECTION('ref_axis',(1.,0.,0.));
#1419=DIRECTION('center_axis',(0.,0.,1.));
#1420=DIRECTION('ref_axis',(1.,0.,0.));
#1421=DIRECTION('center_axis',(4.77539569933364E-18,-0.447213595499958,
-0.894427190999916));
#1422=DIRECTION('ref_axis',(-1.,0.,-5.33905470158508E-18));
#1423=DIRECTION('',(5.51674256277172E-16,-0.894427190999916,0.447213595499958));
#1424=DIRECTION('',(-1.,2.40048221540574E-16,-5.33905470158508E-18));
#1425=DIRECTION('',(0.,0.894427190999916,-0.447213595499958));
#1426=DIRECTION('',(-1.,0.,-5.33905470158508E-18));
#1427=DIRECTION('center_axis',(0.,0.,-1.));
#1428=DIRECTION('ref_axis',(1.,2.12248519413633E-16,0.));
#1429=DIRECTION('',(1.,0.,0.));
#1430=DIRECTION('',(0.,1.,0.));
#1431=DIRECTION('',(1.,2.12248519413633E-16,0.));
#1432=DIRECTION('',(0.,-1.,0.));
#1433=DIRECTION('center_axis',(0.,-1.,0.));
#1434=DIRECTION('ref_axis',(0.707106781186547,0.,-0.707106781186547));
#1435=DIRECTION('center_axis',(0.,-1.,0.));
#1436=DIRECTION('ref_axis',(0.707106781186547,0.,-0.707106781186548));
#1437=DIRECTION('center_axis',(0.,1.,0.));
#1438=DIRECTION('ref_axis',(0.707106781186547,0.,-0.707106781186547));
#1439=DIRECTION('',(0.,1.,0.));
#1440=DIRECTION('center_axis',(1.,0.,0.));
#1441=DIRECTION('ref_axis',(0.,-1.18952466924124E-16,1.));
#1442=DIRECTION('',(0.,0.,1.));
#1443=DIRECTION('',(0.,-1.18952466924124E-16,1.));
#1444=DIRECTION('',(0.,-1.,0.));
#1445=DIRECTION('center_axis',(0.,-1.,0.));
#1446=DIRECTION('ref_axis',(0.707106781186547,0.,0.707106781186547));
#1447=DIRECTION('center_axis',(0.,-1.,0.));
#1448=DIRECTION('ref_axis',(0.707106781186547,0.,0.707106781186548));
#1449=DIRECTION('center_axis',(0.,1.,0.));
#1450=DIRECTION('ref_axis',(0.707106781186547,0.,0.707106781186547));
#1451=DIRECTION('',(0.,1.,0.));
#1452=DIRECTION('center_axis',(-1.63268091856641E-17,0.,1.));
#1453=DIRECTION('ref_axis',(-1.,-1.38777878078145E-16,-1.63268091856641E-17));
#1454=DIRECTION('',(-1.,0.,-1.63268091856641E-17));
#1455=DIRECTION('',(-1.,-1.38777878078145E-16,-1.63268091856641E-17));
#1456=DIRECTION('',(0.,-1.,0.));
#1457=DIRECTION('center_axis',(0.,-1.,0.));
#1458=DIRECTION('ref_axis',(-0.707106781186547,0.,0.707106781186547));
#1459=DIRECTION('center_axis',(0.,-1.,0.));
#1460=DIRECTION('ref_axis',(-0.707106781186547,0.,0.707106781186548));
#1461=DIRECTION('center_axis',(0.,1.,0.));
#1462=DIRECTION('ref_axis',(-0.707106781186547,0.,0.707106781186547));
#1463=DIRECTION('',(0.,1.,0.));
#1464=DIRECTION('center_axis',(-1.,0.,0.));
#1465=DIRECTION('ref_axis',(0.,0.,-1.));
#1466=DIRECTION('',(0.,0.,-1.));
#1467=DIRECTION('',(0.,0.,-1.));
#1468=DIRECTION('',(0.,-1.,0.));
#1469=DIRECTION('center_axis',(0.,-1.,0.));
#1470=DIRECTION('ref_axis',(-0.707106781186547,0.,-0.707106781186547));
#1471=DIRECTION('center_axis',(0.,-1.,0.));
#1472=DIRECTION('ref_axis',(-0.707106781186547,0.,-0.707106781186548));
#1473=DIRECTION('center_axis',(0.,1.,0.));
#1474=DIRECTION('ref_axis',(-0.707106781186547,0.,-0.707106781186547));
#1475=DIRECTION('center_axis',(0.,0.,1.));
#1476=DIRECTION('ref_axis',(0.707106781186549,0.707106781186546,0.));
#1477=DIRECTION('center_axis',(0.,0.,-1.));
#1478=DIRECTION('ref_axis',(0.,1.,0.));
#1479=DIRECTION('center_axis',(-1.11022302462516E-15,0.,-1.));
#1480=DIRECTION('ref_axis',(0.,1.,0.));
#1481=DIRECTION('',(0.,0.,1.));
#1482=DIRECTION('center_axis',(0.,1.,0.));
#1483=DIRECTION('ref_axis',(0.,0.,1.));
#1484=DIRECTION('center_axis',(-1.,0.,0.));
#1485=DIRECTION('ref_axis',(0.,1.,0.));
#1486=DIRECTION('center_axis',(0.,1.,0.));
#1487=DIRECTION('ref_axis',(-0.707106781186547,0.,0.707106781186548));
#1488=DIRECTION('center_axis',(1.,0.,1.63268091856641E-17));
#1489=DIRECTION('ref_axis',(0.,0.707106781186548,-0.707106781186548));
#1490=DIRECTION('center_axis',(-1.,0.,0.));
#1491=DIRECTION('ref_axis',(0.,1.,0.));
#1492=DIRECTION('',(1.,0.,1.63268091856641E-17));
#1493=DIRECTION('center_axis',(0.,1.,0.));
#1494=DIRECTION('ref_axis',(0.,0.,1.));
#1495=DIRECTION('center_axis',(0.,0.,1.));
#1496=DIRECTION('ref_axis',(0.,1.,0.));
#1497=DIRECTION('center_axis',(0.,1.,0.));
#1498=DIRECTION('ref_axis',(0.707106781186547,0.,0.707106781186548));
#1499=DIRECTION('center_axis',(0.,0.,-1.));
#1500=DIRECTION('ref_axis',(-0.707106781186552,0.707106781186543,0.));
#1501=DIRECTION('center_axis',(0.,0.,1.));
#1502=DIRECTION('ref_axis',(0.,1.,0.));
#1503=DIRECTION('',(0.,0.,-1.));
#1504=DIRECTION('center_axis',(0.,1.,0.));
#1505=DIRECTION('ref_axis',(0.,0.,1.));
#1506=DIRECTION('center_axis',(1.,0.,0.));
#1507=DIRECTION('ref_axis',(0.,1.,0.));
#1508=DIRECTION('center_axis',(0.,1.,0.));
#1509=DIRECTION('ref_axis',(0.707106781186547,0.,-0.707106781186548));
#1510=DIRECTION('center_axis',(-1.,0.,0.));
#1511=DIRECTION('ref_axis',(0.,0.707106781186548,0.707106781186548));
#1512=DIRECTION('center_axis',(-1.,0.,0.));
#1513=DIRECTION('ref_axis',(0.,0.,1.));
#1514=DIRECTION('',(-1.,0.,0.));
#1515=DIRECTION('center_axis',(0.,1.,0.));
#1516=DIRECTION('ref_axis',(0.,0.,1.));
#1517=DIRECTION('center_axis',(0.,1.,0.));
#1518=DIRECTION('ref_axis',(-0.707106781186547,0.,-0.707106781186548));
#1519=DIRECTION('center_axis',(0.,0.,1.));
#1520=DIRECTION('ref_axis',(1.,0.,0.));
#1521=DIRECTION('center_axis',(0.,0.,1.));
#1522=DIRECTION('ref_axis',(-0.707106781186547,-0.707106781186547,0.));
#1523=DIRECTION('',(0.,1.,0.));
#1524=DIRECTION('center_axis',(0.,0.,1.));
#1525=DIRECTION('ref_axis',(-1.,0.,0.));
#1526=DIRECTION('',(1.,0.,0.));
#1527=DIRECTION('center_axis',(0.,0.,1.));
#1528=DIRECTION('ref_axis',(1.,0.,0.));
#1529=DIRECTION('',(0.,-1.,0.));
#1530=DIRECTION('center_axis',(0.,0.,1.));
#1531=DIRECTION('ref_axis',(0.707106781186547,-0.707106781186547,0.));
#1532=DIRECTION('',(-1.,0.,0.));
#1533=DIRECTION('center_axis',(0.,0.,1.));
#1534=DIRECTION('ref_axis',(1.,0.,0.));
#1535=DIRECTION('center_axis',(0.,0.,1.));
#1536=DIRECTION('ref_axis',(1.,0.,0.));
#1537=DIRECTION('center_axis',(0.,0.,1.));
#1538=DIRECTION('ref_axis',(1.,0.,0.));
#1539=DIRECTION('center_axis',(0.,0.,1.));
#1540=DIRECTION('ref_axis',(1.,0.,0.));
#1541=DIRECTION('center_axis',(0.,0.,1.));
#1542=DIRECTION('ref_axis',(1.,0.,0.));
#1543=DIRECTION('center_axis',(0.,0.,1.));
#1544=DIRECTION('ref_axis',(1.,0.,0.));
#1545=DIRECTION('center_axis',(0.,0.,1.));
#1546=DIRECTION('ref_axis',(1.,0.,0.));
#1547=DIRECTION('center_axis',(0.,0.,1.));
#1548=DIRECTION('ref_axis',(1.,0.,0.));
#1549=DIRECTION('center_axis',(0.,0.,1.));
#1550=DIRECTION('ref_axis',(1.,0.,0.));
#1551=DIRECTION('center_axis',(0.,0.,1.));
#1552=DIRECTION('ref_axis',(1.,0.,0.));
#1553=DIRECTION('center_axis',(0.,0.,1.));
#1554=DIRECTION('ref_axis',(1.,0.,0.));
#1555=DIRECTION('center_axis',(0.,0.,1.));
#1556=DIRECTION('ref_axis',(1.,0.,0.));
#1557=DIRECTION('center_axis',(0.,0.,1.));
#1558=DIRECTION('ref_axis',(1.,0.,0.));
#1559=DIRECTION('center_axis',(0.,0.,1.));
#1560=DIRECTION('ref_axis',(1.,0.,0.));
#1561=DIRECTION('center_axis',(0.,-1.,0.));
#1562=DIRECTION('ref_axis',(0.,0.,-1.));
#1563=DIRECTION('',(0.,0.,-1.));
#1564=DIRECTION('center_axis',(0.,1.,0.));
#1565=DIRECTION('ref_axis',(0.707106781186548,0.,0.707106781186547));
#1566=DIRECTION('',(1.,0.,0.));
#1567=DIRECTION('center_axis',(0.,1.,0.));
#1568=DIRECTION('ref_axis',(-0.707106781186548,0.,0.707106781186547));
#1569=DIRECTION('',(0.,0.,1.));
#1570=DIRECTION('center_axis',(0.,1.,0.));
#1571=DIRECTION('ref_axis',(-0.707106781186548,0.,-0.707106781186547));
#1572=DIRECTION('',(-1.,0.,0.));
#1573=DIRECTION('center_axis',(0.,1.,0.));
#1574=DIRECTION('ref_axis',(0.707106781186548,0.,-0.707106781186547));
#1575=DIRECTION('center_axis',(0.,0.,-1.));
#1576=DIRECTION('ref_axis',(1.,0.,0.));
#1577=DIRECTION('center_axis',(0.,0.,-1.));
#1578=DIRECTION('ref_axis',(1.,0.,0.));
#1579=DIRECTION('',(0.,0.,-1.));
#1580=DIRECTION('center_axis',(0.,0.,-1.));
#1581=DIRECTION('ref_axis',(1.,0.,0.));
#1582=DIRECTION('center_axis',(0.,0.,-1.));
#1583=DIRECTION('ref_axis',(1.,0.,0.));
#1584=DIRECTION('',(0.,0.,-1.));
#1585=DIRECTION('center_axis',(0.,0.,-1.));
#1586=DIRECTION('ref_axis',(1.,0.,0.));
#1587=DIRECTION('center_axis',(0.,0.,-1.));
#1588=DIRECTION('ref_axis',(1.,0.,0.));
#1589=DIRECTION('',(0.,0.,-1.));
#1590=DIRECTION('center_axis',(0.,0.,-1.));
#1591=DIRECTION('ref_axis',(1.,0.,0.));
#1592=DIRECTION('center_axis',(0.,0.,-1.));
#1593=DIRECTION('ref_axis',(1.,0.,0.));
#1594=DIRECTION('',(0.,0.,-1.));
#1595=DIRECTION('center_axis',(-1.,0.,0.));
#1596=DIRECTION('ref_axis',(0.,-1.,0.));
#1597=DIRECTION('',(0.,0.,-1.));
#1598=DIRECTION('',(0.,1.,0.));
#1599=DIRECTION('',(0.,0.,1.));
#1600=DIRECTION('center_axis',(0.,0.,-1.));
#1601=DIRECTION('ref_axis',(-1.,0.,0.));
#1602=DIRECTION('center_axis',(0.,0.,-1.));
#1603=DIRECTION('ref_axis',(-1.,0.,0.));
#1604=DIRECTION('',(0.,0.,-1.));
#1605=DIRECTION('center_axis',(0.,-1.,0.));
#1606=DIRECTION('ref_axis',(-1.,0.,0.));
#1607=DIRECTION('',(0.,0.,1.));
#1608=DIRECTION('',(-1.,0.,0.));
#1609=DIRECTION('center_axis',(0.,0.,1.));
#1610=DIRECTION('ref_axis',(1.,0.,0.));
#1611=DIRECTION('center_axis',(0.,0.,-1.));
#1612=DIRECTION('ref_axis',(1.,0.,0.));
#1613=DIRECTION('',(0.,0.,-1.));
#1614=DIRECTION('center_axis',(1.,0.,0.));
#1615=DIRECTION('ref_axis',(0.,1.,0.));
#1616=DIRECTION('',(0.,0.,1.));
#1617=DIRECTION('',(0.,-1.,0.));
#1618=DIRECTION('center_axis',(0.,0.,-1.));
#1619=DIRECTION('ref_axis',(0.707106781186547,-0.707106781186547,0.));
#1620=DIRECTION('center_axis',(0.,0.,-1.));
#1621=DIRECTION('ref_axis',(0.707106781186547,-0.707106781186547,0.));
#1622=DIRECTION('',(0.,0.,-1.));
#1623=DIRECTION('center_axis',(0.,-1.,0.));
#1624=DIRECTION('ref_axis',(1.,0.,0.));
#1625=DIRECTION('',(0.,0.,1.));
#1626=DIRECTION('',(-1.,0.,0.));
#1627=DIRECTION('center_axis',(0.,0.,-1.));
#1628=DIRECTION('ref_axis',(-0.707106781186547,-0.707106781186547,0.));
#1629=DIRECTION('center_axis',(0.,0.,-1.));
#1630=DIRECTION('ref_axis',(-0.707106781186547,-0.707106781186547,0.));
#1631=DIRECTION('center_axis',(0.,0.,1.));
#1632=DIRECTION('ref_axis',(1.,0.,0.));
#1633=DIRECTION('',(0.,0.,-1.));
#1634=DIRECTION('center_axis',(0.,0.,-1.));
#1635=DIRECTION('ref_axis',(1.,0.,0.));
#1636=DIRECTION('center_axis',(0.,0.,1.));
#1637=DIRECTION('ref_axis',(1.,0.,0.));
#1638=DIRECTION('',(0.,0.,-1.));
#1639=DIRECTION('center_axis',(0.,0.,-1.));
#1640=DIRECTION('ref_axis',(1.,0.,0.));
#1641=DIRECTION('center_axis',(0.,0.,1.));
#1642=DIRECTION('ref_axis',(1.,0.,0.));
#1643=DIRECTION('',(0.,0.,-1.));
#1644=DIRECTION('center_axis',(0.,0.,-1.));
#1645=DIRECTION('ref_axis',(1.,0.,0.));
#1646=DIRECTION('center_axis',(0.,0.,1.));
#1647=DIRECTION('ref_axis',(1.,0.,0.));
#1648=DIRECTION('',(0.,0.,-1.));
#1649=DIRECTION('center_axis',(0.,0.,-1.));
#1650=DIRECTION('ref_axis',(1.,0.,0.));
#1651=DIRECTION('center_axis',(0.,0.,1.));
#1652=DIRECTION('ref_axis',(1.,0.,0.));
#1653=DIRECTION('',(0.,0.,-1.));
#1654=DIRECTION('center_axis',(0.,0.,-1.));
#1655=DIRECTION('ref_axis',(1.,0.,0.));
#1656=DIRECTION('center_axis',(0.,1.,0.));
#1657=DIRECTION('ref_axis',(-1.,0.,0.));
#1658=DIRECTION('',(1.,0.,0.));
#1659=DIRECTION('',(0.,0.,1.));
#1660=DIRECTION('',(-1.,0.,0.));
#1661=DIRECTION('',(0.,0.,1.));
#1662=DIRECTION('center_axis',(0.,0.,-1.));
#1663=DIRECTION('ref_axis',(0.707106781186546,0.707106781186549,0.));
#1664=DIRECTION('center_axis',(0.,0.,1.));
#1665=DIRECTION('ref_axis',(1.,0.,0.));
#1666=DIRECTION('center_axis',(-1.11022302462515E-15,0.,1.));
#1667=DIRECTION('ref_axis',(1.,0.,1.11022302462515E-15));
#1668=DIRECTION('',(0.,0.,-1.));
#1669=DIRECTION('center_axis',(0.,1.,0.));
#1670=DIRECTION('ref_axis',(0.,0.,1.));
#1671=DIRECTION('center_axis',(-1.,0.,0.));
#1672=DIRECTION('ref_axis',(0.,0.,1.));
#1673=DIRECTION('center_axis',(0.,-1.,0.));
#1674=DIRECTION('ref_axis',(-0.707106781186548,0.,-0.707106781186547));
#1675=DIRECTION('center_axis',(1.,0.,0.));
#1676=DIRECTION('ref_axis',(0.,0.707106781186548,0.707106781186548));
#1677=DIRECTION('center_axis',(-1.,0.,0.));
#1678=DIRECTION('ref_axis',(0.,0.,1.));
#1679=DIRECTION('',(1.,0.,0.));
#1680=DIRECTION('center_axis',(0.,1.,0.));
#1681=DIRECTION('ref_axis',(0.,0.,1.));
#1682=DIRECTION('center_axis',(0.,-1.,0.));
#1683=DIRECTION('ref_axis',(0.707106781186548,0.,-0.707106781186547));
#1684=DIRECTION('center_axis',(0.,0.,1.));
#1685=DIRECTION('ref_axis',(0.,1.,0.));
#1686=DIRECTION('center_axis',(0.,0.,1.));
#1687=DIRECTION('ref_axis',(-0.707106781186546,0.707106781186549,0.));
#1688=DIRECTION('',(0.,0.,1.));
#1689=DIRECTION('center_axis',(0.,0.,-1.));
#1690=DIRECTION('ref_axis',(-1.,0.,0.));
#1691=DIRECTION('center_axis',(0.,1.,0.));
#1692=DIRECTION('ref_axis',(0.,0.,1.));
#1693=DIRECTION('center_axis',(1.,0.,0.));
#1694=DIRECTION('ref_axis',(0.,0.,-1.));
#1695=DIRECTION('center_axis',(0.,-1.,0.));
#1696=DIRECTION('ref_axis',(0.707106781186548,0.,0.707106781186547));
#1697=DIRECTION('center_axis',(-1.,0.,0.));
#1698=DIRECTION('ref_axis',(0.,0.707106781186548,-0.707106781186547));
#1699=DIRECTION('center_axis',(1.,0.,0.));
#1700=DIRECTION('ref_axis',(0.,0.,-1.));
#1701=DIRECTION('',(-1.,0.,0.));
#1702=DIRECTION('center_axis',(0.,1.,0.));
#1703=DIRECTION('ref_axis',(0.,0.,1.));
#1704=DIRECTION('center_axis',(0.,-1.,0.));
#1705=DIRECTION('ref_axis',(-0.707106781186548,0.,0.707106781186547));
#1706=DIRECTION('center_axis',(1.,0.,0.));
#1707=DIRECTION('ref_axis',(0.,1.,0.));
#1708=DIRECTION('',(0.,1.,0.));
#1709=DIRECTION('',(0.,-1.,0.));
#1710=DIRECTION('',(0.,0.,1.));
#1711=DIRECTION('center_axis',(0.,0.,1.));
#1712=DIRECTION('ref_axis',(1.,0.,0.));
#1713=DIRECTION('',(1.,0.,0.));
#1714=DIRECTION('',(0.,-1.,0.));
#1715=DIRECTION('center_axis',(-1.,0.,0.));
#1716=DIRECTION('ref_axis',(0.,-1.,0.));
#1717=DIRECTION('',(0.,1.,0.));
#1718=DIRECTION('',(0.,0.,1.));
#1719=DIRECTION('center_axis',(0.,0.,1.));
#1720=DIRECTION('ref_axis',(1.,0.,0.));
#1721=DIRECTION('',(-1.,0.,0.));
#1722=DIRECTION('center_axis',(-1.,0.,0.));
#1723=DIRECTION('ref_axis',(0.,0.,-1.));
#1724=DIRECTION('',(0.,1.,0.));
#1725=DIRECTION('',(0.,0.,1.));
#1726=DIRECTION('',(0.,-1.,0.));
#1727=DIRECTION('center_axis',(0.,-1.,0.));
#1728=DIRECTION('ref_axis',(-0.707106781186548,0.,-0.707106781186547));
#1729=DIRECTION('center_axis',(0.,-1.,0.));
#1730=DIRECTION('ref_axis',(-0.707106781186548,0.,-0.707106781186547));
#1731=DIRECTION('',(0.,1.,0.));
#1732=DIRECTION('center_axis',(0.,0.,-1.));
#1733=DIRECTION('ref_axis',(1.,0.,0.));
#1734=DIRECTION('',(-1.,0.,0.));
#1735=DIRECTION('',(0.,-1.,0.));
#1736=DIRECTION('center_axis',(0.,-1.,0.));
#1737=DIRECTION('ref_axis',(0.707106781186548,0.,-0.707106781186547));
#1738=DIRECTION('center_axis',(0.,-1.,0.));
#1739=DIRECTION('ref_axis',(0.707106781186548,0.,-0.707106781186547));
#1740=DIRECTION('',(0.,1.,0.));
#1741=DIRECTION('center_axis',(1.,0.,0.));
#1742=DIRECTION('ref_axis',(0.,0.,1.));
#1743=DIRECTION('',(0.,0.,-1.));
#1744=DIRECTION('',(0.,-1.,0.));
#1745=DIRECTION('center_axis',(-4.50090415388577E-17,0.,-1.));
#1746=DIRECTION('ref_axis',(1.,0.,-4.50090415388577E-17));
#1747=DIRECTION('',(-1.,0.,4.50090415388577E-17));
#1748=DIRECTION('',(0.,-1.,0.));
#1749=DIRECTION('',(1.,0.,-4.50090415388577E-17));
#1750=DIRECTION('',(0.,1.,0.));
#1751=DIRECTION('center_axis',(0.,-1.,0.));
#1752=DIRECTION('ref_axis',(0.707106781186548,0.,0.707106781186547));
#1753=DIRECTION('center_axis',(0.,-1.,0.));
#1754=DIRECTION('ref_axis',(0.707106781186548,0.,0.707106781186547));
#1755=DIRECTION('center_axis',(0.,-1.,0.));
#1756=DIRECTION('ref_axis',(0.707106781186548,0.,0.707106781186547));
#1757=DIRECTION('',(0.,1.,0.));
#1758=DIRECTION('center_axis',(0.,0.,1.));
#1759=DIRECTION('ref_axis',(-1.,0.,0.));
#1760=DIRECTION('',(1.,0.,0.));
#1761=DIRECTION('',(0.,-1.,0.));
#1762=DIRECTION('center_axis',(0.,-1.,0.));
#1763=DIRECTION('ref_axis',(-0.707106781186546,0.,0.707106781186549));
#1764=DIRECTION('center_axis',(0.,-1.,0.));
#1765=DIRECTION('ref_axis',(-0.707106781186546,0.,0.707106781186549));
#1766=DIRECTION('',(0.,-1.,0.));
#1767=DIRECTION('center_axis',(0.,-1.,0.));
#1768=DIRECTION('ref_axis',(-0.707106781186546,0.,0.707106781186549));
#1769=DIRECTION('center_axis',(-4.50090415388577E-17,0.,-1.));
#1770=DIRECTION('ref_axis',(1.,0.,-4.50090415388577E-17));
#1771=DIRECTION('',(1.,0.,-4.50090415388577E-17));
#1772=DIRECTION('',(0.,-1.,0.));
#1773=DIRECTION('',(-1.,0.,4.50090415388577E-17));
#1774=DIRECTION('center_axis',(0.,-1.,0.));
#1775=DIRECTION('ref_axis',(1.,0.,0.));
#1776=DIRECTION('',(0.,0.,-1.));
#1777=DIRECTION('',(1.2335811384724E-15,0.,1.));
#1778=DIRECTION('center_axis',(1.,0.,0.));
#1779=DIRECTION('ref_axis',(0.,0.,1.));
#1780=DIRECTION('',(0.,0.,1.));
#1781=DIRECTION('center_axis',(0.,1.,0.));
#1782=DIRECTION('ref_axis',(1.,0.,0.));
#1783=DIRECTION('',(-1.2335811384724E-15,-2.46716227694479E-15,-1.));
#1784=DIRECTION('center_axis',(-1.,0.,1.2335811384724E-15));
#1785=DIRECTION('ref_axis',(-1.2335811384724E-15,-2.46716227694479E-15,
-1.));
#1786=CARTESIAN_POINT('',(0.,0.,0.));
#1787=CARTESIAN_POINT('Origin',(54.5598237360187,-30.9998851529701,-1.11022302462516E-15));
#1788=CARTESIAN_POINT('',(52.8598237360187,-30.9998851529701,-4.));
#1789=CARTESIAN_POINT('Origin',(54.5598237360187,-30.9998851529701,-4.));
#1790=CARTESIAN_POINT('',(52.8598237360187,-30.9998851529701,-9.));
#1791=CARTESIAN_POINT('',(52.8598237360187,-30.9998851529701,-1.11022302462516E-15));
#1792=CARTESIAN_POINT('Origin',(54.5598237360187,-30.9998851529701,-9.));
#1793=CARTESIAN_POINT('Origin',(54.5598237360187,-30.9998851529701,-1.11022302462516E-15));
#1794=CARTESIAN_POINT('',(52.2098237360187,-30.9998851529701,-1.11022302462516E-15));
#1795=CARTESIAN_POINT('Origin',(54.5598237360187,-30.9998851529701,-1.11022302462516E-15));
#1796=CARTESIAN_POINT('',(52.2098237360187,-30.9998851529701,-4.));
#1797=CARTESIAN_POINT('',(52.2098237360187,-30.9998851529701,-1.11022302462516E-15));
#1798=CARTESIAN_POINT('Origin',(54.5598237360187,-30.9998851529701,-4.));
#1799=CARTESIAN_POINT('Origin',(38.0999180216764,-51.1000257112109,-4.));
#1800=CARTESIAN_POINT('Origin',(54.5598237360187,-30.9998851529701,-1.11022302462516E-15));
#1801=CARTESIAN_POINT('',(49.5598237360187,-30.9998851529701,-6.));
#1802=CARTESIAN_POINT('Origin',(54.5598237360187,-30.9998851529701,-6.));
#1803=CARTESIAN_POINT('',(49.5598237360187,-30.9998851529701,-1.11022302462516E-15));
#1804=CARTESIAN_POINT('',(49.5598237360187,-30.9998851529701,-1.11022302462516E-15));
#1805=CARTESIAN_POINT('Origin',(54.5598237360187,-30.9998851529701,-1.11022302462516E-15));
#1806=CARTESIAN_POINT('Origin',(38.0999180216764,-51.1000257112109,-1.11022302462516E-15));
#1807=CARTESIAN_POINT('Origin',(18.0953702479199,-8.80000080983153,0.850031816942357));
#1808=CARTESIAN_POINT('',(17.8907404958399,-9.80000080983153,1.35003181694236));
#1809=CARTESIAN_POINT('',(17.8907404958399,-7.79999999999999,0.350031816942357));
#1810=CARTESIAN_POINT('',(17.8907404958399,-8.30000048589891,0.600031654976048));
#1811=CARTESIAN_POINT('',(36.3907404958399,-7.79999999999999,0.350031816942357));
#1812=CARTESIAN_POINT('',(36.3907404958399,-7.79999999999999,0.350031816942357));
#1813=CARTESIAN_POINT('',(36.3907404958399,-9.80000080983153,1.35003181694236));
#1814=CARTESIAN_POINT('',(36.3907404958399,-7.94000048589892,0.420031654976049));
#1815=CARTESIAN_POINT('',(18.0953702479199,-9.80000080983153,1.35003181694236));
#1816=CARTESIAN_POINT('Origin',(18.6907404958399,-1.52655665885959E-15,
-7.99996818305764));
#1817=CARTESIAN_POINT('',(23.6907404958399,-5.29999962239526,-7.99996818305764));
#1818=CARTESIAN_POINT('',(30.6907404958399,-5.29999962239526,-7.99996818305764));
#1819=CARTESIAN_POINT('',(52.5453683790244,-5.29999962239526,-7.99996818305764));
#1820=CARTESIAN_POINT('',(23.6907404958399,-6.3,-7.99996818305764));
#1821=CARTESIAN_POINT('',(23.6907404958399,-1.52655665885959E-15,-7.99996818305764));
#1822=CARTESIAN_POINT('',(30.6907404958399,-6.3,-7.99996818305764));
#1823=CARTESIAN_POINT('',(18.6907404958399,-6.3,-7.99996818305764));
#1824=CARTESIAN_POINT('',(30.6907404958399,2.77555756156289E-16,-7.99996818305764));
#1825=CARTESIAN_POINT('Origin',(30.6907404958399,2.77555756156289E-16,-2.99996818305764));
#1826=CARTESIAN_POINT('',(35.6907404958399,-5.29999962239526,-2.99996818305764));
#1827=CARTESIAN_POINT('Origin',(30.6907404958399,-5.29999962239526,-2.99996818305764));
#1828=CARTESIAN_POINT('',(35.6907404958399,-6.3,-2.99996818305764));
#1829=CARTESIAN_POINT('Origin',(30.6907404958399,-6.3,-2.99996818305764));
#1830=CARTESIAN_POINT('',(35.6907404958399,2.77555756156289E-16,-2.99996818305764));
#1831=CARTESIAN_POINT('Origin',(35.6907404958399,2.08166817117217E-15,-7.99996818305764));
#1832=CARTESIAN_POINT('',(35.6907404958399,-5.29999962239526,-2.49996818305764));
#1833=CARTESIAN_POINT('',(35.6907404958399,-5.29999962239526,-1.99998409152882));
#1834=CARTESIAN_POINT('',(35.6907404958399,-6.3,-2.49996818305764));
#1835=CARTESIAN_POINT('',(35.6907404958399,-6.3,-7.99996818305764));
#1836=CARTESIAN_POINT('',(35.6907404958399,1.45716771982052E-15,-2.49996818305764));
#1837=CARTESIAN_POINT('Origin',(30.6907404958399,1.45716771982052E-15,-2.49996818305764));
#1838=CARTESIAN_POINT('',(30.6907404958399,-5.29999962239526,2.50003181694236));
#1839=CARTESIAN_POINT('Origin',(30.6907404958399,-5.29999962239526,-2.49996818305764));
#1840=CARTESIAN_POINT('',(30.6907404958399,-6.3,2.50003181694236));
#1841=CARTESIAN_POINT('Origin',(30.6907404958399,-6.3,-2.49996818305764));
#1842=CARTESIAN_POINT('',(30.6907404958399,1.45716771982052E-15,2.50003181694236));
#1843=CARTESIAN_POINT('Origin',(35.6907404958399,8.32667268468867E-16,2.50003181694236));
#1844=CARTESIAN_POINT('',(23.6907404958399,-5.29999962239526,2.50003181694236));
#1845=CARTESIAN_POINT('',(61.0453683790244,-5.29999962239526,2.50003181694236));
#1846=CARTESIAN_POINT('',(23.6907404958399,-6.3,2.50003181694236));
#1847=CARTESIAN_POINT('',(35.6907404958399,-6.3,2.50003181694236));
#1848=CARTESIAN_POINT('',(23.6907404958399,-3.46944695195361E-16,2.50003181694236));
#1849=CARTESIAN_POINT('Origin',(23.6907404958399,-3.46944695195361E-16,
-2.49996818305764));
#1850=CARTESIAN_POINT('',(18.6907404958399,-5.29999962239526,-2.49996818305764));
#1851=CARTESIAN_POINT('Origin',(23.6907404958399,-5.29999962239526,-2.49996818305764));
#1852=CARTESIAN_POINT('',(18.6907404958399,-6.3,-2.49996818305764));
#1853=CARTESIAN_POINT('Origin',(23.6907404958399,-6.3,-2.49996818305764));
#1854=CARTESIAN_POINT('',(18.6907404958399,-3.46944695195361E-16,-2.49996818305764));
#1855=CARTESIAN_POINT('Origin',(18.6907404958399,-1.52655665885959E-15,
2.50003181694236));
#1856=CARTESIAN_POINT('',(18.6907404958399,-5.29999962239526,-2.99996818305764));
#1857=CARTESIAN_POINT('',(18.6907404958399,-5.29999962239526,3.25001590847118));
#1858=CARTESIAN_POINT('',(18.6907404958399,-6.3,-2.99996818305764));
#1859=CARTESIAN_POINT('',(18.6907404958399,-6.3,2.50003181694236));
#1860=CARTESIAN_POINT('',(18.6907404958399,-1.52655665885959E-15,-2.99996818305764));
#1861=CARTESIAN_POINT('Origin',(23.6907404958399,-1.52655665885959E-15,
-2.99996818305764));
#1862=CARTESIAN_POINT('Origin',(23.6907404958399,-5.29999962239526,-2.99996818305764));
#1863=CARTESIAN_POINT('Origin',(23.6907404958399,-6.3,-2.99996818305764));
#1864=CARTESIAN_POINT('Origin',(18.1907404958399,-5.29999962239526,3.25001590847118));
#1865=CARTESIAN_POINT('',(18.1907404958399,-4.79999962239526,-2.49996818305764));
#1866=CARTESIAN_POINT('Origin',(18.1907404958399,-5.29999962239526,-2.49996818305764));
#1867=CARTESIAN_POINT('',(18.1907404958399,-4.79999962239526,-2.99996818305764));
#1868=CARTESIAN_POINT('Origin',(18.1907404958399,-5.29999962239526,-2.99996818305764));
#1869=CARTESIAN_POINT('',(18.1907404958399,-4.79999962239526,3.25001590847118));
#1870=CARTESIAN_POINT('Origin',(23.6907404958399,-5.29999962239526,-2.49996818305764));
#1871=CARTESIAN_POINT('',(23.6907404958399,-4.79999962239526,3.00003181694236));
#1872=CARTESIAN_POINT('Origin',(23.6907404958399,-5.29999962239526,3.00003181694236));
#1873=CARTESIAN_POINT('Origin',(23.6907404958399,-4.79999962239526,-2.49996818305764));
#1874=CARTESIAN_POINT('Origin',(61.0453683790244,-5.29999962239526,3.00003181694236));
#1875=CARTESIAN_POINT('',(30.6907404958399,-4.79999962239526,3.00003181694236));
#1876=CARTESIAN_POINT('Origin',(30.6907404958399,-5.29999962239526,3.00003181694236));
#1877=CARTESIAN_POINT('',(61.0453683790244,-4.79999962239526,3.00003181694236));
#1878=CARTESIAN_POINT('Origin',(30.6907404958399,-5.29999962239526,-2.49996818305764));
#1879=CARTESIAN_POINT('',(36.1907404958399,-4.79999962239526,-2.49996818305764));
#1880=CARTESIAN_POINT('Origin',(36.1907404958399,-5.29999962239526,-2.49996818305764));
#1881=CARTESIAN_POINT('Origin',(30.6907404958399,-4.79999962239526,-2.49996818305764));
#1882=CARTESIAN_POINT('Origin',(36.1907404958399,-5.29999962239526,-1.99998409152882));
#1883=CARTESIAN_POINT('',(36.1907404958399,-4.79999962239526,-2.99996818305764));
#1884=CARTESIAN_POINT('Origin',(36.1907404958399,-5.29999962239526,-2.99996818305764));
#1885=CARTESIAN_POINT('',(36.1907404958399,-4.79999962239526,-1.99998409152882));
#1886=CARTESIAN_POINT('Origin',(30.6907404958399,-5.29999962239526,-2.99996818305764));
#1887=CARTESIAN_POINT('',(30.6907404958399,-4.79999962239526,-8.49996818305764));
#1888=CARTESIAN_POINT('Origin',(30.6907404958399,-5.29999962239526,-8.49996818305764));
#1889=CARTESIAN_POINT('Origin',(30.6907404958399,-4.79999962239526,-2.99996818305764));
#1890=CARTESIAN_POINT('Origin',(52.5453683790244,-5.29999962239526,-8.49996818305765));
#1891=CARTESIAN_POINT('',(23.6907404958399,-4.79999962239526,-8.49996818305764));
#1892=CARTESIAN_POINT('Origin',(23.6907404958399,-5.29999962239526,-8.49996818305764));
#1893=CARTESIAN_POINT('',(52.5453683790244,-4.79999962239526,-8.49996818305765));
#1894=CARTESIAN_POINT('Origin',(23.6907404958399,-5.29999962239526,-2.99996818305764));
#1895=CARTESIAN_POINT('Origin',(23.6907404958399,-4.79999962239526,-2.99996818305764));
#1896=CARTESIAN_POINT('Origin',(38.0999180216764,-51.200025711211,-9.));
#1897=CARTESIAN_POINT('',(-10.2001602188561,-97.4000518000267,-9.));
#1898=CARTESIAN_POINT('',(-5.20016021885606,-102.400051800027,-9.));
#1899=CARTESIAN_POINT('Origin',(-5.20016021885607,-97.4000518000267,-9.));
#1900=CARTESIAN_POINT('',(-10.2001602188561,-9.79999962239527,-9.));
#1901=CARTESIAN_POINT('',(-10.2001602188561,-102.400051800027,-9.));
#1902=CARTESIAN_POINT('',(-5.20016021885607,-4.79999962239527,-9.));
#1903=CARTESIAN_POINT('Origin',(-5.20016021885607,-9.79999962239526,-9.));
#1904=CARTESIAN_POINT('',(81.3999962622088,-4.79999962239527,-9.));
#1905=CARTESIAN_POINT('',(62.2499571419426,-4.79999962239527,-9.));
#1906=CARTESIAN_POINT('',(86.3999962622088,-9.79999962239527,-9.));
#1907=CARTESIAN_POINT('Origin',(81.3999962622088,-9.79999962239527,-9.));
#1908=CARTESIAN_POINT('',(86.3999962622088,-97.4000518000267,-9.));
#1909=CARTESIAN_POINT('',(86.3999962622088,3.77604738588388E-7,-9.));
#1910=CARTESIAN_POINT('',(81.3999962622088,-102.400051800027,-9.));
#1911=CARTESIAN_POINT('Origin',(81.3999962622088,-97.4000518000267,-9.));
#1912=CARTESIAN_POINT('',(86.3999962622088,-102.400051800027,-9.));
#1913=CARTESIAN_POINT('',(79.7003188842863,-10.0004450569913,-9.));
#1914=CARTESIAN_POINT('Origin',(81.4003188842863,-10.0004450569913,-9.));
#1915=CARTESIAN_POINT('',(79.700366610738,-97.39978904105,-9.));
#1916=CARTESIAN_POINT('Origin',(81.400366610738,-97.39978904105,-9.));
#1917=CARTESIAN_POINT('',(-6.90000007450581,-9.99999997019767,-9.));
#1918=CARTESIAN_POINT('Origin',(-5.20000007450581,-9.99999997019767,-9.));
#1919=CARTESIAN_POINT('',(-6.90000007450581,-97.4000011920929,-9.));
#1920=CARTESIAN_POINT('Origin',(-5.20000007450581,-97.4000011920929,-9.));
#1921=CARTESIAN_POINT('Origin',(38.0999180216764,-51.200025711211,-1.11022302462516E-15));
#1922=CARTESIAN_POINT('',(17.3498237360186,-82.6748851529701,-1.11022302462516E-15));
#1923=CARTESIAN_POINT('Origin',(19.0498237360187,-82.6748851529701,-1.11022302462516E-15));
#1924=CARTESIAN_POINT('Origin',(38.0999180216764,-51.200025711211,-1.11022302462516E-15));
#1925=CARTESIAN_POINT('',(55.4498237360187,-44.5748851529701,-1.11022302462516E-15));
#1926=CARTESIAN_POINT('Origin',(57.1498237360187,-44.5748851529701,-1.11022302462516E-15));
#1927=CARTESIAN_POINT('Origin',(38.0999180216764,-51.200025711211,-1.11022302462516E-15));
#1928=CARTESIAN_POINT('',(55.4498237360187,-82.6748851529701,-1.11022302462516E-15));
#1929=CARTESIAN_POINT('Origin',(57.1498237360187,-82.6748851529701,-1.11022302462516E-15));
#1930=CARTESIAN_POINT('Origin',(38.0999180216764,-51.200025711211,-1.11022302462516E-15));
#1931=CARTESIAN_POINT('',(17.3498237360186,-44.5748851529701,-1.11022302462516E-15));
#1932=CARTESIAN_POINT('Origin',(19.0498237360187,-44.5748851529701,-1.11022302462516E-15));
#1933=CARTESIAN_POINT('Origin',(38.0999180216764,-51.200025711211,-1.11022302462516E-15));
#1934=CARTESIAN_POINT('',(36.3998237360187,-63.6248851529701,-1.11022302462516E-15));
#1935=CARTESIAN_POINT('Origin',(38.0998237360187,-63.6248851529701,-1.11022302462516E-15));
#1936=CARTESIAN_POINT('Origin',(27.1907404958399,-6.3,-2.74996818305764));
#1937=CARTESIAN_POINT('',(33.1907404958399,-6.3,-2.49996818305764));
#1938=CARTESIAN_POINT('',(33.1907404958399,-6.3,-2.99996818305765));
#1939=CARTESIAN_POINT('',(33.1907404958399,-6.3,-3.87496818305764));
#1940=CARTESIAN_POINT('',(30.6907404958399,-6.3,3.18169423552117E-5));
#1941=CARTESIAN_POINT('Origin',(30.6907404958399,-6.3,-2.49996818305764));
#1942=CARTESIAN_POINT('',(23.6907404958399,-6.3,3.18169423563219E-5));
#1943=CARTESIAN_POINT('',(29.9407404958399,-6.3,3.18169423563219E-5));
#1944=CARTESIAN_POINT('',(21.1907404958399,-6.3,-2.49996818305765));
#1945=CARTESIAN_POINT('Origin',(23.6907404958399,-6.3,-2.49996818305764));
#1946=CARTESIAN_POINT('',(21.1907404958399,-6.3,-2.99996818305765));
#1947=CARTESIAN_POINT('',(21.1907404958399,-6.3,-1.62496818305764));
#1948=CARTESIAN_POINT('',(23.6907404958399,-6.3,-5.49996818305765));
#1949=CARTESIAN_POINT('Origin',(23.6907404958399,-6.3,-2.99996818305765));
#1950=CARTESIAN_POINT('',(30.6907404958399,-6.3,-5.49996818305765));
#1951=CARTESIAN_POINT('',(24.4407404958399,-6.3,-5.49996818305765));
#1952=CARTESIAN_POINT('Origin',(30.6907404958399,-6.3,-2.99996818305765));
#1953=CARTESIAN_POINT('Origin',(-5.20000007450581,-97.4000011920929,4.));
#1954=CARTESIAN_POINT('',(-6.90000007450581,-97.4000011920929,4.));
#1955=CARTESIAN_POINT('Origin',(-5.20000007450581,-97.4000011920929,4.));
#1956=CARTESIAN_POINT('',(-6.90000007450581,-97.4000011920929,4.));
#1957=CARTESIAN_POINT('Origin',(-5.20000007450581,-9.99999997019767,4.));
#1958=CARTESIAN_POINT('',(-6.90000007450581,-9.99999997019767,4.));
#1959=CARTESIAN_POINT('Origin',(-5.20000007450581,-9.99999997019767,4.));
#1960=CARTESIAN_POINT('',(-6.90000007450581,-9.99999997019767,4.));
#1961=CARTESIAN_POINT('Origin',(81.400366610738,-97.39978904105,4.));
#1962=CARTESIAN_POINT('',(79.700366610738,-97.39978904105,4.));
#1963=CARTESIAN_POINT('Origin',(81.400366610738,-97.39978904105,4.));
#1964=CARTESIAN_POINT('',(79.700366610738,-97.39978904105,4.));
#1965=CARTESIAN_POINT('Origin',(81.4003188842863,-10.0004450569913,4.));
#1966=CARTESIAN_POINT('',(79.7003188842863,-10.0004450569913,4.));
#1967=CARTESIAN_POINT('Origin',(81.4003188842863,-10.0004450569913,4.));
#1968=CARTESIAN_POINT('',(79.7003188842863,-10.0004450569913,4.));
#1969=CARTESIAN_POINT('Origin',(-10.2001602188561,3.77604729706604E-7,-9.));
#1970=CARTESIAN_POINT('',(-10.2001602188561,-97.4000518000267,4.));
#1971=CARTESIAN_POINT('',(-10.2001602188561,-97.4000518000267,-9.));
#1972=CARTESIAN_POINT('',(-10.2001602188561,-9.79999962239527,4.));
#1973=CARTESIAN_POINT('',(-10.2001602188561,-102.400051800027,4.));
#1974=CARTESIAN_POINT('',(-10.2001602188561,-9.79999962239526,-9.));
#1975=CARTESIAN_POINT('Origin',(-5.20016021885607,-9.79999962239526,-9.));
#1976=CARTESIAN_POINT('',(-5.20016021885607,-4.79999962239527,4.));
#1977=CARTESIAN_POINT('Origin',(-5.20016021885607,-9.79999962239526,4.));
#1978=CARTESIAN_POINT('',(-5.20016021885607,-4.79999962239526,-9.));
#1979=CARTESIAN_POINT('Origin',(86.3999962622088,-4.79999962239526,4.));
#1980=CARTESIAN_POINT('',(81.3999962622088,-4.79999962239527,4.));
#1981=CARTESIAN_POINT('',(81.3999962622088,-4.79999962239526,-9.));
#1982=CARTESIAN_POINT('',(62.2499571419426,-4.79999962239527,4.));
#1983=CARTESIAN_POINT('Origin',(81.3999962622088,-9.79999962239527,-9.));
#1984=CARTESIAN_POINT('',(86.3999962622088,-9.79999962239527,4.));
#1985=CARTESIAN_POINT('Origin',(81.3999962622088,-9.79999962239527,4.));
#1986=CARTESIAN_POINT('',(86.3999962622088,-9.79999962239527,-9.));
#1987=CARTESIAN_POINT('Origin',(86.3999962622088,-102.400051800027,-9.));
#1988=CARTESIAN_POINT('',(86.3999962622088,-97.4000518000267,4.));
#1989=CARTESIAN_POINT('',(86.3999962622088,-97.4000518000267,-9.));
#1990=CARTESIAN_POINT('',(86.3999962622088,-4.79999962239526,4.));
#1991=CARTESIAN_POINT('Origin',(81.3999962622088,-97.4000518000267,-9.));
#1992=CARTESIAN_POINT('',(81.3999962622088,-102.400051800027,4.));
#1993=CARTESIAN_POINT('Origin',(81.3999962622088,-97.4000518000267,4.));
#1994=CARTESIAN_POINT('',(81.3999962622088,-102.400051800027,-9.));
#1995=CARTESIAN_POINT('Origin',(-10.2001602188561,-102.400051800027,-9.));
#1996=CARTESIAN_POINT('',(-5.20016021885606,-102.400051800027,4.));
#1997=CARTESIAN_POINT('',(-5.20016021885607,-102.400051800027,-9.));
#1998=CARTESIAN_POINT('',(86.3999962622088,-102.400051800027,4.));
#1999=CARTESIAN_POINT('Origin',(-5.20016021885607,-97.4000518000267,-9.));
#2000=CARTESIAN_POINT('Origin',(-5.20016021885607,-97.4000518000267,4.));
#2001=CARTESIAN_POINT('Origin',(19.0498237360187,-82.6748851529701,-6.));
#2002=CARTESIAN_POINT('',(17.3498237360186,-82.6748851529701,-6.));
#2003=CARTESIAN_POINT('',(17.3498237360186,-82.6748851529701,-6.));
#2004=CARTESIAN_POINT('Origin',(19.0498237360187,-82.6748851529701,-6.));
#2005=CARTESIAN_POINT('Origin',(57.1498237360187,-44.5748851529701,-6.));
#2006=CARTESIAN_POINT('',(55.4498237360187,-44.5748851529701,-6.));
#2007=CARTESIAN_POINT('',(55.4498237360187,-44.5748851529701,-6.));
#2008=CARTESIAN_POINT('Origin',(57.1498237360187,-44.5748851529701,-6.));
#2009=CARTESIAN_POINT('Origin',(57.1498237360187,-82.6748851529701,-6.));
#2010=CARTESIAN_POINT('',(55.4498237360187,-82.6748851529701,-6.));
#2011=CARTESIAN_POINT('',(55.4498237360187,-82.6748851529701,-6.));
#2012=CARTESIAN_POINT('Origin',(57.1498237360187,-82.6748851529701,-6.));
#2013=CARTESIAN_POINT('Origin',(19.0498237360187,-44.5748851529701,-6.));
#2014=CARTESIAN_POINT('',(17.3498237360186,-44.5748851529701,-6.));
#2015=CARTESIAN_POINT('',(17.3498237360186,-44.5748851529701,-6.));
#2016=CARTESIAN_POINT('Origin',(19.0498237360187,-44.5748851529701,-6.));
#2017=CARTESIAN_POINT('Origin',(38.0998237360187,-63.6248851529701,-6.));
#2018=CARTESIAN_POINT('',(36.3998237360187,-63.6248851529701,-6.));
#2019=CARTESIAN_POINT('',(36.3998237360187,-63.6248851529701,-6.));
#2020=CARTESIAN_POINT('Origin',(38.0998237360187,-63.6248851529701,-6.));
#2021=CARTESIAN_POINT('Origin',(76.4000036193058,-92.4000035243109,-6.));
#2022=CARTESIAN_POINT('',(-0.2,-92.4000035243109,-6.));
#2023=CARTESIAN_POINT('',(76.4000036193058,-92.4000035243109,-6.));
#2024=CARTESIAN_POINT('',(57.2499608204911,-92.4000035243109,-6.));
#2025=CARTESIAN_POINT('',(-0.199999999999996,-92.4000035243109,4.));
#2026=CARTESIAN_POINT('',(-0.2,-92.4000035243109,-6.));
#2027=CARTESIAN_POINT('',(76.4000036193058,-92.4000035243109,4.));
#2028=CARTESIAN_POINT('',(76.4000036193058,-92.4000035243109,4.));
#2029=CARTESIAN_POINT('',(76.4000036193058,-92.4000035243109,-6.));
#2030=CARTESIAN_POINT('Origin',(21.1907404958399,-6.8,-1.62496818305764));
#2031=CARTESIAN_POINT('',(21.6907404958399,-6.8,-2.99996818305765));
#2032=CARTESIAN_POINT('Origin',(21.1907404958399,-6.8,-2.99996818305765));
#2033=CARTESIAN_POINT('',(21.6907404958399,-6.8,-2.49996818305764));
#2034=CARTESIAN_POINT('Origin',(21.1907404958399,-6.8,-2.49996818305765));
#2035=CARTESIAN_POINT('',(21.6907404958399,-6.8,-1.62496818305764));
#2036=CARTESIAN_POINT('Origin',(23.6907404958399,-6.8,-2.99996818305765));
#2037=CARTESIAN_POINT('',(23.6907404958399,-6.8,-4.99996818305764));
#2038=CARTESIAN_POINT('Origin',(23.6907404958399,-6.8,-5.49996818305765));
#2039=CARTESIAN_POINT('Origin',(23.6907404958399,-6.8,-2.99996818305765));
#2040=CARTESIAN_POINT('Origin',(24.4407404958399,-6.8,-5.49996818305765));
#2041=CARTESIAN_POINT('',(30.6907404958399,-6.8,-4.99996818305764));
#2042=CARTESIAN_POINT('Origin',(30.6907404958399,-6.8,-5.49996818305765));
#2043=CARTESIAN_POINT('',(24.4407404958399,-6.8,-4.99996818305764));
#2044=CARTESIAN_POINT('Origin',(30.6907404958399,-6.8,-2.99996818305765));
#2045=CARTESIAN_POINT('',(32.6907404958399,-6.8,-2.99996818305765));
#2046=CARTESIAN_POINT('Origin',(30.6907404958399,-6.8,-2.99996818305765));
#2047=CARTESIAN_POINT('Origin',(33.1907404958399,-6.8,-2.99996818305765));
#2048=CARTESIAN_POINT('Origin',(33.1907404958399,-6.8,-3.87496818305764));
#2049=CARTESIAN_POINT('',(32.6907404958399,-6.8,-2.49996818305764));
#2050=CARTESIAN_POINT('',(32.6907404958399,-6.8,-3.87496818305764));
#2051=CARTESIAN_POINT('Origin',(33.1907404958399,-6.8,-2.49996818305764));
#2052=CARTESIAN_POINT('Origin',(30.6907404958399,-6.8,-2.49996818305764));
#2053=CARTESIAN_POINT('',(30.6907404958399,-6.8,-0.499968183057644));
#2054=CARTESIAN_POINT('Origin',(30.6907404958399,-6.8,3.18169423552117E-5));
#2055=CARTESIAN_POINT('Origin',(30.6907404958399,-6.8,-2.49996818305764));
#2056=CARTESIAN_POINT('Origin',(29.9407404958399,-6.8,3.18169423563219E-5));
#2057=CARTESIAN_POINT('',(23.6907404958399,-6.8,-0.499968183057644));
#2058=CARTESIAN_POINT('Origin',(23.6907404958399,-6.8,3.18169423563219E-5));
#2059=CARTESIAN_POINT('',(29.9407404958399,-6.8,-0.499968183057644));
#2060=CARTESIAN_POINT('Origin',(23.6907404958399,-6.8,-2.49996818305764));
#2061=CARTESIAN_POINT('Origin',(23.6907404958399,-6.8,-2.49996818305764));
#2062=CARTESIAN_POINT('Origin',(-0.2,-92.4000035243109,-6.));
#2063=CARTESIAN_POINT('',(-0.199999999999996,-9.80000080983154,4.));
#2064=CARTESIAN_POINT('',(-0.2,-92.4000035243109,4.));
#2065=CARTESIAN_POINT('',(-0.2,-9.80000080983154,-6.));
#2066=CARTESIAN_POINT('',(-0.2,-71.8000146177609,-6.));
#2067=CARTESIAN_POINT('',(-0.2,-9.80000080983154,-6.));
#2068=CARTESIAN_POINT('Origin',(38.0999180216764,-51.200025711211,4.));
#2069=CARTESIAN_POINT('',(76.4000036193058,-9.80000080983152,4.));
#2070=CARTESIAN_POINT('',(-0.2,-9.80000080983153,4.));
#2071=CARTESIAN_POINT('',(76.4000036193058,-9.80000080983153,4.));
#2072=CARTESIAN_POINT('Origin',(76.4000036193058,-9.80000080983153,-6.));
#2073=CARTESIAN_POINT('',(76.4000036193058,-9.80000080983153,-6.));
#2074=CARTESIAN_POINT('',(76.4000036193058,-30.5000132605212,-6.));
#2075=CARTESIAN_POINT('',(76.4000036193058,-9.80000080983153,-6.));
#2076=CARTESIAN_POINT('Origin',(38.0999180216764,-51.200025711211,-6.));
#2077=CARTESIAN_POINT('',(18.9499590108382,-9.80000080983153,-6.));
#2078=CARTESIAN_POINT('Origin',(21.6907404958399,-4.8,-0.499968183057644));
#2079=CARTESIAN_POINT('',(21.6907404958399,-9.80000080983153,-2.49996818305764));
#2080=CARTESIAN_POINT('',(21.6907404958399,-4.8,-2.49996818305764));
#2081=CARTESIAN_POINT('',(21.6907404958399,-9.80000080983153,-2.99996818305765));
#2082=CARTESIAN_POINT('',(21.6907404958399,-9.80000080983153,-3.24998409152882));
#2083=CARTESIAN_POINT('',(21.6907404958399,-4.8,-2.99996818305765));
#2084=CARTESIAN_POINT('Origin',(23.6907404958399,-4.8,-2.99996818305765));
#2085=CARTESIAN_POINT('',(23.6907404958399,-9.80000080983153,-4.99996818305764));
#2086=CARTESIAN_POINT('Origin',(23.6907404958399,-9.80000080983153,-2.99996818305765));
#2087=CARTESIAN_POINT('',(23.6907404958399,-4.8,-4.99996818305764));
#2088=CARTESIAN_POINT('Origin',(21.6907404958399,-4.8,-4.99996818305764));
#2089=CARTESIAN_POINT('',(30.6907404958399,-9.80000080983153,-4.99996818305764));
#2090=CARTESIAN_POINT('',(10.7453702479199,-9.80000080983153,-4.99996818305764));
#2091=CARTESIAN_POINT('',(30.6907404958399,-4.8,-4.99996818305764));
#2092=CARTESIAN_POINT('Origin',(30.6907404958399,-4.8,-2.99996818305765));
#2093=CARTESIAN_POINT('',(32.6907404958399,-9.80000080983153,-2.99996818305765));
#2094=CARTESIAN_POINT('Origin',(30.6907404958399,-9.80000080983153,-2.99996818305765));
#2095=CARTESIAN_POINT('',(32.6907404958399,-4.8,-2.99996818305765));
#2096=CARTESIAN_POINT('Origin',(32.6907404958399,-4.8,-4.99996818305764));
#2097=CARTESIAN_POINT('',(32.6907404958399,-9.80000080983153,-2.49996818305764));
#2098=CARTESIAN_POINT('',(32.6907404958399,-9.80000080983153,-5.49998409152882));
#2099=CARTESIAN_POINT('',(32.6907404958399,-4.8,-2.49996818305764));
#2100=CARTESIAN_POINT('Origin',(17.8907404958399,-7.79999999999999,-1.44996818305764));
#2101=CARTESIAN_POINT('',(36.3907404958399,-9.79999999999999,-1.44996818305764));
#2102=CARTESIAN_POINT('',(32.3929449488948,-9.80000080983153,-1.44996818305764));
#2103=CARTESIAN_POINT('',(8.84537024791994,-9.80000080983153,-1.44996818305764));
#2104=CARTESIAN_POINT('',(36.3907404958399,-7.79999999999999,-1.44996818305764));
#2105=CARTESIAN_POINT('',(36.3907404958399,-7.79999999999999,-1.44996818305764));
#2106=CARTESIAN_POINT('',(32.3929449488948,-7.79999999999999,-1.44996818305764));
#2107=CARTESIAN_POINT('',(17.8907404958399,-7.79999999999999,-1.44996818305764));
#2108=CARTESIAN_POINT('',(32.3929449488948,-4.8,-1.44996818305764));
#2109=CARTESIAN_POINT('Origin',(30.6907404958399,-4.8,-2.49996818305764));
#2110=CARTESIAN_POINT('Origin',(30.6907404958399,-9.80000080983153,-2.49996818305764));
#2111=CARTESIAN_POINT('',(30.6907404958399,-7.79999999999999,-0.499968183057644));
#2112=CARTESIAN_POINT('Origin',(30.6907404958399,-7.79999999999999,-2.49996818305764));
#2113=CARTESIAN_POINT('',(30.6907404958399,-4.8,-0.499968183057644));
#2114=CARTESIAN_POINT('Origin',(32.6907404958399,-4.8,-0.499968183057644));
#2115=CARTESIAN_POINT('',(23.6907404958399,-7.79999999999999,-0.499968183057644));
#2116=CARTESIAN_POINT('',(29.9157404958399,-7.79999999999999,-0.499968183057644));
#2117=CARTESIAN_POINT('',(23.6907404958399,-4.8,-0.499968183057644));
#2118=CARTESIAN_POINT('Origin',(23.6907404958399,-4.8,-2.49996818305764));
#2119=CARTESIAN_POINT('',(21.988536042785,-7.79999999999999,-1.44996818305764));
#2120=CARTESIAN_POINT('Origin',(23.6907404958399,-7.79999999999999,-2.49996818305764));
#2121=CARTESIAN_POINT('',(21.988536042785,-9.80000080983153,-1.44996818305764));
#2122=CARTESIAN_POINT('',(21.988536042785,-4.8,-1.44996818305764));
#2123=CARTESIAN_POINT('Origin',(23.6907404958399,-9.80000080983153,-2.49996818305764));
#2124=CARTESIAN_POINT('Origin',(17.8907404958399,-7.79999999999999,-1.44996818305764));
#2125=CARTESIAN_POINT('',(17.8907404958399,-7.79999999999999,-1.44996818305764));
#2126=CARTESIAN_POINT('',(17.8907404958399,-7.79999999999999,-1.44996818305764));
#2127=CARTESIAN_POINT('',(17.8907404958399,-9.79999999999999,-1.44996818305764));
#2128=CARTESIAN_POINT('',(17.8907404958399,-7.79999999999999,-1.44996818305764));
#2129=CARTESIAN_POINT('',(8.84537024791994,-9.80000080983153,-1.44996818305764));
#2130=CARTESIAN_POINT('Origin',(-0.2,-9.80000080983153,-6.));
#2131=CARTESIAN_POINT('',(36.3907404958399,-9.80000080983153,-3.72498409152882));
#2132=CARTESIAN_POINT('',(17.8907404958399,-9.80000080983153,-2.82498409152883));
#2133=CARTESIAN_POINT('Origin',(36.3907404958399,-7.79999999999999,-1.44996818305764));
#2134=CARTESIAN_POINT('',(36.3907404958399,-7.79999999999999,-1.44996818305764));
#2135=CARTESIAN_POINT('Origin',(27.1407404958399,-7.79999999999999,-0.549968183057644));
#2136=CARTESIAN_POINT('',(17.8907404958399,-7.79999999999999,0.350031816942357));
#2137=CARTESIAN_POINT('Origin',(17.8907404958399,-7.79999999999999,0.350031816942357));
#2138=UNCERTAINTY_MEASURE_WITH_UNIT(LENGTH_MEASURE(0.01),#2142,
'DISTANCE_ACCURACY_VALUE',
'Maximum model space distance between geometric entities at asserted c
onnectivities');
#2139=UNCERTAINTY_MEASURE_WITH_UNIT(LENGTH_MEASURE(0.01),#2142,
'DISTANCE_ACCURACY_VALUE',
'Maximum model space distance between geometric entities at asserted c
onnectivities');
#2140=(
GEOMETRIC_REPRESENTATION_CONTEXT(3)
GLOBAL_UNCERTAINTY_ASSIGNED_CONTEXT((#2138))
GLOBAL_UNIT_ASSIGNED_CONTEXT((#2142,#2144,#2145))
REPRESENTATION_CONTEXT('','3D')
);
#2141=(
GEOMETRIC_REPRESENTATION_CONTEXT(3)
GLOBAL_UNCERTAINTY_ASSIGNED_CONTEXT((#2139))
GLOBAL_UNIT_ASSIGNED_CONTEXT((#2142,#2144,#2145))
REPRESENTATION_CONTEXT('','3D')
);
#2142=(
LENGTH_UNIT()
NAMED_UNIT(*)
SI_UNIT(.MILLI.,.METRE.)
);
#2143=(
LENGTH_UNIT()
NAMED_UNIT(*)
SI_UNIT($,.METRE.)
);
#2144=(
NAMED_UNIT(*)
PLANE_ANGLE_UNIT()
SI_UNIT($,.RADIAN.)
);
#2145=(
NAMED_UNIT(*)
SI_UNIT($,.STERADIAN.)
SOLID_ANGLE_UNIT()
);
#2146=SHAPE_DEFINITION_REPRESENTATION(#2147,#2148);
#2147=PRODUCT_DEFINITION_SHAPE('',$,#2150);
#2148=SHAPE_REPRESENTATION('',(#1246),#2140);
#2149=PRODUCT_DEFINITION_CONTEXT('part definition',#2154,'design');
#2150=PRODUCT_DEFINITION('2026-09-23-00-24-55-218','middle',#2151,#2149);
#2151=PRODUCT_DEFINITION_FORMATION('',$,#2156);
#2152=PRODUCT_RELATED_PRODUCT_CATEGORY('middle','middle',(#2156));
#2153=APPLICATION_PROTOCOL_DEFINITION('international standard',
'automotive_design',2009,#2154);
#2154=APPLICATION_CONTEXT(
'Core Data for Automotive Mechanical Design Process');
#2155=PRODUCT_CONTEXT('part definition',#2154,'mechanical');
#2156=PRODUCT('2026-09-23-00-24-55-218','middle',$,(#2155));
#2157=PRESENTATION_STYLE_ASSIGNMENT((#2158));
#2158=SURFACE_STYLE_USAGE(.BOTH.,#2159);
#2159=SURFACE_SIDE_STYLE('',(#2160));
#2160=SURFACE_STYLE_FILL_AREA(#2161);
#2161=FILL_AREA_STYLE('ABS (Red)',(#2162));
#2162=FILL_AREA_STYLE_COLOUR('ABS (Red)',#2163);
#2163=COLOUR_RGB('ABS (Red)',1.,0.,0.);
ENDSEC;
END-ISO-10303-21;
