ISO-10303-21;
HEADER;
/* Generated by software containing ST-Developer
 * from STEP Tools, Inc. (www.steptools.com) 
 */

FILE_DESCRIPTION(
/* description */ (''),
/* implementation_level */ '2;1');

FILE_NAME(
/* name */ 'hackpad.step',
/* time_stamp */ '2026-09-10T23:12:15-04:00',
/* author */ (''),
/* organization */ (''),
/* preprocessor_version */ 'ST-DEVELOPER v20.2',
/* originating_system */ 'Autodesk Translation Framework v15.15.0.0',
/* authorisation */ '');

FILE_SCHEMA (('AUTOMOTIVE_DESIGN { 1 0 10303 214 3 1 1 }'));
ENDSEC;

DATA;
#10=MECHANICAL_DESIGN_GEOMETRIC_PRESENTATION_REPRESENTATION('',(#13,#14),
#1738);
#11=SHAPE_REPRESENTATION_RELATIONSHIP('SRR','None',#1745,#12);
#12=ADVANCED_BREP_SHAPE_REPRESENTATION('',(#15,#16),#1737);
#13=STYLED_ITEM('',(#1755),#15);
#14=STYLED_ITEM('',(#1756),#16);
#15=MANIFOLD_SOLID_BREP('Body1',#1045);
#16=MANIFOLD_SOLID_BREP('Body11',#1046);
#17=CYLINDRICAL_SURFACE('',#1073,1.45);
#18=CYLINDRICAL_SURFACE('',#1075,1.45);
#19=CYLINDRICAL_SURFACE('',#1077,1.45);
#20=CYLINDRICAL_SURFACE('',#1079,1.45);
#21=CYLINDRICAL_SURFACE('',#1086,1.45);
#22=CYLINDRICAL_SURFACE('',#1089,1.45);
#23=CYLINDRICAL_SURFACE('',#1092,1.45);
#24=CYLINDRICAL_SURFACE('',#1095,1.45);
#25=CYLINDRICAL_SURFACE('',#1098,0.5);
#26=CYLINDRICAL_SURFACE('',#1102,0.499999999999998);
#27=CYLINDRICAL_SURFACE('',#1106,0.499999999999998);
#28=CYLINDRICAL_SURFACE('',#1110,0.499999999999998);
#29=CYLINDRICAL_SURFACE('',#1114,0.5);
#30=CYLINDRICAL_SURFACE('',#1118,0.499999999999998);
#31=CYLINDRICAL_SURFACE('',#1122,0.499999999999998);
#32=CYLINDRICAL_SURFACE('',#1126,0.500000000000003);
#33=CYLINDRICAL_SURFACE('',#1130,0.5);
#34=CYLINDRICAL_SURFACE('',#1134,0.5);
#35=CYLINDRICAL_SURFACE('',#1138,0.499999999999998);
#36=CYLINDRICAL_SURFACE('',#1142,0.499999999999998);
#37=FACE_BOUND('',#160,.T.);
#38=FACE_BOUND('',#161,.T.);
#39=FACE_BOUND('',#162,.T.);
#40=FACE_BOUND('',#163,.T.);
#41=FACE_BOUND('',#173,.T.);
#42=FACE_BOUND('',#174,.T.);
#43=FACE_BOUND('',#175,.T.);
#44=FACE_BOUND('',#176,.T.);
#45=FACE_BOUND('',#210,.T.);
#46=FACE_BOUND('',#211,.T.);
#47=FACE_BOUND('',#212,.T.);
#48=FACE_BOUND('',#213,.T.);
#49=FACE_BOUND('',#214,.T.);
#50=FACE_BOUND('',#215,.T.);
#51=FACE_BOUND('',#216,.T.);
#52=FACE_BOUND('',#218,.T.);
#53=FACE_BOUND('',#219,.T.);
#54=FACE_BOUND('',#220,.T.);
#55=FACE_BOUND('',#221,.T.);
#56=FACE_BOUND('',#222,.T.);
#57=FACE_BOUND('',#223,.T.);
#58=FACE_BOUND('',#224,.T.);
#59=CIRCLE('',#1069,1.45);
#60=CIRCLE('',#1070,1.45);
#61=CIRCLE('',#1071,1.45);
#62=CIRCLE('',#1072,1.45);
#63=CIRCLE('',#1074,1.45);
#64=CIRCLE('',#1076,1.45);
#65=CIRCLE('',#1078,1.45);
#66=CIRCLE('',#1080,1.45);
#67=CIRCLE('',#1087,1.45);
#68=CIRCLE('',#1088,1.45);
#69=CIRCLE('',#1090,1.45);
#70=CIRCLE('',#1091,1.45);
#71=CIRCLE('',#1093,1.45);
#72=CIRCLE('',#1094,1.45);
#73=CIRCLE('',#1096,1.45);
#74=CIRCLE('',#1097,1.45);
#75=CIRCLE('',#1099,0.5);
#76=CIRCLE('',#1100,0.5);
#77=CIRCLE('',#1103,0.499999999999998);
#78=CIRCLE('',#1104,0.499999999999998);
#79=CIRCLE('',#1107,0.499999999999998);
#80=CIRCLE('',#1108,0.499999999999998);
#81=CIRCLE('',#1111,0.499999999999998);
#82=CIRCLE('',#1112,0.499999999999998);
#83=CIRCLE('',#1115,0.5);
#84=CIRCLE('',#1116,0.5);
#85=CIRCLE('',#1119,0.499999999999998);
#86=CIRCLE('',#1120,0.499999999999998);
#87=CIRCLE('',#1123,0.499999999999998);
#88=CIRCLE('',#1124,0.499999999999998);
#89=CIRCLE('',#1127,0.500000000000003);
#90=CIRCLE('',#1128,0.500000000000003);
#91=CIRCLE('',#1131,0.5);
#92=CIRCLE('',#1132,0.5);
#93=CIRCLE('',#1135,0.5);
#94=CIRCLE('',#1136,0.5);
#95=CIRCLE('',#1139,0.499999999999998);
#96=CIRCLE('',#1140,0.499999999999998);
#97=CIRCLE('',#1143,0.499999999999998);
#98=CIRCLE('',#1144,0.499999999999998);
#99=FACE_OUTER_BOUND('',#151,.T.);
#100=FACE_OUTER_BOUND('',#152,.T.);
#101=FACE_OUTER_BOUND('',#153,.T.);
#102=FACE_OUTER_BOUND('',#154,.T.);
#103=FACE_OUTER_BOUND('',#155,.T.);
#104=FACE_OUTER_BOUND('',#156,.T.);
#105=FACE_OUTER_BOUND('',#157,.T.);
#106=FACE_OUTER_BOUND('',#158,.T.);
#107=FACE_OUTER_BOUND('',#159,.T.);
#108=FACE_OUTER_BOUND('',#164,.T.);
#109=FACE_OUTER_BOUND('',#165,.T.);
#110=FACE_OUTER_BOUND('',#166,.T.);
#111=FACE_OUTER_BOUND('',#167,.T.);
#112=FACE_OUTER_BOUND('',#168,.T.);
#113=FACE_OUTER_BOUND('',#169,.T.);
#114=FACE_OUTER_BOUND('',#170,.T.);
#115=FACE_OUTER_BOUND('',#171,.T.);
#116=FACE_OUTER_BOUND('',#172,.T.);
#117=FACE_OUTER_BOUND('',#177,.T.);
#118=FACE_OUTER_BOUND('',#178,.T.);
#119=FACE_OUTER_BOUND('',#179,.T.);
#120=FACE_OUTER_BOUND('',#180,.T.);
#121=FACE_OUTER_BOUND('',#181,.T.);
#122=FACE_OUTER_BOUND('',#182,.T.);
#123=FACE_OUTER_BOUND('',#183,.T.);
#124=FACE_OUTER_BOUND('',#184,.T.);
#125=FACE_OUTER_BOUND('',#185,.T.);
#126=FACE_OUTER_BOUND('',#186,.T.);
#127=FACE_OUTER_BOUND('',#187,.T.);
#128=FACE_OUTER_BOUND('',#188,.T.);
#129=FACE_OUTER_BOUND('',#189,.T.);
#130=FACE_OUTER_BOUND('',#190,.T.);
#131=FACE_OUTER_BOUND('',#191,.T.);
#132=FACE_OUTER_BOUND('',#192,.T.);
#133=FACE_OUTER_BOUND('',#193,.T.);
#134=FACE_OUTER_BOUND('',#194,.T.);
#135=FACE_OUTER_BOUND('',#195,.T.);
#136=FACE_OUTER_BOUND('',#196,.T.);
#137=FACE_OUTER_BOUND('',#197,.T.);
#138=FACE_OUTER_BOUND('',#198,.T.);
#139=FACE_OUTER_BOUND('',#199,.T.);
#140=FACE_OUTER_BOUND('',#200,.T.);
#141=FACE_OUTER_BOUND('',#201,.T.);
#142=FACE_OUTER_BOUND('',#202,.T.);
#143=FACE_OUTER_BOUND('',#203,.T.);
#144=FACE_OUTER_BOUND('',#204,.T.);
#145=FACE_OUTER_BOUND('',#205,.T.);
#146=FACE_OUTER_BOUND('',#206,.T.);
#147=FACE_OUTER_BOUND('',#207,.T.);
#148=FACE_OUTER_BOUND('',#208,.T.);
#149=FACE_OUTER_BOUND('',#209,.T.);
#150=FACE_OUTER_BOUND('',#217,.T.);
#151=EDGE_LOOP('',(#673,#674,#675,#676));
#152=EDGE_LOOP('',(#677,#678,#679,#680));
#153=EDGE_LOOP('',(#681,#682,#683,#684));
#154=EDGE_LOOP('',(#685,#686,#687,#688,#689,#690,#691,#692));
#155=EDGE_LOOP('',(#693,#694,#695,#696));
#156=EDGE_LOOP('',(#697,#698,#699,#700));
#157=EDGE_LOOP('',(#701,#702,#703,#704));
#158=EDGE_LOOP('',(#705,#706,#707,#708));
#159=EDGE_LOOP('',(#709,#710,#711,#712,#713,#714,#715,#716,#717,#718,#719,
#720));
#160=EDGE_LOOP('',(#721));
#161=EDGE_LOOP('',(#722));
#162=EDGE_LOOP('',(#723));
#163=EDGE_LOOP('',(#724));
#164=EDGE_LOOP('',(#725,#726,#727,#728));
#165=EDGE_LOOP('',(#729,#730,#731,#732));
#166=EDGE_LOOP('',(#733,#734,#735,#736));
#167=EDGE_LOOP('',(#737,#738,#739,#740));
#168=EDGE_LOOP('',(#741,#742,#743,#744));
#169=EDGE_LOOP('',(#745,#746,#747,#748));
#170=EDGE_LOOP('',(#749,#750,#751,#752,#753,#754,#755,#756));
#171=EDGE_LOOP('',(#757,#758,#759,#760));
#172=EDGE_LOOP('',(#761,#762,#763,#764));
#173=EDGE_LOOP('',(#765));
#174=EDGE_LOOP('',(#766));
#175=EDGE_LOOP('',(#767));
#176=EDGE_LOOP('',(#768));
#177=EDGE_LOOP('',(#769,#770,#771,#772));
#178=EDGE_LOOP('',(#773,#774,#775,#776));
#179=EDGE_LOOP('',(#777,#778,#779,#780));
#180=EDGE_LOOP('',(#781,#782,#783,#784));
#181=EDGE_LOOP('',(#785,#786,#787,#788));
#182=EDGE_LOOP('',(#789,#790,#791,#792));
#183=EDGE_LOOP('',(#793,#794,#795,#796));
#184=EDGE_LOOP('',(#797,#798,#799,#800));
#185=EDGE_LOOP('',(#801,#802,#803,#804));
#186=EDGE_LOOP('',(#805,#806,#807,#808));
#187=EDGE_LOOP('',(#809,#810,#811,#812));
#188=EDGE_LOOP('',(#813,#814,#815,#816));
#189=EDGE_LOOP('',(#817,#818,#819,#820));
#190=EDGE_LOOP('',(#821,#822,#823,#824));
#191=EDGE_LOOP('',(#825,#826,#827,#828));
#192=EDGE_LOOP('',(#829,#830,#831,#832));
#193=EDGE_LOOP('',(#833,#834,#835,#836));
#194=EDGE_LOOP('',(#837,#838,#839,#840));
#195=EDGE_LOOP('',(#841,#842,#843,#844));
#196=EDGE_LOOP('',(#845,#846,#847,#848));
#197=EDGE_LOOP('',(#849,#850,#851,#852));
#198=EDGE_LOOP('',(#853,#854,#855,#856));
#199=EDGE_LOOP('',(#857,#858,#859,#860));
#200=EDGE_LOOP('',(#861,#862,#863,#864));
#201=EDGE_LOOP('',(#865,#866,#867,#868));
#202=EDGE_LOOP('',(#869,#870,#871,#872));
#203=EDGE_LOOP('',(#873,#874,#875,#876));
#204=EDGE_LOOP('',(#877,#878,#879,#880));
#205=EDGE_LOOP('',(#881,#882,#883,#884));
#206=EDGE_LOOP('',(#885,#886,#887,#888));
#207=EDGE_LOOP('',(#889,#890,#891,#892));
#208=EDGE_LOOP('',(#893,#894,#895,#896));
#209=EDGE_LOOP('',(#897,#898,#899,#900));
#210=EDGE_LOOP('',(#901,#902,#903,#904,#905,#906,#907,#908));
#211=EDGE_LOOP('',(#909,#910,#911,#912,#913,#914,#915,#916));
#212=EDGE_LOOP('',(#917,#918,#919,#920,#921,#922,#923,#924));
#213=EDGE_LOOP('',(#925));
#214=EDGE_LOOP('',(#926));
#215=EDGE_LOOP('',(#927));
#216=EDGE_LOOP('',(#928));
#217=EDGE_LOOP('',(#929,#930,#931,#932));
#218=EDGE_LOOP('',(#933,#934,#935,#936,#937,#938,#939,#940));
#219=EDGE_LOOP('',(#941,#942,#943,#944,#945,#946,#947,#948));
#220=EDGE_LOOP('',(#949,#950,#951,#952,#953,#954,#955,#956));
#221=EDGE_LOOP('',(#957));
#222=EDGE_LOOP('',(#958));
#223=EDGE_LOOP('',(#959));
#224=EDGE_LOOP('',(#960));
#225=LINE('',#1446,#329);
#226=LINE('',#1448,#330);
#227=LINE('',#1450,#331);
#228=LINE('',#1451,#332);
#229=LINE('',#1454,#333);
#230=LINE('',#1456,#334);
#231=LINE('',#1457,#335);
#232=LINE('',#1460,#336);
#233=LINE('',#1462,#337);
#234=LINE('',#1463,#338);
#235=LINE('',#1466,#339);
#236=LINE('',#1468,#340);
#237=LINE('',#1470,#341);
#238=LINE('',#1472,#342);
#239=LINE('',#1473,#343);
#240=LINE('',#1476,#344);
#241=LINE('',#1478,#345);
#242=LINE('',#1479,#346);
#243=LINE('',#1482,#347);
#244=LINE('',#1483,#348);
#245=LINE('',#1486,#349);
#246=LINE('',#1487,#350);
#247=LINE('',#1489,#351);
#248=LINE('',#1492,#352);
#249=LINE('',#1494,#353);
#250=LINE('',#1496,#354);
#251=LINE('',#1498,#355);
#252=LINE('',#1499,#356);
#253=LINE('',#1510,#357);
#254=LINE('',#1514,#358);
#255=LINE('',#1518,#359);
#256=LINE('',#1522,#360);
#257=LINE('',#1527,#361);
#258=LINE('',#1528,#362);
#259=LINE('',#1529,#363);
#260=LINE('',#1532,#364);
#261=LINE('',#1533,#365);
#262=LINE('',#1536,#366);
#263=LINE('',#1537,#367);
#264=LINE('',#1539,#368);
#265=LINE('',#1545,#369);
#266=LINE('',#1551,#370);
#267=LINE('',#1557,#371);
#268=LINE('',#1563,#372);
#269=LINE('',#1570,#373);
#270=LINE('',#1573,#374);
#271=LINE('',#1576,#375);
#272=LINE('',#1578,#376);
#273=LINE('',#1579,#377);
#274=LINE('',#1585,#378);
#275=LINE('',#1588,#379);
#276=LINE('',#1590,#380);
#277=LINE('',#1591,#381);
#278=LINE('',#1597,#382);
#279=LINE('',#1600,#383);
#280=LINE('',#1602,#384);
#281=LINE('',#1603,#385);
#282=LINE('',#1609,#386);
#283=LINE('',#1611,#387);
#284=LINE('',#1612,#388);
#285=LINE('',#1618,#389);
#286=LINE('',#1621,#390);
#287=LINE('',#1624,#391);
#288=LINE('',#1626,#392);
#289=LINE('',#1627,#393);
#290=LINE('',#1633,#394);
#291=LINE('',#1636,#395);
#292=LINE('',#1638,#396);
#293=LINE('',#1639,#397);
#294=LINE('',#1645,#398);
#295=LINE('',#1648,#399);
#296=LINE('',#1650,#400);
#297=LINE('',#1651,#401);
#298=LINE('',#1657,#402);
#299=LINE('',#1659,#403);
#300=LINE('',#1660,#404);
#301=LINE('',#1666,#405);
#302=LINE('',#1669,#406);
#303=LINE('',#1672,#407);
#304=LINE('',#1674,#408);
#305=LINE('',#1675,#409);
#306=LINE('',#1681,#410);
#307=LINE('',#1684,#411);
#308=LINE('',#1686,#412);
#309=LINE('',#1687,#413);
#310=LINE('',#1693,#414);
#311=LINE('',#1696,#415);
#312=LINE('',#1698,#416);
#313=LINE('',#1699,#417);
#314=LINE('',#1705,#418);
#315=LINE('',#1707,#419);
#316=LINE('',#1708,#420);
#317=LINE('',#1712,#421);
#318=LINE('',#1714,#422);
#319=LINE('',#1716,#423);
#320=LINE('',#1717,#424);
#321=LINE('',#1720,#425);
#322=LINE('',#1722,#426);
#323=LINE('',#1723,#427);
#324=LINE('',#1726,#428);
#325=LINE('',#1728,#429);
#326=LINE('',#1729,#430);
#327=LINE('',#1731,#431);
#328=LINE('',#1732,#432);
#329=VECTOR('',#1156,10.);
#330=VECTOR('',#1157,10.);
#331=VECTOR('',#1158,10.);
#332=VECTOR('',#1159,10.);
#333=VECTOR('',#1162,10.);
#334=VECTOR('',#1163,10.);
#335=VECTOR('',#1164,10.);
#336=VECTOR('',#1167,10.);
#337=VECTOR('',#1168,10.);
#338=VECTOR('',#1169,10.);
#339=VECTOR('',#1172,10.);
#340=VECTOR('',#1173,10.);
#341=VECTOR('',#1174,10.);
#342=VECTOR('',#1175,10.);
#343=VECTOR('',#1176,10.);
#344=VECTOR('',#1179,10.);
#345=VECTOR('',#1180,10.);
#346=VECTOR('',#1181,10.);
#347=VECTOR('',#1184,10.);
#348=VECTOR('',#1185,10.);
#349=VECTOR('',#1188,10.);
#350=VECTOR('',#1189,10.);
#351=VECTOR('',#1192,10.);
#352=VECTOR('',#1195,10.);
#353=VECTOR('',#1196,10.);
#354=VECTOR('',#1197,10.);
#355=VECTOR('',#1198,10.);
#356=VECTOR('',#1199,10.);
#357=VECTOR('',#1210,1.45);
#358=VECTOR('',#1215,1.45);
#359=VECTOR('',#1220,1.45);
#360=VECTOR('',#1225,1.45);
#361=VECTOR('',#1230,10.);
#362=VECTOR('',#1231,10.);
#363=VECTOR('',#1232,10.);
#364=VECTOR('',#1235,10.);
#365=VECTOR('',#1236,10.);
#366=VECTOR('',#1239,10.);
#367=VECTOR('',#1240,10.);
#368=VECTOR('',#1243,10.);
#369=VECTOR('',#1250,1.45);
#370=VECTOR('',#1257,1.45);
#371=VECTOR('',#1264,1.45);
#372=VECTOR('',#1271,1.45);
#373=VECTOR('',#1278,10.);
#374=VECTOR('',#1281,10.);
#375=VECTOR('',#1284,10.);
#376=VECTOR('',#1285,10.);
#377=VECTOR('',#1286,10.);
#378=VECTOR('',#1293,10.);
#379=VECTOR('',#1296,10.);
#380=VECTOR('',#1297,10.);
#381=VECTOR('',#1298,10.);
#382=VECTOR('',#1305,10.);
#383=VECTOR('',#1308,10.);
#384=VECTOR('',#1309,10.);
#385=VECTOR('',#1310,10.);
#386=VECTOR('',#1317,10.);
#387=VECTOR('',#1320,10.);
#388=VECTOR('',#1321,10.);
#389=VECTOR('',#1326,10.);
#390=VECTOR('',#1329,10.);
#391=VECTOR('',#1332,10.);
#392=VECTOR('',#1333,10.);
#393=VECTOR('',#1334,10.);
#394=VECTOR('',#1341,10.);
#395=VECTOR('',#1344,10.);
#396=VECTOR('',#1345,10.);
#397=VECTOR('',#1346,10.);
#398=VECTOR('',#1353,10.);
#399=VECTOR('',#1356,10.);
#400=VECTOR('',#1357,10.);
#401=VECTOR('',#1358,10.);
#402=VECTOR('',#1365,10.);
#403=VECTOR('',#1368,10.);
#404=VECTOR('',#1369,10.);
#405=VECTOR('',#1374,10.);
#406=VECTOR('',#1377,10.);
#407=VECTOR('',#1380,10.);
#408=VECTOR('',#1381,10.);
#409=VECTOR('',#1382,10.);
#410=VECTOR('',#1389,10.);
#411=VECTOR('',#1392,10.);
#412=VECTOR('',#1393,10.);
#413=VECTOR('',#1394,10.);
#414=VECTOR('',#1401,10.);
#415=VECTOR('',#1404,10.);
#416=VECTOR('',#1405,10.);
#417=VECTOR('',#1406,10.);
#418=VECTOR('',#1413,10.);
#419=VECTOR('',#1416,10.);
#420=VECTOR('',#1417,10.);
#421=VECTOR('',#1420,10.);
#422=VECTOR('',#1421,10.);
#423=VECTOR('',#1422,10.);
#424=VECTOR('',#1423,10.);
#425=VECTOR('',#1426,10.);
#426=VECTOR('',#1427,10.);
#427=VECTOR('',#1428,10.);
#428=VECTOR('',#1431,10.);
#429=VECTOR('',#1432,10.);
#430=VECTOR('',#1433,10.);
#431=VECTOR('',#1436,10.);
#432=VECTOR('',#1437,10.);
#433=VERTEX_POINT('',#1444);
#434=VERTEX_POINT('',#1445);
#435=VERTEX_POINT('',#1447);
#436=VERTEX_POINT('',#1449);
#437=VERTEX_POINT('',#1453);
#438=VERTEX_POINT('',#1455);
#439=VERTEX_POINT('',#1459);
#440=VERTEX_POINT('',#1461);
#441=VERTEX_POINT('',#1465);
#442=VERTEX_POINT('',#1467);
#443=VERTEX_POINT('',#1469);
#444=VERTEX_POINT('',#1471);
#445=VERTEX_POINT('',#1475);
#446=VERTEX_POINT('',#1477);
#447=VERTEX_POINT('',#1481);
#448=VERTEX_POINT('',#1485);
#449=VERTEX_POINT('',#1491);
#450=VERTEX_POINT('',#1493);
#451=VERTEX_POINT('',#1495);
#452=VERTEX_POINT('',#1497);
#453=VERTEX_POINT('',#1500);
#454=VERTEX_POINT('',#1502);
#455=VERTEX_POINT('',#1504);
#456=VERTEX_POINT('',#1506);
#457=VERTEX_POINT('',#1509);
#458=VERTEX_POINT('',#1513);
#459=VERTEX_POINT('',#1517);
#460=VERTEX_POINT('',#1521);
#461=VERTEX_POINT('',#1525);
#462=VERTEX_POINT('',#1526);
#463=VERTEX_POINT('',#1531);
#464=VERTEX_POINT('',#1535);
#465=VERTEX_POINT('',#1542);
#466=VERTEX_POINT('',#1544);
#467=VERTEX_POINT('',#1548);
#468=VERTEX_POINT('',#1550);
#469=VERTEX_POINT('',#1554);
#470=VERTEX_POINT('',#1556);
#471=VERTEX_POINT('',#1560);
#472=VERTEX_POINT('',#1562);
#473=VERTEX_POINT('',#1566);
#474=VERTEX_POINT('',#1567);
#475=VERTEX_POINT('',#1569);
#476=VERTEX_POINT('',#1571);
#477=VERTEX_POINT('',#1575);
#478=VERTEX_POINT('',#1577);
#479=VERTEX_POINT('',#1581);
#480=VERTEX_POINT('',#1583);
#481=VERTEX_POINT('',#1587);
#482=VERTEX_POINT('',#1589);
#483=VERTEX_POINT('',#1593);
#484=VERTEX_POINT('',#1595);
#485=VERTEX_POINT('',#1599);
#486=VERTEX_POINT('',#1601);
#487=VERTEX_POINT('',#1605);
#488=VERTEX_POINT('',#1607);
#489=VERTEX_POINT('',#1614);
#490=VERTEX_POINT('',#1615);
#491=VERTEX_POINT('',#1617);
#492=VERTEX_POINT('',#1619);
#493=VERTEX_POINT('',#1623);
#494=VERTEX_POINT('',#1625);
#495=VERTEX_POINT('',#1629);
#496=VERTEX_POINT('',#1631);
#497=VERTEX_POINT('',#1635);
#498=VERTEX_POINT('',#1637);
#499=VERTEX_POINT('',#1641);
#500=VERTEX_POINT('',#1643);
#501=VERTEX_POINT('',#1647);
#502=VERTEX_POINT('',#1649);
#503=VERTEX_POINT('',#1653);
#504=VERTEX_POINT('',#1655);
#505=VERTEX_POINT('',#1662);
#506=VERTEX_POINT('',#1663);
#507=VERTEX_POINT('',#1665);
#508=VERTEX_POINT('',#1667);
#509=VERTEX_POINT('',#1671);
#510=VERTEX_POINT('',#1673);
#511=VERTEX_POINT('',#1677);
#512=VERTEX_POINT('',#1679);
#513=VERTEX_POINT('',#1683);
#514=VERTEX_POINT('',#1685);
#515=VERTEX_POINT('',#1689);
#516=VERTEX_POINT('',#1691);
#517=VERTEX_POINT('',#1695);
#518=VERTEX_POINT('',#1697);
#519=VERTEX_POINT('',#1701);
#520=VERTEX_POINT('',#1703);
#521=VERTEX_POINT('',#1710);
#522=VERTEX_POINT('',#1711);
#523=VERTEX_POINT('',#1713);
#524=VERTEX_POINT('',#1715);
#525=VERTEX_POINT('',#1719);
#526=VERTEX_POINT('',#1721);
#527=VERTEX_POINT('',#1725);
#528=VERTEX_POINT('',#1727);
#529=EDGE_CURVE('',#433,#434,#225,.T.);
#530=EDGE_CURVE('',#433,#435,#226,.T.);
#531=EDGE_CURVE('',#436,#435,#227,.T.);
#532=EDGE_CURVE('',#434,#436,#228,.T.);
#533=EDGE_CURVE('',#437,#433,#229,.T.);
#534=EDGE_CURVE('',#438,#437,#230,.T.);
#535=EDGE_CURVE('',#435,#438,#231,.T.);
#536=EDGE_CURVE('',#434,#439,#232,.T.);
#537=EDGE_CURVE('',#440,#436,#233,.T.);
#538=EDGE_CURVE('',#439,#440,#234,.T.);
#539=EDGE_CURVE('',#441,#438,#235,.T.);
#540=EDGE_CURVE('',#442,#441,#236,.T.);
#541=EDGE_CURVE('',#443,#442,#237,.T.);
#542=EDGE_CURVE('',#443,#444,#238,.T.);
#543=EDGE_CURVE('',#440,#444,#239,.T.);
#544=EDGE_CURVE('',#445,#443,#240,.T.);
#545=EDGE_CURVE('',#445,#446,#241,.T.);
#546=EDGE_CURVE('',#444,#446,#242,.T.);
#547=EDGE_CURVE('',#442,#447,#243,.T.);
#548=EDGE_CURVE('',#447,#445,#244,.T.);
#549=EDGE_CURVE('',#447,#448,#245,.T.);
#550=EDGE_CURVE('',#446,#448,#246,.T.);
#551=EDGE_CURVE('',#448,#441,#247,.T.);
#552=EDGE_CURVE('',#437,#449,#248,.T.);
#553=EDGE_CURVE('',#449,#450,#249,.T.);
#554=EDGE_CURVE('',#450,#451,#250,.T.);
#555=EDGE_CURVE('',#451,#452,#251,.T.);
#556=EDGE_CURVE('',#452,#439,#252,.T.);
#557=EDGE_CURVE('',#453,#453,#59,.T.);
#558=EDGE_CURVE('',#454,#454,#60,.T.);
#559=EDGE_CURVE('',#455,#455,#61,.T.);
#560=EDGE_CURVE('',#456,#456,#62,.T.);
#561=EDGE_CURVE('',#456,#457,#253,.T.);
#562=EDGE_CURVE('',#457,#457,#63,.T.);
#563=EDGE_CURVE('',#455,#458,#254,.T.);
#564=EDGE_CURVE('',#458,#458,#64,.T.);
#565=EDGE_CURVE('',#454,#459,#255,.T.);
#566=EDGE_CURVE('',#459,#459,#65,.T.);
#567=EDGE_CURVE('',#453,#460,#256,.T.);
#568=EDGE_CURVE('',#460,#460,#66,.T.);
#569=EDGE_CURVE('',#461,#462,#257,.T.);
#570=EDGE_CURVE('',#461,#451,#258,.T.);
#571=EDGE_CURVE('',#462,#450,#259,.T.);
#572=EDGE_CURVE('',#462,#463,#260,.T.);
#573=EDGE_CURVE('',#463,#449,#261,.T.);
#574=EDGE_CURVE('',#464,#452,#262,.T.);
#575=EDGE_CURVE('',#463,#464,#263,.T.);
#576=EDGE_CURVE('',#464,#461,#264,.T.);
#577=EDGE_CURVE('',#465,#465,#67,.T.);
#578=EDGE_CURVE('',#465,#466,#265,.T.);
#579=EDGE_CURVE('',#466,#466,#68,.T.);
#580=EDGE_CURVE('',#467,#467,#69,.T.);
#581=EDGE_CURVE('',#467,#468,#266,.T.);
#582=EDGE_CURVE('',#468,#468,#70,.T.);
#583=EDGE_CURVE('',#469,#469,#71,.T.);
#584=EDGE_CURVE('',#469,#470,#267,.T.);
#585=EDGE_CURVE('',#470,#470,#72,.T.);
#586=EDGE_CURVE('',#471,#471,#73,.T.);
#587=EDGE_CURVE('',#471,#472,#268,.T.);
#588=EDGE_CURVE('',#472,#472,#74,.T.);
#589=EDGE_CURVE('',#473,#474,#75,.T.);
#590=EDGE_CURVE('',#473,#475,#269,.T.);
#591=EDGE_CURVE('',#476,#475,#76,.T.);
#592=EDGE_CURVE('',#474,#476,#270,.T.);
#593=EDGE_CURVE('',#474,#477,#271,.T.);
#594=EDGE_CURVE('',#478,#476,#272,.T.);
#595=EDGE_CURVE('',#477,#478,#273,.T.);
#596=EDGE_CURVE('',#477,#479,#77,.T.);
#597=EDGE_CURVE('',#480,#478,#78,.T.);
#598=EDGE_CURVE('',#479,#480,#274,.T.);
#599=EDGE_CURVE('',#479,#481,#275,.T.);
#600=EDGE_CURVE('',#482,#480,#276,.T.);
#601=EDGE_CURVE('',#481,#482,#277,.T.);
#602=EDGE_CURVE('',#481,#483,#79,.T.);
#603=EDGE_CURVE('',#484,#482,#80,.T.);
#604=EDGE_CURVE('',#483,#484,#278,.T.);
#605=EDGE_CURVE('',#485,#483,#279,.T.);
#606=EDGE_CURVE('',#486,#484,#280,.T.);
#607=EDGE_CURVE('',#485,#486,#281,.T.);
#608=EDGE_CURVE('',#485,#487,#81,.T.);
#609=EDGE_CURVE('',#488,#486,#82,.T.);
#610=EDGE_CURVE('',#487,#488,#282,.T.);
#611=EDGE_CURVE('',#473,#487,#283,.T.);
#612=EDGE_CURVE('',#475,#488,#284,.T.);
#613=EDGE_CURVE('',#489,#490,#83,.T.);
#614=EDGE_CURVE('',#489,#491,#285,.T.);
#615=EDGE_CURVE('',#492,#491,#84,.T.);
#616=EDGE_CURVE('',#490,#492,#286,.T.);
#617=EDGE_CURVE('',#490,#493,#287,.T.);
#618=EDGE_CURVE('',#494,#492,#288,.T.);
#619=EDGE_CURVE('',#493,#494,#289,.T.);
#620=EDGE_CURVE('',#493,#495,#85,.T.);
#621=EDGE_CURVE('',#496,#494,#86,.T.);
#622=EDGE_CURVE('',#495,#496,#290,.T.);
#623=EDGE_CURVE('',#495,#497,#291,.T.);
#624=EDGE_CURVE('',#498,#496,#292,.T.);
#625=EDGE_CURVE('',#497,#498,#293,.T.);
#626=EDGE_CURVE('',#497,#499,#87,.T.);
#627=EDGE_CURVE('',#500,#498,#88,.T.);
#628=EDGE_CURVE('',#499,#500,#294,.T.);
#629=EDGE_CURVE('',#501,#499,#295,.T.);
#630=EDGE_CURVE('',#502,#500,#296,.T.);
#631=EDGE_CURVE('',#501,#502,#297,.T.);
#632=EDGE_CURVE('',#501,#503,#89,.T.);
#633=EDGE_CURVE('',#504,#502,#90,.T.);
#634=EDGE_CURVE('',#503,#504,#298,.T.);
#635=EDGE_CURVE('',#489,#503,#299,.T.);
#636=EDGE_CURVE('',#491,#504,#300,.T.);
#637=EDGE_CURVE('',#505,#506,#91,.T.);
#638=EDGE_CURVE('',#505,#507,#301,.T.);
#639=EDGE_CURVE('',#508,#507,#92,.T.);
#640=EDGE_CURVE('',#506,#508,#302,.T.);
#641=EDGE_CURVE('',#506,#509,#303,.T.);
#642=EDGE_CURVE('',#510,#508,#304,.T.);
#643=EDGE_CURVE('',#509,#510,#305,.T.);
#644=EDGE_CURVE('',#509,#511,#93,.T.);
#645=EDGE_CURVE('',#512,#510,#94,.T.);
#646=EDGE_CURVE('',#511,#512,#306,.T.);
#647=EDGE_CURVE('',#511,#513,#307,.T.);
#648=EDGE_CURVE('',#514,#512,#308,.T.);
#649=EDGE_CURVE('',#513,#514,#309,.T.);
#650=EDGE_CURVE('',#513,#515,#95,.T.);
#651=EDGE_CURVE('',#516,#514,#96,.T.);
#652=EDGE_CURVE('',#515,#516,#310,.T.);
#653=EDGE_CURVE('',#517,#515,#311,.T.);
#654=EDGE_CURVE('',#518,#516,#312,.T.);
#655=EDGE_CURVE('',#517,#518,#313,.T.);
#656=EDGE_CURVE('',#517,#519,#97,.T.);
#657=EDGE_CURVE('',#520,#518,#98,.T.);
#658=EDGE_CURVE('',#519,#520,#314,.T.);
#659=EDGE_CURVE('',#505,#519,#315,.T.);
#660=EDGE_CURVE('',#507,#520,#316,.T.);
#661=EDGE_CURVE('',#521,#522,#317,.T.);
#662=EDGE_CURVE('',#521,#523,#318,.T.);
#663=EDGE_CURVE('',#524,#523,#319,.T.);
#664=EDGE_CURVE('',#522,#524,#320,.T.);
#665=EDGE_CURVE('',#522,#525,#321,.T.);
#666=EDGE_CURVE('',#526,#524,#322,.T.);
#667=EDGE_CURVE('',#525,#526,#323,.T.);
#668=EDGE_CURVE('',#525,#527,#324,.T.);
#669=EDGE_CURVE('',#528,#526,#325,.T.);
#670=EDGE_CURVE('',#527,#528,#326,.T.);
#671=EDGE_CURVE('',#527,#521,#327,.T.);
#672=EDGE_CURVE('',#523,#528,#328,.T.);
#673=ORIENTED_EDGE('',*,*,#529,.F.);
#674=ORIENTED_EDGE('',*,*,#530,.T.);
#675=ORIENTED_EDGE('',*,*,#531,.F.);
#676=ORIENTED_EDGE('',*,*,#532,.F.);
#677=ORIENTED_EDGE('',*,*,#533,.F.);
#678=ORIENTED_EDGE('',*,*,#534,.F.);
#679=ORIENTED_EDGE('',*,*,#535,.F.);
#680=ORIENTED_EDGE('',*,*,#530,.F.);
#681=ORIENTED_EDGE('',*,*,#536,.F.);
#682=ORIENTED_EDGE('',*,*,#532,.T.);
#683=ORIENTED_EDGE('',*,*,#537,.F.);
#684=ORIENTED_EDGE('',*,*,#538,.F.);
#685=ORIENTED_EDGE('',*,*,#537,.T.);
#686=ORIENTED_EDGE('',*,*,#531,.T.);
#687=ORIENTED_EDGE('',*,*,#535,.T.);
#688=ORIENTED_EDGE('',*,*,#539,.F.);
#689=ORIENTED_EDGE('',*,*,#540,.F.);
#690=ORIENTED_EDGE('',*,*,#541,.F.);
#691=ORIENTED_EDGE('',*,*,#542,.T.);
#692=ORIENTED_EDGE('',*,*,#543,.F.);
#693=ORIENTED_EDGE('',*,*,#542,.F.);
#694=ORIENTED_EDGE('',*,*,#544,.F.);
#695=ORIENTED_EDGE('',*,*,#545,.T.);
#696=ORIENTED_EDGE('',*,*,#546,.F.);
#697=ORIENTED_EDGE('',*,*,#541,.T.);
#698=ORIENTED_EDGE('',*,*,#547,.T.);
#699=ORIENTED_EDGE('',*,*,#548,.T.);
#700=ORIENTED_EDGE('',*,*,#544,.T.);
#701=ORIENTED_EDGE('',*,*,#548,.F.);
#702=ORIENTED_EDGE('',*,*,#549,.T.);
#703=ORIENTED_EDGE('',*,*,#550,.F.);
#704=ORIENTED_EDGE('',*,*,#545,.F.);
#705=ORIENTED_EDGE('',*,*,#547,.F.);
#706=ORIENTED_EDGE('',*,*,#540,.T.);
#707=ORIENTED_EDGE('',*,*,#551,.F.);
#708=ORIENTED_EDGE('',*,*,#549,.F.);
#709=ORIENTED_EDGE('',*,*,#538,.T.);
#710=ORIENTED_EDGE('',*,*,#543,.T.);
#711=ORIENTED_EDGE('',*,*,#546,.T.);
#712=ORIENTED_EDGE('',*,*,#550,.T.);
#713=ORIENTED_EDGE('',*,*,#551,.T.);
#714=ORIENTED_EDGE('',*,*,#539,.T.);
#715=ORIENTED_EDGE('',*,*,#534,.T.);
#716=ORIENTED_EDGE('',*,*,#552,.T.);
#717=ORIENTED_EDGE('',*,*,#553,.T.);
#718=ORIENTED_EDGE('',*,*,#554,.T.);
#719=ORIENTED_EDGE('',*,*,#555,.T.);
#720=ORIENTED_EDGE('',*,*,#556,.T.);
#721=ORIENTED_EDGE('',*,*,#557,.T.);
#722=ORIENTED_EDGE('',*,*,#558,.T.);
#723=ORIENTED_EDGE('',*,*,#559,.T.);
#724=ORIENTED_EDGE('',*,*,#560,.T.);
#725=ORIENTED_EDGE('',*,*,#560,.F.);
#726=ORIENTED_EDGE('',*,*,#561,.T.);
#727=ORIENTED_EDGE('',*,*,#562,.F.);
#728=ORIENTED_EDGE('',*,*,#561,.F.);
#729=ORIENTED_EDGE('',*,*,#559,.F.);
#730=ORIENTED_EDGE('',*,*,#563,.T.);
#731=ORIENTED_EDGE('',*,*,#564,.F.);
#732=ORIENTED_EDGE('',*,*,#563,.F.);
#733=ORIENTED_EDGE('',*,*,#558,.F.);
#734=ORIENTED_EDGE('',*,*,#565,.T.);
#735=ORIENTED_EDGE('',*,*,#566,.F.);
#736=ORIENTED_EDGE('',*,*,#565,.F.);
#737=ORIENTED_EDGE('',*,*,#557,.F.);
#738=ORIENTED_EDGE('',*,*,#567,.T.);
#739=ORIENTED_EDGE('',*,*,#568,.F.);
#740=ORIENTED_EDGE('',*,*,#567,.F.);
#741=ORIENTED_EDGE('',*,*,#569,.F.);
#742=ORIENTED_EDGE('',*,*,#570,.T.);
#743=ORIENTED_EDGE('',*,*,#554,.F.);
#744=ORIENTED_EDGE('',*,*,#571,.F.);
#745=ORIENTED_EDGE('',*,*,#572,.F.);
#746=ORIENTED_EDGE('',*,*,#571,.T.);
#747=ORIENTED_EDGE('',*,*,#553,.F.);
#748=ORIENTED_EDGE('',*,*,#573,.F.);
#749=ORIENTED_EDGE('',*,*,#536,.T.);
#750=ORIENTED_EDGE('',*,*,#556,.F.);
#751=ORIENTED_EDGE('',*,*,#574,.F.);
#752=ORIENTED_EDGE('',*,*,#575,.F.);
#753=ORIENTED_EDGE('',*,*,#573,.T.);
#754=ORIENTED_EDGE('',*,*,#552,.F.);
#755=ORIENTED_EDGE('',*,*,#533,.T.);
#756=ORIENTED_EDGE('',*,*,#529,.T.);
#757=ORIENTED_EDGE('',*,*,#576,.F.);
#758=ORIENTED_EDGE('',*,*,#574,.T.);
#759=ORIENTED_EDGE('',*,*,#555,.F.);
#760=ORIENTED_EDGE('',*,*,#570,.F.);
#761=ORIENTED_EDGE('',*,*,#576,.T.);
#762=ORIENTED_EDGE('',*,*,#569,.T.);
#763=ORIENTED_EDGE('',*,*,#572,.T.);
#764=ORIENTED_EDGE('',*,*,#575,.T.);
#765=ORIENTED_EDGE('',*,*,#568,.T.);
#766=ORIENTED_EDGE('',*,*,#566,.T.);
#767=ORIENTED_EDGE('',*,*,#564,.T.);
#768=ORIENTED_EDGE('',*,*,#562,.T.);
#769=ORIENTED_EDGE('',*,*,#577,.F.);
#770=ORIENTED_EDGE('',*,*,#578,.T.);
#771=ORIENTED_EDGE('',*,*,#579,.F.);
#772=ORIENTED_EDGE('',*,*,#578,.F.);
#773=ORIENTED_EDGE('',*,*,#580,.F.);
#774=ORIENTED_EDGE('',*,*,#581,.T.);
#775=ORIENTED_EDGE('',*,*,#582,.F.);
#776=ORIENTED_EDGE('',*,*,#581,.F.);
#777=ORIENTED_EDGE('',*,*,#583,.F.);
#778=ORIENTED_EDGE('',*,*,#584,.T.);
#779=ORIENTED_EDGE('',*,*,#585,.F.);
#780=ORIENTED_EDGE('',*,*,#584,.F.);
#781=ORIENTED_EDGE('',*,*,#586,.F.);
#782=ORIENTED_EDGE('',*,*,#587,.T.);
#783=ORIENTED_EDGE('',*,*,#588,.F.);
#784=ORIENTED_EDGE('',*,*,#587,.F.);
#785=ORIENTED_EDGE('',*,*,#589,.F.);
#786=ORIENTED_EDGE('',*,*,#590,.T.);
#787=ORIENTED_EDGE('',*,*,#591,.F.);
#788=ORIENTED_EDGE('',*,*,#592,.F.);
#789=ORIENTED_EDGE('',*,*,#593,.F.);
#790=ORIENTED_EDGE('',*,*,#592,.T.);
#791=ORIENTED_EDGE('',*,*,#594,.F.);
#792=ORIENTED_EDGE('',*,*,#595,.F.);
#793=ORIENTED_EDGE('',*,*,#596,.F.);
#794=ORIENTED_EDGE('',*,*,#595,.T.);
#795=ORIENTED_EDGE('',*,*,#597,.F.);
#796=ORIENTED_EDGE('',*,*,#598,.F.);
#797=ORIENTED_EDGE('',*,*,#599,.F.);
#798=ORIENTED_EDGE('',*,*,#598,.T.);
#799=ORIENTED_EDGE('',*,*,#600,.F.);
#800=ORIENTED_EDGE('',*,*,#601,.F.);
#801=ORIENTED_EDGE('',*,*,#602,.F.);
#802=ORIENTED_EDGE('',*,*,#601,.T.);
#803=ORIENTED_EDGE('',*,*,#603,.F.);
#804=ORIENTED_EDGE('',*,*,#604,.F.);
#805=ORIENTED_EDGE('',*,*,#605,.T.);
#806=ORIENTED_EDGE('',*,*,#604,.T.);
#807=ORIENTED_EDGE('',*,*,#606,.F.);
#808=ORIENTED_EDGE('',*,*,#607,.F.);
#809=ORIENTED_EDGE('',*,*,#608,.F.);
#810=ORIENTED_EDGE('',*,*,#607,.T.);
#811=ORIENTED_EDGE('',*,*,#609,.F.);
#812=ORIENTED_EDGE('',*,*,#610,.F.);
#813=ORIENTED_EDGE('',*,*,#611,.T.);
#814=ORIENTED_EDGE('',*,*,#610,.T.);
#815=ORIENTED_EDGE('',*,*,#612,.F.);
#816=ORIENTED_EDGE('',*,*,#590,.F.);
#817=ORIENTED_EDGE('',*,*,#613,.F.);
#818=ORIENTED_EDGE('',*,*,#614,.T.);
#819=ORIENTED_EDGE('',*,*,#615,.F.);
#820=ORIENTED_EDGE('',*,*,#616,.F.);
#821=ORIENTED_EDGE('',*,*,#617,.F.);
#822=ORIENTED_EDGE('',*,*,#616,.T.);
#823=ORIENTED_EDGE('',*,*,#618,.F.);
#824=ORIENTED_EDGE('',*,*,#619,.F.);
#825=ORIENTED_EDGE('',*,*,#620,.F.);
#826=ORIENTED_EDGE('',*,*,#619,.T.);
#827=ORIENTED_EDGE('',*,*,#621,.F.);
#828=ORIENTED_EDGE('',*,*,#622,.F.);
#829=ORIENTED_EDGE('',*,*,#623,.F.);
#830=ORIENTED_EDGE('',*,*,#622,.T.);
#831=ORIENTED_EDGE('',*,*,#624,.F.);
#832=ORIENTED_EDGE('',*,*,#625,.F.);
#833=ORIENTED_EDGE('',*,*,#626,.F.);
#834=ORIENTED_EDGE('',*,*,#625,.T.);
#835=ORIENTED_EDGE('',*,*,#627,.F.);
#836=ORIENTED_EDGE('',*,*,#628,.F.);
#837=ORIENTED_EDGE('',*,*,#629,.T.);
#838=ORIENTED_EDGE('',*,*,#628,.T.);
#839=ORIENTED_EDGE('',*,*,#630,.F.);
#840=ORIENTED_EDGE('',*,*,#631,.F.);
#841=ORIENTED_EDGE('',*,*,#632,.F.);
#842=ORIENTED_EDGE('',*,*,#631,.T.);
#843=ORIENTED_EDGE('',*,*,#633,.F.);
#844=ORIENTED_EDGE('',*,*,#634,.F.);
#845=ORIENTED_EDGE('',*,*,#635,.T.);
#846=ORIENTED_EDGE('',*,*,#634,.T.);
#847=ORIENTED_EDGE('',*,*,#636,.F.);
#848=ORIENTED_EDGE('',*,*,#614,.F.);
#849=ORIENTED_EDGE('',*,*,#637,.F.);
#850=ORIENTED_EDGE('',*,*,#638,.T.);
#851=ORIENTED_EDGE('',*,*,#639,.F.);
#852=ORIENTED_EDGE('',*,*,#640,.F.);
#853=ORIENTED_EDGE('',*,*,#641,.F.);
#854=ORIENTED_EDGE('',*,*,#640,.T.);
#855=ORIENTED_EDGE('',*,*,#642,.F.);
#856=ORIENTED_EDGE('',*,*,#643,.F.);
#857=ORIENTED_EDGE('',*,*,#644,.F.);
#858=ORIENTED_EDGE('',*,*,#643,.T.);
#859=ORIENTED_EDGE('',*,*,#645,.F.);
#860=ORIENTED_EDGE('',*,*,#646,.F.);
#861=ORIENTED_EDGE('',*,*,#647,.F.);
#862=ORIENTED_EDGE('',*,*,#646,.T.);
#863=ORIENTED_EDGE('',*,*,#648,.F.);
#864=ORIENTED_EDGE('',*,*,#649,.F.);
#865=ORIENTED_EDGE('',*,*,#650,.F.);
#866=ORIENTED_EDGE('',*,*,#649,.T.);
#867=ORIENTED_EDGE('',*,*,#651,.F.);
#868=ORIENTED_EDGE('',*,*,#652,.F.);
#869=ORIENTED_EDGE('',*,*,#653,.T.);
#870=ORIENTED_EDGE('',*,*,#652,.T.);
#871=ORIENTED_EDGE('',*,*,#654,.F.);
#872=ORIENTED_EDGE('',*,*,#655,.F.);
#873=ORIENTED_EDGE('',*,*,#656,.F.);
#874=ORIENTED_EDGE('',*,*,#655,.T.);
#875=ORIENTED_EDGE('',*,*,#657,.F.);
#876=ORIENTED_EDGE('',*,*,#658,.F.);
#877=ORIENTED_EDGE('',*,*,#659,.T.);
#878=ORIENTED_EDGE('',*,*,#658,.T.);
#879=ORIENTED_EDGE('',*,*,#660,.F.);
#880=ORIENTED_EDGE('',*,*,#638,.F.);
#881=ORIENTED_EDGE('',*,*,#661,.F.);
#882=ORIENTED_EDGE('',*,*,#662,.T.);
#883=ORIENTED_EDGE('',*,*,#663,.F.);
#884=ORIENTED_EDGE('',*,*,#664,.F.);
#885=ORIENTED_EDGE('',*,*,#665,.F.);
#886=ORIENTED_EDGE('',*,*,#664,.T.);
#887=ORIENTED_EDGE('',*,*,#666,.F.);
#888=ORIENTED_EDGE('',*,*,#667,.F.);
#889=ORIENTED_EDGE('',*,*,#668,.F.);
#890=ORIENTED_EDGE('',*,*,#667,.T.);
#891=ORIENTED_EDGE('',*,*,#669,.F.);
#892=ORIENTED_EDGE('',*,*,#670,.F.);
#893=ORIENTED_EDGE('',*,*,#671,.F.);
#894=ORIENTED_EDGE('',*,*,#670,.T.);
#895=ORIENTED_EDGE('',*,*,#672,.F.);
#896=ORIENTED_EDGE('',*,*,#662,.F.);
#897=ORIENTED_EDGE('',*,*,#672,.T.);
#898=ORIENTED_EDGE('',*,*,#669,.T.);
#899=ORIENTED_EDGE('',*,*,#666,.T.);
#900=ORIENTED_EDGE('',*,*,#663,.T.);
#901=ORIENTED_EDGE('',*,*,#660,.T.);
#902=ORIENTED_EDGE('',*,*,#657,.T.);
#903=ORIENTED_EDGE('',*,*,#654,.T.);
#904=ORIENTED_EDGE('',*,*,#651,.T.);
#905=ORIENTED_EDGE('',*,*,#648,.T.);
#906=ORIENTED_EDGE('',*,*,#645,.T.);
#907=ORIENTED_EDGE('',*,*,#642,.T.);
#908=ORIENTED_EDGE('',*,*,#639,.T.);
#909=ORIENTED_EDGE('',*,*,#636,.T.);
#910=ORIENTED_EDGE('',*,*,#633,.T.);
#911=ORIENTED_EDGE('',*,*,#630,.T.);
#912=ORIENTED_EDGE('',*,*,#627,.T.);
#913=ORIENTED_EDGE('',*,*,#624,.T.);
#914=ORIENTED_EDGE('',*,*,#621,.T.);
#915=ORIENTED_EDGE('',*,*,#618,.T.);
#916=ORIENTED_EDGE('',*,*,#615,.T.);
#917=ORIENTED_EDGE('',*,*,#612,.T.);
#918=ORIENTED_EDGE('',*,*,#609,.T.);
#919=ORIENTED_EDGE('',*,*,#606,.T.);
#920=ORIENTED_EDGE('',*,*,#603,.T.);
#921=ORIENTED_EDGE('',*,*,#600,.T.);
#922=ORIENTED_EDGE('',*,*,#597,.T.);
#923=ORIENTED_EDGE('',*,*,#594,.T.);
#924=ORIENTED_EDGE('',*,*,#591,.T.);
#925=ORIENTED_EDGE('',*,*,#586,.T.);
#926=ORIENTED_EDGE('',*,*,#583,.T.);
#927=ORIENTED_EDGE('',*,*,#580,.T.);
#928=ORIENTED_EDGE('',*,*,#577,.T.);
#929=ORIENTED_EDGE('',*,*,#671,.T.);
#930=ORIENTED_EDGE('',*,*,#661,.T.);
#931=ORIENTED_EDGE('',*,*,#665,.T.);
#932=ORIENTED_EDGE('',*,*,#668,.T.);
#933=ORIENTED_EDGE('',*,*,#659,.F.);
#934=ORIENTED_EDGE('',*,*,#637,.T.);
#935=ORIENTED_EDGE('',*,*,#641,.T.);
#936=ORIENTED_EDGE('',*,*,#644,.T.);
#937=ORIENTED_EDGE('',*,*,#647,.T.);
#938=ORIENTED_EDGE('',*,*,#650,.T.);
#939=ORIENTED_EDGE('',*,*,#653,.F.);
#940=ORIENTED_EDGE('',*,*,#656,.T.);
#941=ORIENTED_EDGE('',*,*,#635,.F.);
#942=ORIENTED_EDGE('',*,*,#613,.T.);
#943=ORIENTED_EDGE('',*,*,#617,.T.);
#944=ORIENTED_EDGE('',*,*,#620,.T.);
#945=ORIENTED_EDGE('',*,*,#623,.T.);
#946=ORIENTED_EDGE('',*,*,#626,.T.);
#947=ORIENTED_EDGE('',*,*,#629,.F.);
#948=ORIENTED_EDGE('',*,*,#632,.T.);
#949=ORIENTED_EDGE('',*,*,#611,.F.);
#950=ORIENTED_EDGE('',*,*,#589,.T.);
#951=ORIENTED_EDGE('',*,*,#593,.T.);
#952=ORIENTED_EDGE('',*,*,#596,.T.);
#953=ORIENTED_EDGE('',*,*,#599,.T.);
#954=ORIENTED_EDGE('',*,*,#602,.T.);
#955=ORIENTED_EDGE('',*,*,#605,.F.);
#956=ORIENTED_EDGE('',*,*,#608,.T.);
#957=ORIENTED_EDGE('',*,*,#588,.T.);
#958=ORIENTED_EDGE('',*,*,#585,.T.);
#959=ORIENTED_EDGE('',*,*,#582,.T.);
#960=ORIENTED_EDGE('',*,*,#579,.T.);
#961=PLANE('',#1060);
#962=PLANE('',#1061);
#963=PLANE('',#1062);
#964=PLANE('',#1063);
#965=PLANE('',#1064);
#966=PLANE('',#1065);
#967=PLANE('',#1066);
#968=PLANE('',#1067);
#969=PLANE('',#1068);
#970=PLANE('',#1081);
#971=PLANE('',#1082);
#972=PLANE('',#1083);
#973=PLANE('',#1084);
#974=PLANE('',#1085);
#975=PLANE('',#1101);
#976=PLANE('',#1105);
#977=PLANE('',#1109);
#978=PLANE('',#1113);
#979=PLANE('',#1117);
#980=PLANE('',#1121);
#981=PLANE('',#1125);
#982=PLANE('',#1129);
#983=PLANE('',#1133);
#984=PLANE('',#1137);
#985=PLANE('',#1141);
#986=PLANE('',#1145);
#987=PLANE('',#1146);
#988=PLANE('',#1147);
#989=PLANE('',#1148);
#990=PLANE('',#1149);
#991=PLANE('',#1150);
#992=PLANE('',#1151);
#993=ADVANCED_FACE('',(#99),#961,.F.);
#994=ADVANCED_FACE('',(#100),#962,.F.);
#995=ADVANCED_FACE('',(#101),#963,.F.);
#996=ADVANCED_FACE('',(#102),#964,.T.);
#997=ADVANCED_FACE('',(#103),#965,.T.);
#998=ADVANCED_FACE('',(#104),#966,.T.);
#999=ADVANCED_FACE('',(#105),#967,.T.);
#1000=ADVANCED_FACE('',(#106),#968,.T.);
#1001=ADVANCED_FACE('',(#107,#37,#38,#39,#40),#969,.T.);
#1002=ADVANCED_FACE('',(#108),#17,.F.);
#1003=ADVANCED_FACE('',(#109),#18,.F.);
#1004=ADVANCED_FACE('',(#110),#19,.F.);
#1005=ADVANCED_FACE('',(#111),#20,.F.);
#1006=ADVANCED_FACE('',(#112),#970,.T.);
#1007=ADVANCED_FACE('',(#113),#971,.T.);
#1008=ADVANCED_FACE('',(#114),#972,.T.);
#1009=ADVANCED_FACE('',(#115),#973,.T.);
#1010=ADVANCED_FACE('',(#116,#41,#42,#43,#44),#974,.F.);
#1011=ADVANCED_FACE('',(#117),#21,.F.);
#1012=ADVANCED_FACE('',(#118),#22,.F.);
#1013=ADVANCED_FACE('',(#119),#23,.F.);
#1014=ADVANCED_FACE('',(#120),#24,.F.);
#1015=ADVANCED_FACE('',(#121),#25,.F.);
#1016=ADVANCED_FACE('',(#122),#975,.T.);
#1017=ADVANCED_FACE('',(#123),#26,.F.);
#1018=ADVANCED_FACE('',(#124),#976,.T.);
#1019=ADVANCED_FACE('',(#125),#27,.F.);
#1020=ADVANCED_FACE('',(#126),#977,.T.);
#1021=ADVANCED_FACE('',(#127),#28,.F.);
#1022=ADVANCED_FACE('',(#128),#978,.T.);
#1023=ADVANCED_FACE('',(#129),#29,.F.);
#1024=ADVANCED_FACE('',(#130),#979,.T.);
#1025=ADVANCED_FACE('',(#131),#30,.F.);
#1026=ADVANCED_FACE('',(#132),#980,.T.);
#1027=ADVANCED_FACE('',(#133),#31,.F.);
#1028=ADVANCED_FACE('',(#134),#981,.T.);
#1029=ADVANCED_FACE('',(#135),#32,.F.);
#1030=ADVANCED_FACE('',(#136),#982,.T.);
#1031=ADVANCED_FACE('',(#137),#33,.F.);
#1032=ADVANCED_FACE('',(#138),#983,.T.);
#1033=ADVANCED_FACE('',(#139),#34,.F.);
#1034=ADVANCED_FACE('',(#140),#984,.T.);
#1035=ADVANCED_FACE('',(#141),#35,.F.);
#1036=ADVANCED_FACE('',(#142),#985,.T.);
#1037=ADVANCED_FACE('',(#143),#36,.F.);
#1038=ADVANCED_FACE('',(#144),#986,.T.);
#1039=ADVANCED_FACE('',(#145),#987,.T.);
#1040=ADVANCED_FACE('',(#146),#988,.T.);
#1041=ADVANCED_FACE('',(#147),#989,.T.);
#1042=ADVANCED_FACE('',(#148),#990,.T.);
#1043=ADVANCED_FACE('',(#149,#45,#46,#47,#48,#49,#50,#51),#991,.T.);
#1044=ADVANCED_FACE('',(#150,#52,#53,#54,#55,#56,#57,#58),#992,.F.);
#1045=CLOSED_SHELL('',(#993,#994,#995,#996,#997,#998,#999,#1000,#1001,#1002,
#1003,#1004,#1005,#1006,#1007,#1008,#1009,#1010));
#1046=CLOSED_SHELL('',(#1011,#1012,#1013,#1014,#1015,#1016,#1017,#1018,
#1019,#1020,#1021,#1022,#1023,#1024,#1025,#1026,#1027,#1028,#1029,#1030,
#1031,#1032,#1033,#1034,#1035,#1036,#1037,#1038,#1039,#1040,#1041,#1042,
#1043,#1044));
#1047=DERIVED_UNIT_ELEMENT(#1049,1.);
#1048=DERIVED_UNIT_ELEMENT(#1740,-3.);
#1049=(
MASS_UNIT()
NAMED_UNIT(*)
SI_UNIT(.KILO.,.GRAM.)
);
#1050=DERIVED_UNIT((#1047,#1048));
#1051=MEASURE_REPRESENTATION_ITEM('density measure',
POSITIVE_RATIO_MEASURE(7850.),#1050);
#1052=PROPERTY_DEFINITION_REPRESENTATION(#1057,#1054);
#1053=PROPERTY_DEFINITION_REPRESENTATION(#1058,#1055);
#1054=REPRESENTATION('material name',(#1056),#1737);
#1055=REPRESENTATION('density',(#1051),#1737);
#1056=DESCRIPTIVE_REPRESENTATION_ITEM('Steel','Steel');
#1057=PROPERTY_DEFINITION('material property','material name',#1747);
#1058=PROPERTY_DEFINITION('material property','density of part',#1747);
#1059=AXIS2_PLACEMENT_3D('',#1442,#1152,#1153);
#1060=AXIS2_PLACEMENT_3D('',#1443,#1154,#1155);
#1061=AXIS2_PLACEMENT_3D('',#1452,#1160,#1161);
#1062=AXIS2_PLACEMENT_3D('',#1458,#1165,#1166);
#1063=AXIS2_PLACEMENT_3D('',#1464,#1170,#1171);
#1064=AXIS2_PLACEMENT_3D('',#1474,#1177,#1178);
#1065=AXIS2_PLACEMENT_3D('',#1480,#1182,#1183);
#1066=AXIS2_PLACEMENT_3D('',#1484,#1186,#1187);
#1067=AXIS2_PLACEMENT_3D('',#1488,#1190,#1191);
#1068=AXIS2_PLACEMENT_3D('',#1490,#1193,#1194);
#1069=AXIS2_PLACEMENT_3D('',#1501,#1200,#1201);
#1070=AXIS2_PLACEMENT_3D('',#1503,#1202,#1203);
#1071=AXIS2_PLACEMENT_3D('',#1505,#1204,#1205);
#1072=AXIS2_PLACEMENT_3D('',#1507,#1206,#1207);
#1073=AXIS2_PLACEMENT_3D('',#1508,#1208,#1209);
#1074=AXIS2_PLACEMENT_3D('',#1511,#1211,#1212);
#1075=AXIS2_PLACEMENT_3D('',#1512,#1213,#1214);
#1076=AXIS2_PLACEMENT_3D('',#1515,#1216,#1217);
#1077=AXIS2_PLACEMENT_3D('',#1516,#1218,#1219);
#1078=AXIS2_PLACEMENT_3D('',#1519,#1221,#1222);
#1079=AXIS2_PLACEMENT_3D('',#1520,#1223,#1224);
#1080=AXIS2_PLACEMENT_3D('',#1523,#1226,#1227);
#1081=AXIS2_PLACEMENT_3D('',#1524,#1228,#1229);
#1082=AXIS2_PLACEMENT_3D('',#1530,#1233,#1234);
#1083=AXIS2_PLACEMENT_3D('',#1534,#1237,#1238);
#1084=AXIS2_PLACEMENT_3D('',#1538,#1241,#1242);
#1085=AXIS2_PLACEMENT_3D('',#1540,#1244,#1245);
#1086=AXIS2_PLACEMENT_3D('',#1541,#1246,#1247);
#1087=AXIS2_PLACEMENT_3D('',#1543,#1248,#1249);
#1088=AXIS2_PLACEMENT_3D('',#1546,#1251,#1252);
#1089=AXIS2_PLACEMENT_3D('',#1547,#1253,#1254);
#1090=AXIS2_PLACEMENT_3D('',#1549,#1255,#1256);
#1091=AXIS2_PLACEMENT_3D('',#1552,#1258,#1259);
#1092=AXIS2_PLACEMENT_3D('',#1553,#1260,#1261);
#1093=AXIS2_PLACEMENT_3D('',#1555,#1262,#1263);
#1094=AXIS2_PLACEMENT_3D('',#1558,#1265,#1266);
#1095=AXIS2_PLACEMENT_3D('',#1559,#1267,#1268);
#1096=AXIS2_PLACEMENT_3D('',#1561,#1269,#1270);
#1097=AXIS2_PLACEMENT_3D('',#1564,#1272,#1273);
#1098=AXIS2_PLACEMENT_3D('',#1565,#1274,#1275);
#1099=AXIS2_PLACEMENT_3D('',#1568,#1276,#1277);
#1100=AXIS2_PLACEMENT_3D('',#1572,#1279,#1280);
#1101=AXIS2_PLACEMENT_3D('',#1574,#1282,#1283);
#1102=AXIS2_PLACEMENT_3D('',#1580,#1287,#1288);
#1103=AXIS2_PLACEMENT_3D('',#1582,#1289,#1290);
#1104=AXIS2_PLACEMENT_3D('',#1584,#1291,#1292);
#1105=AXIS2_PLACEMENT_3D('',#1586,#1294,#1295);
#1106=AXIS2_PLACEMENT_3D('',#1592,#1299,#1300);
#1107=AXIS2_PLACEMENT_3D('',#1594,#1301,#1302);
#1108=AXIS2_PLACEMENT_3D('',#1596,#1303,#1304);
#1109=AXIS2_PLACEMENT_3D('',#1598,#1306,#1307);
#1110=AXIS2_PLACEMENT_3D('',#1604,#1311,#1312);
#1111=AXIS2_PLACEMENT_3D('',#1606,#1313,#1314);
#1112=AXIS2_PLACEMENT_3D('',#1608,#1315,#1316);
#1113=AXIS2_PLACEMENT_3D('',#1610,#1318,#1319);
#1114=AXIS2_PLACEMENT_3D('',#1613,#1322,#1323);
#1115=AXIS2_PLACEMENT_3D('',#1616,#1324,#1325);
#1116=AXIS2_PLACEMENT_3D('',#1620,#1327,#1328);
#1117=AXIS2_PLACEMENT_3D('',#1622,#1330,#1331);
#1118=AXIS2_PLACEMENT_3D('',#1628,#1335,#1336);
#1119=AXIS2_PLACEMENT_3D('',#1630,#1337,#1338);
#1120=AXIS2_PLACEMENT_3D('',#1632,#1339,#1340);
#1121=AXIS2_PLACEMENT_3D('',#1634,#1342,#1343);
#1122=AXIS2_PLACEMENT_3D('',#1640,#1347,#1348);
#1123=AXIS2_PLACEMENT_3D('',#1642,#1349,#1350);
#1124=AXIS2_PLACEMENT_3D('',#1644,#1351,#1352);
#1125=AXIS2_PLACEMENT_3D('',#1646,#1354,#1355);
#1126=AXIS2_PLACEMENT_3D('',#1652,#1359,#1360);
#1127=AXIS2_PLACEMENT_3D('',#1654,#1361,#1362);
#1128=AXIS2_PLACEMENT_3D('',#1656,#1363,#1364);
#1129=AXIS2_PLACEMENT_3D('',#1658,#1366,#1367);
#1130=AXIS2_PLACEMENT_3D('',#1661,#1370,#1371);
#1131=AXIS2_PLACEMENT_3D('',#1664,#1372,#1373);
#1132=AXIS2_PLACEMENT_3D('',#1668,#1375,#1376);
#1133=AXIS2_PLACEMENT_3D('',#1670,#1378,#1379);
#1134=AXIS2_PLACEMENT_3D('',#1676,#1383,#1384);
#1135=AXIS2_PLACEMENT_3D('',#1678,#1385,#1386);
#1136=AXIS2_PLACEMENT_3D('',#1680,#1387,#1388);
#1137=AXIS2_PLACEMENT_3D('',#1682,#1390,#1391);
#1138=AXIS2_PLACEMENT_3D('',#1688,#1395,#1396);
#1139=AXIS2_PLACEMENT_3D('',#1690,#1397,#1398);
#1140=AXIS2_PLACEMENT_3D('',#1692,#1399,#1400);
#1141=AXIS2_PLACEMENT_3D('',#1694,#1402,#1403);
#1142=AXIS2_PLACEMENT_3D('',#1700,#1407,#1408);
#1143=AXIS2_PLACEMENT_3D('',#1702,#1409,#1410);
#1144=AXIS2_PLACEMENT_3D('',#1704,#1411,#1412);
#1145=AXIS2_PLACEMENT_3D('',#1706,#1414,#1415);
#1146=AXIS2_PLACEMENT_3D('',#1709,#1418,#1419);
#1147=AXIS2_PLACEMENT_3D('',#1718,#1424,#1425);
#1148=AXIS2_PLACEMENT_3D('',#1724,#1429,#1430);
#1149=AXIS2_PLACEMENT_3D('',#1730,#1434,#1435);
#1150=AXIS2_PLACEMENT_3D('',#1733,#1438,#1439);
#1151=AXIS2_PLACEMENT_3D('',#1734,#1440,#1441);
#1152=DIRECTION('axis',(0.,0.,1.));
#1153=DIRECTION('refdir',(1.,0.,0.));
#1154=DIRECTION('center_axis',(-1.,0.,0.));
#1155=DIRECTION('ref_axis',(0.,0.,1.));
#1156=DIRECTION('',(0.,0.,1.));
#1157=DIRECTION('',(0.,1.,0.));
#1158=DIRECTION('',(0.,0.,-1.));
#1159=DIRECTION('',(0.,1.,0.));
#1160=DIRECTION('center_axis',(0.,0.,-1.));
#1161=DIRECTION('ref_axis',(-1.,0.,0.));
#1162=DIRECTION('',(-1.,0.,0.));
#1163=DIRECTION('',(0.,-1.,0.));
#1164=DIRECTION('',(1.,0.,0.));
#1165=DIRECTION('center_axis',(0.,0.,1.));
#1166=DIRECTION('ref_axis',(1.,0.,0.));
#1167=DIRECTION('',(1.,0.,0.));
#1168=DIRECTION('',(-1.,0.,0.));
#1169=DIRECTION('',(0.,1.,0.));
#1170=DIRECTION('center_axis',(0.,1.,0.));
#1171=DIRECTION('ref_axis',(0.,0.,1.));
#1172=DIRECTION('',(0.,0.,1.));
#1173=DIRECTION('',(1.,0.,0.));
#1174=DIRECTION('',(0.,0.,-1.));
#1175=DIRECTION('',(1.,0.,0.));
#1176=DIRECTION('',(0.,0.,1.));
#1177=DIRECTION('center_axis',(0.,0.,-1.));
#1178=DIRECTION('ref_axis',(0.,1.,0.));
#1179=DIRECTION('',(0.,-1.,0.));
#1180=DIRECTION('',(1.,0.,0.));
#1181=DIRECTION('',(0.,1.,0.));
#1182=DIRECTION('center_axis',(1.,0.,0.));
#1183=DIRECTION('ref_axis',(0.,1.,0.));
#1184=DIRECTION('',(0.,1.,0.));
#1185=DIRECTION('',(0.,0.,1.));
#1186=DIRECTION('center_axis',(0.,-1.,0.));
#1187=DIRECTION('ref_axis',(0.,0.,-1.));
#1188=DIRECTION('',(1.,0.,0.));
#1189=DIRECTION('',(0.,0.,-1.));
#1190=DIRECTION('center_axis',(0.,0.,1.));
#1191=DIRECTION('ref_axis',(0.,-1.,0.));
#1192=DIRECTION('',(0.,-1.,0.));
#1193=DIRECTION('center_axis',(1.,0.,0.));
#1194=DIRECTION('ref_axis',(0.,1.,0.));
#1195=DIRECTION('',(0.,0.,-1.));
#1196=DIRECTION('',(0.,1.,0.));
#1197=DIRECTION('',(0.,0.,1.));
#1198=DIRECTION('',(0.,-1.,0.));
#1199=DIRECTION('',(0.,0.,-1.));
#1200=DIRECTION('center_axis',(-1.,0.,0.));
#1201=DIRECTION('ref_axis',(0.,1.,0.));
#1202=DIRECTION('center_axis',(-1.,0.,0.));
#1203=DIRECTION('ref_axis',(0.,1.,0.));
#1204=DIRECTION('center_axis',(-1.,0.,0.));
#1205=DIRECTION('ref_axis',(0.,1.,0.));
#1206=DIRECTION('center_axis',(-1.,0.,0.));
#1207=DIRECTION('ref_axis',(0.,1.,0.));
#1208=DIRECTION('center_axis',(1.,0.,0.));
#1209=DIRECTION('ref_axis',(0.,1.,0.));
#1210=DIRECTION('',(-1.,0.,0.));
#1211=DIRECTION('center_axis',(1.,0.,0.));
#1212=DIRECTION('ref_axis',(0.,1.,0.));
#1213=DIRECTION('center_axis',(1.,0.,0.));
#1214=DIRECTION('ref_axis',(0.,1.,0.));
#1215=DIRECTION('',(-1.,0.,0.));
#1216=DIRECTION('center_axis',(1.,0.,0.));
#1217=DIRECTION('ref_axis',(0.,1.,0.));
#1218=DIRECTION('center_axis',(1.,0.,0.));
#1219=DIRECTION('ref_axis',(0.,1.,0.));
#1220=DIRECTION('',(-1.,0.,0.));
#1221=DIRECTION('center_axis',(1.,0.,0.));
#1222=DIRECTION('ref_axis',(0.,1.,0.));
#1223=DIRECTION('center_axis',(1.,0.,0.));
#1224=DIRECTION('ref_axis',(0.,1.,0.));
#1225=DIRECTION('',(-1.,0.,0.));
#1226=DIRECTION('center_axis',(1.,0.,0.));
#1227=DIRECTION('ref_axis',(0.,1.,0.));
#1228=DIRECTION('center_axis',(0.,1.,0.));
#1229=DIRECTION('ref_axis',(0.,0.,1.));
#1230=DIRECTION('',(0.,0.,-1.));
#1231=DIRECTION('',(1.,0.,0.));
#1232=DIRECTION('',(1.,0.,0.));
#1233=DIRECTION('center_axis',(0.,0.,-1.));
#1234=DIRECTION('ref_axis',(0.,1.,0.));
#1235=DIRECTION('',(0.,-1.,0.));
#1236=DIRECTION('',(1.,0.,0.));
#1237=DIRECTION('center_axis',(0.,-1.,0.));
#1238=DIRECTION('ref_axis',(0.,0.,-1.));
#1239=DIRECTION('',(1.,0.,0.));
#1240=DIRECTION('',(0.,0.,1.));
#1241=DIRECTION('center_axis',(0.,0.,1.));
#1242=DIRECTION('ref_axis',(0.,-1.,0.));
#1243=DIRECTION('',(0.,1.,0.));
#1244=DIRECTION('center_axis',(1.,0.,0.));
#1245=DIRECTION('ref_axis',(0.,1.,0.));
#1246=DIRECTION('center_axis',(1.,0.,0.));
#1247=DIRECTION('ref_axis',(0.,1.,0.));
#1248=DIRECTION('center_axis',(-1.,0.,0.));
#1249=DIRECTION('ref_axis',(0.,1.,0.));
#1250=DIRECTION('',(-1.,0.,0.));
#1251=DIRECTION('center_axis',(1.,0.,0.));
#1252=DIRECTION('ref_axis',(0.,1.,0.));
#1253=DIRECTION('center_axis',(1.,0.,0.));
#1254=DIRECTION('ref_axis',(0.,1.,0.));
#1255=DIRECTION('center_axis',(-1.,0.,0.));
#1256=DIRECTION('ref_axis',(0.,1.,0.));
#1257=DIRECTION('',(-1.,0.,0.));
#1258=DIRECTION('center_axis',(1.,0.,0.));
#1259=DIRECTION('ref_axis',(0.,1.,0.));
#1260=DIRECTION('center_axis',(1.,0.,0.));
#1261=DIRECTION('ref_axis',(0.,1.,0.));
#1262=DIRECTION('center_axis',(-1.,0.,0.));
#1263=DIRECTION('ref_axis',(0.,1.,0.));
#1264=DIRECTION('',(-1.,0.,0.));
#1265=DIRECTION('center_axis',(1.,0.,0.));
#1266=DIRECTION('ref_axis',(0.,1.,0.));
#1267=DIRECTION('center_axis',(1.,0.,0.));
#1268=DIRECTION('ref_axis',(0.,1.,0.));
#1269=DIRECTION('center_axis',(-1.,0.,0.));
#1270=DIRECTION('ref_axis',(0.,1.,0.));
#1271=DIRECTION('',(-1.,0.,0.));
#1272=DIRECTION('center_axis',(1.,0.,0.));
#1273=DIRECTION('ref_axis',(0.,1.,0.));
#1274=DIRECTION('center_axis',(1.,0.,0.));
#1275=DIRECTION('ref_axis',(0.,0.,1.));
#1276=DIRECTION('center_axis',(1.,0.,0.));
#1277=DIRECTION('ref_axis',(0.,0.,1.));
#1278=DIRECTION('',(1.,0.,0.));
#1279=DIRECTION('center_axis',(-1.,0.,0.));
#1280=DIRECTION('ref_axis',(0.,0.,1.));
#1281=DIRECTION('',(1.,0.,0.));
#1282=DIRECTION('center_axis',(0.,1.,0.));
#1283=DIRECTION('ref_axis',(0.,0.,1.));
#1284=DIRECTION('',(0.,0.,-1.));
#1285=DIRECTION('',(0.,0.,1.));
#1286=DIRECTION('',(1.,0.,0.));
#1287=DIRECTION('center_axis',(1.,0.,0.));
#1288=DIRECTION('ref_axis',(0.,-1.,0.));
#1289=DIRECTION('center_axis',(1.,0.,0.));
#1290=DIRECTION('ref_axis',(0.,-1.,0.));
#1291=DIRECTION('center_axis',(-1.,0.,0.));
#1292=DIRECTION('ref_axis',(0.,-1.,0.));
#1293=DIRECTION('',(1.,0.,0.));
#1294=DIRECTION('center_axis',(0.,0.,1.));
#1295=DIRECTION('ref_axis',(0.,-1.,0.));
#1296=DIRECTION('',(0.,1.,0.));
#1297=DIRECTION('',(0.,-1.,0.));
#1298=DIRECTION('',(1.,0.,0.));
#1299=DIRECTION('center_axis',(1.,0.,0.));
#1300=DIRECTION('ref_axis',(0.,0.,-1.));
#1301=DIRECTION('center_axis',(1.,0.,0.));
#1302=DIRECTION('ref_axis',(0.,0.,-1.));
#1303=DIRECTION('center_axis',(-1.,0.,0.));
#1304=DIRECTION('ref_axis',(0.,0.,-1.));
#1305=DIRECTION('',(1.,0.,0.));
#1306=DIRECTION('center_axis',(0.,-1.,0.));
#1307=DIRECTION('ref_axis',(0.,0.,-1.));
#1308=DIRECTION('',(0.,0.,-1.));
#1309=DIRECTION('',(0.,0.,-1.));
#1310=DIRECTION('',(1.,0.,0.));
#1311=DIRECTION('center_axis',(1.,0.,0.));
#1312=DIRECTION('ref_axis',(0.,1.,0.));
#1313=DIRECTION('center_axis',(1.,0.,0.));
#1314=DIRECTION('ref_axis',(0.,1.,0.));
#1315=DIRECTION('center_axis',(-1.,0.,0.));
#1316=DIRECTION('ref_axis',(0.,1.,0.));
#1317=DIRECTION('',(1.,0.,0.));
#1318=DIRECTION('center_axis',(0.,0.,-1.));
#1319=DIRECTION('ref_axis',(0.,1.,0.));
#1320=DIRECTION('',(0.,1.,0.));
#1321=DIRECTION('',(0.,1.,0.));
#1322=DIRECTION('center_axis',(1.,0.,0.));
#1323=DIRECTION('ref_axis',(0.,0.,1.));
#1324=DIRECTION('center_axis',(1.,0.,0.));
#1325=DIRECTION('ref_axis',(0.,0.,1.));
#1326=DIRECTION('',(1.,0.,0.));
#1327=DIRECTION('center_axis',(-1.,0.,0.));
#1328=DIRECTION('ref_axis',(0.,0.,1.));
#1329=DIRECTION('',(1.,0.,0.));
#1330=DIRECTION('center_axis',(0.,1.,0.));
#1331=DIRECTION('ref_axis',(0.,0.,1.));
#1332=DIRECTION('',(0.,0.,-1.));
#1333=DIRECTION('',(0.,0.,1.));
#1334=DIRECTION('',(1.,0.,0.));
#1335=DIRECTION('center_axis',(1.,0.,0.));
#1336=DIRECTION('ref_axis',(0.,-1.,0.));
#1337=DIRECTION('center_axis',(1.,0.,0.));
#1338=DIRECTION('ref_axis',(0.,-1.,0.));
#1339=DIRECTION('center_axis',(-1.,0.,0.));
#1340=DIRECTION('ref_axis',(0.,-1.,0.));
#1341=DIRECTION('',(1.,0.,0.));
#1342=DIRECTION('center_axis',(0.,0.,1.));
#1343=DIRECTION('ref_axis',(0.,-1.,0.));
#1344=DIRECTION('',(0.,1.,0.));
#1345=DIRECTION('',(0.,-1.,0.));
#1346=DIRECTION('',(1.,0.,0.));
#1347=DIRECTION('center_axis',(1.,0.,0.));
#1348=DIRECTION('ref_axis',(0.,0.,-1.));
#1349=DIRECTION('center_axis',(1.,0.,0.));
#1350=DIRECTION('ref_axis',(0.,0.,-1.));
#1351=DIRECTION('center_axis',(-1.,0.,0.));
#1352=DIRECTION('ref_axis',(0.,0.,-1.));
#1353=DIRECTION('',(1.,0.,0.));
#1354=DIRECTION('center_axis',(0.,-1.,0.));
#1355=DIRECTION('ref_axis',(0.,0.,-1.));
#1356=DIRECTION('',(0.,0.,-1.));
#1357=DIRECTION('',(0.,0.,-1.));
#1358=DIRECTION('',(1.,0.,0.));
#1359=DIRECTION('center_axis',(1.,0.,0.));
#1360=DIRECTION('ref_axis',(0.,1.,0.));
#1361=DIRECTION('center_axis',(1.,0.,0.));
#1362=DIRECTION('ref_axis',(0.,1.,0.));
#1363=DIRECTION('center_axis',(-1.,0.,0.));
#1364=DIRECTION('ref_axis',(0.,1.,0.));
#1365=DIRECTION('',(1.,0.,0.));
#1366=DIRECTION('center_axis',(0.,0.,-1.));
#1367=DIRECTION('ref_axis',(0.,1.,0.));
#1368=DIRECTION('',(0.,1.,0.));
#1369=DIRECTION('',(0.,1.,0.));
#1370=DIRECTION('center_axis',(1.,0.,0.));
#1371=DIRECTION('ref_axis',(0.,0.,1.));
#1372=DIRECTION('center_axis',(1.,0.,0.));
#1373=DIRECTION('ref_axis',(0.,0.,1.));
#1374=DIRECTION('',(1.,0.,0.));
#1375=DIRECTION('center_axis',(-1.,0.,0.));
#1376=DIRECTION('ref_axis',(0.,0.,1.));
#1377=DIRECTION('',(1.,0.,0.));
#1378=DIRECTION('center_axis',(0.,1.,0.));
#1379=DIRECTION('ref_axis',(0.,0.,1.));
#1380=DIRECTION('',(0.,0.,-1.));
#1381=DIRECTION('',(0.,0.,1.));
#1382=DIRECTION('',(1.,0.,0.));
#1383=DIRECTION('center_axis',(1.,0.,0.));
#1384=DIRECTION('ref_axis',(0.,-1.,0.));
#1385=DIRECTION('center_axis',(1.,0.,0.));
#1386=DIRECTION('ref_axis',(0.,-1.,0.));
#1387=DIRECTION('center_axis',(-1.,0.,0.));
#1388=DIRECTION('ref_axis',(0.,-1.,0.));
#1389=DIRECTION('',(1.,0.,0.));
#1390=DIRECTION('center_axis',(0.,0.,1.));
#1391=DIRECTION('ref_axis',(0.,-1.,0.));
#1392=DIRECTION('',(0.,1.,0.));
#1393=DIRECTION('',(0.,-1.,0.));
#1394=DIRECTION('',(1.,0.,0.));
#1395=DIRECTION('center_axis',(1.,0.,0.));
#1396=DIRECTION('ref_axis',(0.,0.,-1.));
#1397=DIRECTION('center_axis',(1.,0.,0.));
#1398=DIRECTION('ref_axis',(0.,0.,-1.));
#1399=DIRECTION('center_axis',(-1.,0.,0.));
#1400=DIRECTION('ref_axis',(0.,0.,-1.));
#1401=DIRECTION('',(1.,0.,0.));
#1402=DIRECTION('center_axis',(0.,-1.,0.));
#1403=DIRECTION('ref_axis',(0.,0.,-1.));
#1404=DIRECTION('',(0.,0.,-1.));
#1405=DIRECTION('',(0.,0.,-1.));
#1406=DIRECTION('',(1.,0.,0.));
#1407=DIRECTION('center_axis',(1.,0.,0.));
#1408=DIRECTION('ref_axis',(0.,1.,0.));
#1409=DIRECTION('center_axis',(1.,0.,0.));
#1410=DIRECTION('ref_axis',(0.,1.,0.));
#1411=DIRECTION('center_axis',(-1.,0.,0.));
#1412=DIRECTION('ref_axis',(0.,1.,0.));
#1413=DIRECTION('',(1.,0.,0.));
#1414=DIRECTION('center_axis',(0.,0.,-1.));
#1415=DIRECTION('ref_axis',(0.,1.,0.));
#1416=DIRECTION('',(0.,1.,0.));
#1417=DIRECTION('',(0.,1.,0.));
#1418=DIRECTION('center_axis',(0.,-1.,0.));
#1419=DIRECTION('ref_axis',(0.,0.,-1.));
#1420=DIRECTION('',(0.,0.,1.));
#1421=DIRECTION('',(1.,0.,0.));
#1422=DIRECTION('',(0.,0.,-1.));
#1423=DIRECTION('',(1.,0.,0.));
#1424=DIRECTION('center_axis',(0.,0.,1.));
#1425=DIRECTION('ref_axis',(0.,-1.,0.));
#1426=DIRECTION('',(0.,1.,0.));
#1427=DIRECTION('',(0.,-1.,0.));
#1428=DIRECTION('',(1.,0.,0.));
#1429=DIRECTION('center_axis',(0.,1.,0.));
#1430=DIRECTION('ref_axis',(0.,0.,1.));
#1431=DIRECTION('',(0.,0.,-1.));
#1432=DIRECTION('',(0.,0.,1.));
#1433=DIRECTION('',(1.,0.,0.));
#1434=DIRECTION('center_axis',(0.,0.,-1.));
#1435=DIRECTION('ref_axis',(0.,1.,0.));
#1436=DIRECTION('',(0.,-1.,0.));
#1437=DIRECTION('',(0.,1.,0.));
#1438=DIRECTION('center_axis',(1.,0.,0.));
#1439=DIRECTION('ref_axis',(0.,1.,0.));
#1440=DIRECTION('center_axis',(1.,0.,0.));
#1441=DIRECTION('ref_axis',(0.,1.,0.));
#1442=CARTESIAN_POINT('',(0.,0.,0.));
#1443=CARTESIAN_POINT('Origin',(5.00000007450581,-10.,-16.0000002384186));
#1444=CARTESIAN_POINT('',(5.00000007450581,-10.,-16.0000002384186));
#1445=CARTESIAN_POINT('',(5.00000007450581,-10.,-3.00000004470348));
#1446=CARTESIAN_POINT('',(5.00000007450581,-10.,-3.00000011920929));
#1447=CARTESIAN_POINT('',(5.00000007450581,0.,-16.0000002384186));
#1448=CARTESIAN_POINT('',(5.00000007450581,-10.,-16.0000002384186));
#1449=CARTESIAN_POINT('',(5.00000007450581,0.,-3.00000004470348));
#1450=CARTESIAN_POINT('',(5.00000007450581,0.,-17.7000001192093));
#1451=CARTESIAN_POINT('',(5.00000007450581,-10.,-3.00000004470348));
#1452=CARTESIAN_POINT('Origin',(10.0000001490116,-10.,-16.0000002384186));
#1453=CARTESIAN_POINT('',(10.0000001490116,-10.,-16.0000002384186));
#1454=CARTESIAN_POINT('',(5.00000007450581,-10.,-16.0000002384186));
#1455=CARTESIAN_POINT('',(10.0000001490116,0.,-16.0000002384186));
#1456=CARTESIAN_POINT('',(10.,9.35,-16.0000002384186));
#1457=CARTESIAN_POINT('',(5.00000007450581,0.,-16.0000002384186));
#1458=CARTESIAN_POINT('Origin',(5.00000007450581,-10.,-3.00000004470348));
#1459=CARTESIAN_POINT('',(10.0000001490116,-10.,-3.00000004470348));
#1460=CARTESIAN_POINT('',(2.5000000372529,-10.,-3.00000004470348));
#1461=CARTESIAN_POINT('',(10.0000001490116,0.,-3.00000004470348));
#1462=CARTESIAN_POINT('',(2.5000000372529,0.,-3.00000004470348));
#1463=CARTESIAN_POINT('',(10.,9.35,-3.00000004470348));
#1464=CARTESIAN_POINT('Origin',(0.,0.,-19.4));
#1465=CARTESIAN_POINT('',(10.,0.,-19.4));
#1466=CARTESIAN_POINT('',(10.,0.,-19.4));
#1467=CARTESIAN_POINT('',(3.,0.,-19.4));
#1468=CARTESIAN_POINT('',(0.,0.,-19.4));
#1469=CARTESIAN_POINT('',(3.,0.,0.));
#1470=CARTESIAN_POINT('',(3.,0.,-14.55));
#1471=CARTESIAN_POINT('',(10.,0.,0.));
#1472=CARTESIAN_POINT('',(0.,0.,0.));
#1473=CARTESIAN_POINT('',(10.,0.,-19.4));
#1474=CARTESIAN_POINT('Origin',(0.,0.,0.));
#1475=CARTESIAN_POINT('',(3.,57.4,0.));
#1476=CARTESIAN_POINT('',(3.,14.35,0.));
#1477=CARTESIAN_POINT('',(10.,57.4,0.));
#1478=CARTESIAN_POINT('',(0.,57.4,0.));
#1479=CARTESIAN_POINT('',(10.,0.,0.));
#1480=CARTESIAN_POINT('Origin',(3.,28.7,-9.7));
#1481=CARTESIAN_POINT('',(3.,57.4,-19.4));
#1482=CARTESIAN_POINT('',(3.,43.05,-19.4));
#1483=CARTESIAN_POINT('',(3.,57.4,-4.85));
#1484=CARTESIAN_POINT('Origin',(0.,57.4,0.));
#1485=CARTESIAN_POINT('',(10.,57.4,-19.4));
#1486=CARTESIAN_POINT('',(0.,57.4,-19.4));
#1487=CARTESIAN_POINT('',(10.,57.4,0.));
#1488=CARTESIAN_POINT('Origin',(0.,57.4,-19.4));
#1489=CARTESIAN_POINT('',(10.,57.4,-19.4));
#1490=CARTESIAN_POINT('Origin',(10.,28.7,-9.7));
#1491=CARTESIAN_POINT('',(10.,-10.,-29.4));
#1492=CARTESIAN_POINT('',(10.,-10.,-29.4));
#1493=CARTESIAN_POINT('',(10.,67.4,-29.4));
#1494=CARTESIAN_POINT('',(10.,67.4,-29.4));
#1495=CARTESIAN_POINT('',(10.,67.4,10.));
#1496=CARTESIAN_POINT('',(10.,67.4,10.));
#1497=CARTESIAN_POINT('',(10.,-10.,10.));
#1498=CARTESIAN_POINT('',(10.,-10.,10.));
#1499=CARTESIAN_POINT('',(10.,-10.,-29.4));
#1500=CARTESIAN_POINT('',(10.,-6.45,5.));
#1501=CARTESIAN_POINT('Origin',(10.,-5.,5.));
#1502=CARTESIAN_POINT('',(10.,-6.45000007450581,-24.4));
#1503=CARTESIAN_POINT('Origin',(10.,-5.00000007450581,-24.4));
#1504=CARTESIAN_POINT('',(10.,60.95,-24.4));
#1505=CARTESIAN_POINT('Origin',(10.,62.4,-24.4));
#1506=CARTESIAN_POINT('',(10.,60.95,5.));
#1507=CARTESIAN_POINT('Origin',(10.,62.4,5.));
#1508=CARTESIAN_POINT('Origin',(0.,62.4,5.));
#1509=CARTESIAN_POINT('',(0.,60.95,5.));
#1510=CARTESIAN_POINT('',(0.,60.95,5.));
#1511=CARTESIAN_POINT('Origin',(0.,62.4,5.));
#1512=CARTESIAN_POINT('Origin',(0.,62.4,-24.4));
#1513=CARTESIAN_POINT('',(0.,60.95,-24.4));
#1514=CARTESIAN_POINT('',(0.,60.95,-24.4));
#1515=CARTESIAN_POINT('Origin',(0.,62.4,-24.4));
#1516=CARTESIAN_POINT('Origin',(0.,-5.00000007450581,-24.4));
#1517=CARTESIAN_POINT('',(0.,-6.45000007450581,-24.4));
#1518=CARTESIAN_POINT('',(0.,-6.45000007450581,-24.4));
#1519=CARTESIAN_POINT('Origin',(0.,-5.00000007450581,-24.4));
#1520=CARTESIAN_POINT('Origin',(0.,-5.,5.));
#1521=CARTESIAN_POINT('',(0.,-6.45,5.));
#1522=CARTESIAN_POINT('',(0.,-6.45,5.));
#1523=CARTESIAN_POINT('Origin',(0.,-5.,5.));
#1524=CARTESIAN_POINT('Origin',(0.,67.4,-29.4));
#1525=CARTESIAN_POINT('',(0.,67.4,10.));
#1526=CARTESIAN_POINT('',(0.,67.4,-29.4));
#1527=CARTESIAN_POINT('',(0.,67.4,10.));
#1528=CARTESIAN_POINT('',(0.,67.4,10.));
#1529=CARTESIAN_POINT('',(0.,67.4,-29.4));
#1530=CARTESIAN_POINT('Origin',(0.,-10.,-29.4));
#1531=CARTESIAN_POINT('',(0.,-10.,-29.4));
#1532=CARTESIAN_POINT('',(0.,67.4,-29.4));
#1533=CARTESIAN_POINT('',(0.,-10.,-29.4));
#1534=CARTESIAN_POINT('Origin',(0.,-10.,10.));
#1535=CARTESIAN_POINT('',(0.,-10.,10.));
#1536=CARTESIAN_POINT('',(0.,-10.,10.));
#1537=CARTESIAN_POINT('',(0.,-10.,-29.4));
#1538=CARTESIAN_POINT('Origin',(0.,67.4,10.));
#1539=CARTESIAN_POINT('',(0.,-10.,10.));
#1540=CARTESIAN_POINT('Origin',(0.,28.7,-9.7));
#1541=CARTESIAN_POINT('Origin',(10.,62.4001369035564,-24.3999998509884));
#1542=CARTESIAN_POINT('',(13.,60.9501369035564,-24.3999998509884));
#1543=CARTESIAN_POINT('Origin',(13.,62.4001369035564,-24.3999998509884));
#1544=CARTESIAN_POINT('',(10.,60.9501369035564,-24.3999998509884));
#1545=CARTESIAN_POINT('',(10.,60.9501369035564,-24.3999998509884));
#1546=CARTESIAN_POINT('Origin',(10.,62.4001369035564,-24.3999998509884));
#1547=CARTESIAN_POINT('Origin',(10.,62.3999998509884,5.00000007450581));
#1548=CARTESIAN_POINT('',(13.,60.9499998509884,5.00000007450581));
#1549=CARTESIAN_POINT('Origin',(13.,62.3999998509884,5.00000007450581));
#1550=CARTESIAN_POINT('',(10.,60.9499998509884,5.00000007450581));
#1551=CARTESIAN_POINT('',(10.,60.9499998509884,5.00000007450581));
#1552=CARTESIAN_POINT('Origin',(10.,62.3999998509884,5.00000007450581));
#1553=CARTESIAN_POINT('Origin',(10.,-5.00000007450581,-24.3999998509884));
#1554=CARTESIAN_POINT('',(13.,-6.45000007450581,-24.3999998509884));
#1555=CARTESIAN_POINT('Origin',(13.,-5.00000007450581,-24.3999998509884));
#1556=CARTESIAN_POINT('',(10.,-6.45000007450581,-24.3999998509884));
#1557=CARTESIAN_POINT('',(10.,-6.45000007450581,-24.3999998509884));
#1558=CARTESIAN_POINT('Origin',(10.,-5.00000007450581,-24.3999998509884));
#1559=CARTESIAN_POINT('Origin',(10.,-5.00000007450581,5.00000007450581));
#1560=CARTESIAN_POINT('',(13.,-6.45000007450581,5.00000007450581));
#1561=CARTESIAN_POINT('Origin',(13.,-5.00000007450581,5.00000007450581));
#1562=CARTESIAN_POINT('',(10.,-6.45000007450581,5.00000007450581));
#1563=CARTESIAN_POINT('',(10.,-6.45000007450581,5.00000007450581));
#1564=CARTESIAN_POINT('Origin',(10.,-5.00000007450581,5.00000007450581));
#1565=CARTESIAN_POINT('Origin',(10.,41.125,-3.025));
#1566=CARTESIAN_POINT('',(10.,41.125,-2.525));
#1567=CARTESIAN_POINT('',(10.,40.625,-3.025));
#1568=CARTESIAN_POINT('Origin',(10.,41.125,-3.025));
#1569=CARTESIAN_POINT('',(13.,41.125,-2.525));
#1570=CARTESIAN_POINT('',(10.,41.125,-2.525));
#1571=CARTESIAN_POINT('',(13.,40.625,-3.025));
#1572=CARTESIAN_POINT('Origin',(13.,41.125,-3.025));
#1573=CARTESIAN_POINT('',(10.,40.625,-3.025));
#1574=CARTESIAN_POINT('Origin',(10.,40.625,-16.025));
#1575=CARTESIAN_POINT('',(10.,40.625,-16.025));
#1576=CARTESIAN_POINT('',(10.,40.625,-3.025));
#1577=CARTESIAN_POINT('',(13.,40.625,-16.025));
#1578=CARTESIAN_POINT('',(13.,40.625,-3.025));
#1579=CARTESIAN_POINT('',(10.,40.625,-16.025));
#1580=CARTESIAN_POINT('Origin',(10.,41.125,-16.025));
#1581=CARTESIAN_POINT('',(10.,41.125,-16.525));
#1582=CARTESIAN_POINT('Origin',(10.,41.125,-16.025));
#1583=CARTESIAN_POINT('',(13.,41.125,-16.525));
#1584=CARTESIAN_POINT('Origin',(13.,41.125,-16.025));
#1585=CARTESIAN_POINT('',(10.,41.125,-16.525));
#1586=CARTESIAN_POINT('Origin',(10.,54.125,-16.525));
#1587=CARTESIAN_POINT('',(10.,54.125,-16.525));
#1588=CARTESIAN_POINT('',(10.,41.125,-16.525));
#1589=CARTESIAN_POINT('',(13.,54.125,-16.525));
#1590=CARTESIAN_POINT('',(13.,41.125,-16.525));
#1591=CARTESIAN_POINT('',(10.,54.125,-16.525));
#1592=CARTESIAN_POINT('Origin',(10.,54.125,-16.025));
#1593=CARTESIAN_POINT('',(10.,54.625,-16.025));
#1594=CARTESIAN_POINT('Origin',(10.,54.125,-16.025));
#1595=CARTESIAN_POINT('',(13.,54.625,-16.025));
#1596=CARTESIAN_POINT('Origin',(13.,54.125,-16.025));
#1597=CARTESIAN_POINT('',(10.,54.625,-16.025));
#1598=CARTESIAN_POINT('Origin',(10.,54.625,-3.025));
#1599=CARTESIAN_POINT('',(10.,54.625,-3.025));
#1600=CARTESIAN_POINT('',(10.,54.625,-3.025));
#1601=CARTESIAN_POINT('',(13.,54.625,-3.025));
#1602=CARTESIAN_POINT('',(13.,54.625,-3.025));
#1603=CARTESIAN_POINT('',(10.,54.625,-3.025));
#1604=CARTESIAN_POINT('Origin',(10.,54.125,-3.025));
#1605=CARTESIAN_POINT('',(10.,54.125,-2.525));
#1606=CARTESIAN_POINT('Origin',(10.,54.125,-3.025));
#1607=CARTESIAN_POINT('',(13.,54.125,-2.525));
#1608=CARTESIAN_POINT('Origin',(13.,54.125,-3.025));
#1609=CARTESIAN_POINT('',(10.,54.125,-2.525));
#1610=CARTESIAN_POINT('Origin',(10.,41.125,-2.525));
#1611=CARTESIAN_POINT('',(10.,41.125,-2.525));
#1612=CARTESIAN_POINT('',(13.,41.125,-2.525));
#1613=CARTESIAN_POINT('Origin',(10.,22.075,-3.025));
#1614=CARTESIAN_POINT('',(10.,22.075,-2.525));
#1615=CARTESIAN_POINT('',(10.,21.575,-3.025));
#1616=CARTESIAN_POINT('Origin',(10.,22.075,-3.025));
#1617=CARTESIAN_POINT('',(13.,22.075,-2.525));
#1618=CARTESIAN_POINT('',(10.,22.075,-2.525));
#1619=CARTESIAN_POINT('',(13.,21.575,-3.025));
#1620=CARTESIAN_POINT('Origin',(13.,22.075,-3.025));
#1621=CARTESIAN_POINT('',(10.,21.575,-3.025));
#1622=CARTESIAN_POINT('Origin',(10.,21.575,-16.025));
#1623=CARTESIAN_POINT('',(10.,21.575,-16.025));
#1624=CARTESIAN_POINT('',(10.,21.575,-3.025));
#1625=CARTESIAN_POINT('',(13.,21.575,-16.025));
#1626=CARTESIAN_POINT('',(13.,21.575,-3.025));
#1627=CARTESIAN_POINT('',(10.,21.575,-16.025));
#1628=CARTESIAN_POINT('Origin',(10.,22.075,-16.025));
#1629=CARTESIAN_POINT('',(10.,22.075,-16.525));
#1630=CARTESIAN_POINT('Origin',(10.,22.075,-16.025));
#1631=CARTESIAN_POINT('',(13.,22.075,-16.525));
#1632=CARTESIAN_POINT('Origin',(13.,22.075,-16.025));
#1633=CARTESIAN_POINT('',(10.,22.075,-16.525));
#1634=CARTESIAN_POINT('Origin',(10.,35.075,-16.525));
#1635=CARTESIAN_POINT('',(10.,35.075,-16.525));
#1636=CARTESIAN_POINT('',(10.,22.075,-16.525));
#1637=CARTESIAN_POINT('',(13.,35.075,-16.525));
#1638=CARTESIAN_POINT('',(13.,22.075,-16.525));
#1639=CARTESIAN_POINT('',(10.,35.075,-16.525));
#1640=CARTESIAN_POINT('Origin',(10.,35.075,-16.025));
#1641=CARTESIAN_POINT('',(10.,35.575,-16.025));
#1642=CARTESIAN_POINT('Origin',(10.,35.075,-16.025));
#1643=CARTESIAN_POINT('',(13.,35.575,-16.025));
#1644=CARTESIAN_POINT('Origin',(13.,35.075,-16.025));
#1645=CARTESIAN_POINT('',(10.,35.575,-16.025));
#1646=CARTESIAN_POINT('Origin',(10.,35.575,-3.025));
#1647=CARTESIAN_POINT('',(10.,35.575,-3.025));
#1648=CARTESIAN_POINT('',(10.,35.575,-3.025));
#1649=CARTESIAN_POINT('',(13.,35.575,-3.025));
#1650=CARTESIAN_POINT('',(13.,35.575,-3.025));
#1651=CARTESIAN_POINT('',(10.,35.575,-3.025));
#1652=CARTESIAN_POINT('Origin',(10.,35.075,-3.025));
#1653=CARTESIAN_POINT('',(10.,35.075,-2.525));
#1654=CARTESIAN_POINT('Origin',(10.,35.075,-3.025));
#1655=CARTESIAN_POINT('',(13.,35.075,-2.525));
#1656=CARTESIAN_POINT('Origin',(13.,35.075,-3.025));
#1657=CARTESIAN_POINT('',(10.,35.075,-2.525));
#1658=CARTESIAN_POINT('Origin',(10.,22.075,-2.525));
#1659=CARTESIAN_POINT('',(10.,22.075,-2.525));
#1660=CARTESIAN_POINT('',(13.,22.075,-2.525));
#1661=CARTESIAN_POINT('Origin',(10.,3.025,-3.025));
#1662=CARTESIAN_POINT('',(10.,3.025,-2.525));
#1663=CARTESIAN_POINT('',(10.,2.525,-3.025));
#1664=CARTESIAN_POINT('Origin',(10.,3.025,-3.025));
#1665=CARTESIAN_POINT('',(13.,3.025,-2.525));
#1666=CARTESIAN_POINT('',(10.,3.025,-2.525));
#1667=CARTESIAN_POINT('',(13.,2.525,-3.025));
#1668=CARTESIAN_POINT('Origin',(13.,3.025,-3.025));
#1669=CARTESIAN_POINT('',(10.,2.525,-3.025));
#1670=CARTESIAN_POINT('Origin',(10.,2.525,-16.025));
#1671=CARTESIAN_POINT('',(10.,2.525,-16.025));
#1672=CARTESIAN_POINT('',(10.,2.525,-3.025));
#1673=CARTESIAN_POINT('',(13.,2.525,-16.025));
#1674=CARTESIAN_POINT('',(13.,2.525,-3.025));
#1675=CARTESIAN_POINT('',(10.,2.525,-16.025));
#1676=CARTESIAN_POINT('Origin',(10.,3.025,-16.025));
#1677=CARTESIAN_POINT('',(10.,3.025,-16.525));
#1678=CARTESIAN_POINT('Origin',(10.,3.025,-16.025));
#1679=CARTESIAN_POINT('',(13.,3.025,-16.525));
#1680=CARTESIAN_POINT('Origin',(13.,3.025,-16.025));
#1681=CARTESIAN_POINT('',(10.,3.025,-16.525));
#1682=CARTESIAN_POINT('Origin',(10.,16.025,-16.525));
#1683=CARTESIAN_POINT('',(10.,16.025,-16.525));
#1684=CARTESIAN_POINT('',(10.,3.025,-16.525));
#1685=CARTESIAN_POINT('',(13.,16.025,-16.525));
#1686=CARTESIAN_POINT('',(13.,3.025,-16.525));
#1687=CARTESIAN_POINT('',(10.,16.025,-16.525));
#1688=CARTESIAN_POINT('Origin',(10.,16.025,-16.025));
#1689=CARTESIAN_POINT('',(10.,16.525,-16.025));
#1690=CARTESIAN_POINT('Origin',(10.,16.025,-16.025));
#1691=CARTESIAN_POINT('',(13.,16.525,-16.025));
#1692=CARTESIAN_POINT('Origin',(13.,16.025,-16.025));
#1693=CARTESIAN_POINT('',(10.,16.525,-16.025));
#1694=CARTESIAN_POINT('Origin',(10.,16.525,-3.025));
#1695=CARTESIAN_POINT('',(10.,16.525,-3.025));
#1696=CARTESIAN_POINT('',(10.,16.525,-3.025));
#1697=CARTESIAN_POINT('',(13.,16.525,-3.025));
#1698=CARTESIAN_POINT('',(13.,16.525,-3.025));
#1699=CARTESIAN_POINT('',(10.,16.525,-3.025));
#1700=CARTESIAN_POINT('Origin',(10.,16.025,-3.025));
#1701=CARTESIAN_POINT('',(10.,16.025,-2.525));
#1702=CARTESIAN_POINT('Origin',(10.,16.025,-3.025));
#1703=CARTESIAN_POINT('',(13.,16.025,-2.525));
#1704=CARTESIAN_POINT('Origin',(13.,16.025,-3.025));
#1705=CARTESIAN_POINT('',(10.,16.025,-2.525));
#1706=CARTESIAN_POINT('Origin',(10.,3.025,-2.525));
#1707=CARTESIAN_POINT('',(10.,3.025,-2.525));
#1708=CARTESIAN_POINT('',(13.,3.025,-2.525));
#1709=CARTESIAN_POINT('Origin',(10.,-10.0000001490116,10.0000001490116));
#1710=CARTESIAN_POINT('',(10.,-10.0000001490116,-29.3999998509884));
#1711=CARTESIAN_POINT('',(10.,-10.0000001490116,10.0000001490116));
#1712=CARTESIAN_POINT('',(10.,-10.0000001490116,-29.3999998509884));
#1713=CARTESIAN_POINT('',(13.,-10.0000001490116,-29.3999998509884));
#1714=CARTESIAN_POINT('',(10.,-10.0000001490116,-29.3999998509884));
#1715=CARTESIAN_POINT('',(13.,-10.0000001490116,10.0000001490116));
#1716=CARTESIAN_POINT('',(13.,-10.0000001490116,-29.3999998509884));
#1717=CARTESIAN_POINT('',(10.,-10.0000001490116,10.0000001490116));
#1718=CARTESIAN_POINT('Origin',(10.,67.3999998509884,10.0000001490116));
#1719=CARTESIAN_POINT('',(10.,67.3999998509884,10.0000001490116));
#1720=CARTESIAN_POINT('',(10.,-10.0000001490116,10.0000001490116));
#1721=CARTESIAN_POINT('',(13.,67.3999998509884,10.0000001490116));
#1722=CARTESIAN_POINT('',(13.,-10.0000001490116,10.0000001490116));
#1723=CARTESIAN_POINT('',(10.,67.3999998509884,10.0000001490116));
#1724=CARTESIAN_POINT('Origin',(10.,67.3999998509884,-29.3999998509884));
#1725=CARTESIAN_POINT('',(10.,67.3999998509884,-29.3999998509884));
#1726=CARTESIAN_POINT('',(10.,67.3999998509884,10.0000001490116));
#1727=CARTESIAN_POINT('',(13.,67.3999998509884,-29.3999998509884));
#1728=CARTESIAN_POINT('',(13.,67.3999998509884,10.0000001490116));
#1729=CARTESIAN_POINT('',(10.,67.3999998509884,-29.3999998509884));
#1730=CARTESIAN_POINT('Origin',(10.,-10.0000001490116,-29.3999998509884));
#1731=CARTESIAN_POINT('',(10.,67.3999998509884,-29.3999998509884));
#1732=CARTESIAN_POINT('',(13.,67.3999998509884,-29.3999998509884));
#1733=CARTESIAN_POINT('Origin',(13.,28.6999998509884,-9.69999985098839));
#1734=CARTESIAN_POINT('Origin',(10.,28.6999998509884,-9.69999985098839));
#1735=UNCERTAINTY_MEASURE_WITH_UNIT(LENGTH_MEASURE(0.01),#1739,
'DISTANCE_ACCURACY_VALUE',
'Maximum model space distance between geometric entities at asserted c
onnectivities');
#1736=UNCERTAINTY_MEASURE_WITH_UNIT(LENGTH_MEASURE(0.01),#1739,
'DISTANCE_ACCURACY_VALUE',
'Maximum model space distance between geometric entities at asserted c
onnectivities');
#1737=(
GEOMETRIC_REPRESENTATION_CONTEXT(3)
GLOBAL_UNCERTAINTY_ASSIGNED_CONTEXT((#1735))
GLOBAL_UNIT_ASSIGNED_CONTEXT((#1739,#1741,#1742))
REPRESENTATION_CONTEXT('','3D')
);
#1738=(
GEOMETRIC_REPRESENTATION_CONTEXT(3)
GLOBAL_UNCERTAINTY_ASSIGNED_CONTEXT((#1736))
GLOBAL_UNIT_ASSIGNED_CONTEXT((#1739,#1741,#1742))
REPRESENTATION_CONTEXT('','3D')
);
#1739=(
LENGTH_UNIT()
NAMED_UNIT(*)
SI_UNIT(.MILLI.,.METRE.)
);
#1740=(
LENGTH_UNIT()
NAMED_UNIT(*)
SI_UNIT($,.METRE.)
);
#1741=(
NAMED_UNIT(*)
PLANE_ANGLE_UNIT()
SI_UNIT($,.RADIAN.)
);
#1742=(
NAMED_UNIT(*)
SI_UNIT($,.STERADIAN.)
SOLID_ANGLE_UNIT()
);
#1743=SHAPE_DEFINITION_REPRESENTATION(#1744,#1745);
#1744=PRODUCT_DEFINITION_SHAPE('',$,#1747);
#1745=SHAPE_REPRESENTATION('',(#1059),#1737);
#1746=PRODUCT_DEFINITION_CONTEXT('part definition',#1751,'design');
#1747=PRODUCT_DEFINITION('2026-09-09-23-33-57-366','hackpad',#1748,#1746);
#1748=PRODUCT_DEFINITION_FORMATION('',$,#1753);
#1749=PRODUCT_RELATED_PRODUCT_CATEGORY('hackpad','hackpad',(#1753));
#1750=APPLICATION_PROTOCOL_DEFINITION('international standard',
'automotive_design',2009,#1751);
#1751=APPLICATION_CONTEXT(
'Core Data for Automotive Mechanical Design Process');
#1752=PRODUCT_CONTEXT('part definition',#1751,'mechanical');
#1753=PRODUCT('2026-09-09-23-33-57-366','hackpad',$,(#1752));
#1754=PRESENTATION_STYLE_ASSIGNMENT((#1757));
#1755=PRESENTATION_STYLE_ASSIGNMENT((#1758));
#1756=PRESENTATION_STYLE_ASSIGNMENT((#1759));
#1757=SURFACE_STYLE_USAGE(.BOTH.,#1760);
#1758=SURFACE_STYLE_USAGE(.BOTH.,#1761);
#1759=SURFACE_STYLE_USAGE(.BOTH.,#1762);
#1760=SURFACE_SIDE_STYLE('',(#1763));
#1761=SURFACE_SIDE_STYLE('',(#1764));
#1762=SURFACE_SIDE_STYLE('',(#1765));
#1763=SURFACE_STYLE_FILL_AREA(#1766);
#1764=SURFACE_STYLE_FILL_AREA(#1767);
#1765=SURFACE_STYLE_FILL_AREA(#1768);
#1766=FILL_AREA_STYLE('Steel - Satin',(#1769));
#1767=FILL_AREA_STYLE('Steel - Satin',(#1770));
#1768=FILL_AREA_STYLE('ABS (White)',(#1771));
#1769=FILL_AREA_STYLE_COLOUR('Steel - Satin',#1772);
#1770=FILL_AREA_STYLE_COLOUR('Steel - Satin',#1773);
#1771=FILL_AREA_STYLE_COLOUR('ABS (White)',#1774);
#1772=COLOUR_RGB('Steel - Satin',0.627450980392157,0.627450980392157,0.627450980392157);
#1773=COLOUR_RGB('Steel - Satin',1.,1.,1.);
#1774=COLOUR_RGB('ABS (White)',1.,0.,0.);
ENDSEC;
END-ISO-10303-21;
